<?xml version="1.0" ?>
<svg xmlns="http://www.w3.org/2000/svg" xmlns:ev="http://www.w3.org/2001/xml-events" xmlns:xlink="http://www.w3.org/1999/xlink" baseProfile="full" height="268px" version="1.1" viewBox="66.75128555174948 48.443561229172495 260.39788266944345 115.92410547861624" width="600px">
	<defs/>
	<path d="M 208.703918,152.340149 C 208.641205,145.080002 208.709076,138.247986 208.557236,131.420868 C 208.491669,128.472763 209.659302,126.909081 212.415314,125.872162 C 241.37973,114.97464 270.307648,103.980125 299.249451,93.022415 C 304.355408,91.089233 305.232452,91.617271 305.291626,96.835289 C 305.361542,102.998436 305.198608,109.165756 305.355591,115.325691 C 305.431152,118.291405 304.255249,119.868225 301.511566,120.885292 C 275.138519,130.661636 248.793732,140.514099 222.446655,150.360306 C 219.329041,151.525406 216.282791,152.892349 213.131699,153.952408 C 211.566498,154.478958 209.501968,155.726807 208.703918,152.340149 M 134.647827,108.21019 C 150.06897,114.120323 165.104141,119.965347 180.228516,125.569557 C 183.193939,126.668358 184.498932,128.11084 184.429779,131.317474 C 184.26561,138.931351 184.376953,146.551163 184.376953,153.815643 C 182.391693,154.941391 181.195312,154.206161 179.978546,153.752029 C 151.468521,143.111267 122.992661,132.377274 94.417213,121.915253 C 89.908333,120.264473 88.301376,117.908478 88.569923,113.176659 C 88.962807,106.254128 88.670998,99.292725 88.670998,91.087845 C 104.590988,97.010628 119.442024,102.535713 134.647827,108.21019 M 264.454529,77.138977 C 268.278992,79.431328 265.800262,80.33493 263.894104,81.031197 C 257.01889,83.542496 249.723389,85.20388 243.283081,88.53344 C 234.042145,93.310883 225.609619,93.068321 216.34407,88.687912 C 208.881577,85.159935 208.627274,85.774208 208.594254,77.615334 C 208.576096,73.123299 208.48671,68.62867 208.295151,64.140953 C 208.055862,58.534676 208.911758,57.822304 214.156876,59.642181 C 230.811569,65.420799 247.462479,71.210373 264.454529,77.138977 M 184.36908,76.928452 C 184.241623,87.297997 185.338959,84.866585 176.435333,88.969635 C 167.627731,93.028412 159.719391,93.370613 150.977127,88.807289 C 144.856674,85.612511 137.902802,84.024147 131.348099,81.644096 C 129.858505,81.103218 128.082077,80.895027 126.800179,78.239143 C 145.538254,71.231964 164.204117,64.490219 184.368179,58.194244 C 184.368179,64.722366 184.368179,70.581329 184.36908,76.928452" fill="#000000" stroke="none" stroke-width="1"/>
</svg>
