<svg width="186" height="33" viewBox="0 0 186 33" fill="none" xmlns="http://www.w3.org/2000/svg">
  <path d="M32.488 32.9701C31.5924 32.9701 31 32.3469 31 31.3914V19.3989C31 18.4572 31.5787 17.8756 32.4191 17.8756C33.2458 17.8756 33.8382 18.4434 33.8382 19.3989V20.5898H33.9071C34.5546 18.9696 36.0702 17.8894 38.0266 17.8894C40.0382 17.8894 41.4986 18.928 42.0773 20.7422H42.1461C42.8901 18.9696 44.5986 17.8894 46.6652 17.8894C49.531 17.8894 51.4047 19.8005 51.4047 22.6947V31.3914C51.4047 32.3469 50.7985 32.9701 49.903 32.9701C49.0074 32.9701 48.415 32.3469 48.415 31.3914V23.4149C48.415 21.5315 47.4092 20.4513 45.6457 20.4513C43.8821 20.4513 42.6559 21.7669 42.6559 23.6087V31.3914C42.6559 32.3469 42.091 32.9701 41.1955 32.9701C40.2999 32.9701 39.735 32.3469 39.735 31.3914V23.1933C39.735 21.5177 38.6742 20.4513 36.9933 20.4513C35.2297 20.4513 33.976 21.8362 33.976 23.7057V31.3914C33.976 32.3469 33.3835 32.9701 32.488 32.9701Z" fill="black"/>
  <path d="M59.3743 32.9563C56.5361 32.9563 54.5383 31.1837 54.5383 28.5664C54.5383 26.0183 56.4948 24.4535 59.9254 24.2596L63.9072 24.0242V22.9025C63.9072 21.2822 62.8187 20.3129 61.0001 20.3129C59.5672 20.3129 58.6165 20.8252 57.7899 22.1547C57.4868 22.5978 57.101 22.7917 56.5774 22.7917C55.8334 22.7917 55.2961 22.2932 55.2961 21.5453C55.2961 21.2407 55.3788 20.9083 55.5579 20.576C56.3157 18.928 58.5063 17.8756 61.1103 17.8756C64.6236 17.8756 66.8694 19.7451 66.8694 22.6671V31.4606C66.8694 32.4023 66.2769 32.9701 65.4365 32.9701C64.6098 32.9701 64.0449 32.43 64.0174 31.5437V30.3113H63.9485C63.1081 31.9315 61.2618 32.9563 59.3743 32.9563ZM60.1872 30.5882C62.2676 30.5882 63.9072 29.148 63.9072 27.2508V26.1014L60.325 26.323C58.5476 26.4476 57.5419 27.237 57.5419 28.4833C57.5419 29.7573 58.6028 30.5882 60.1872 30.5882Z" fill="black"/>
  <path d="M72.1936 15.9368C71.2429 15.9368 70.4714 15.1613 70.4714 14.2197C70.4714 13.2641 71.2429 12.5163 72.1936 12.5163C73.158 12.5163 73.9296 13.2641 73.9296 14.2197C73.9296 15.1613 73.158 15.9368 72.1936 15.9368ZM72.1936 32.9701C71.2981 32.9701 70.7056 32.3469 70.7056 31.3914V19.4681C70.7056 18.4987 71.2981 17.8756 72.1936 17.8756C73.0892 17.8756 73.6816 18.4987 73.6816 19.4681V31.3914C73.6816 32.3469 73.0892 32.9701 72.1936 32.9701Z" fill="black"/>
  <path d="M79.1712 32.9701C78.3032 32.9701 77.6832 32.3746 77.6832 31.3914V14.0396C77.6832 13.0564 78.3032 12.4609 79.1712 12.4609C80.0392 12.4609 80.6592 13.0564 80.6592 14.0396V31.3914C80.6592 32.3746 80.0392 32.9701 79.1712 32.9701Z" fill="black"/>
  <path d="M90.8469 32.984C86.4794 32.984 83.9168 30.2005 83.9168 25.4921C83.9168 20.8668 86.5345 17.8756 90.6403 17.8756C94.498 17.8756 97.1571 20.6729 97.1571 24.6473C97.1571 25.6167 96.606 26.1706 95.6829 26.1706H86.9203V26.2399C86.9203 28.8987 88.4083 30.5605 90.778 30.5605C92.4038 30.5605 93.4234 29.9927 94.5256 28.4833C94.8425 28.1094 95.1456 27.9571 95.5727 27.9571C96.2891 27.9571 96.8127 28.4279 96.8127 29.1757C96.8127 29.4111 96.73 29.6881 96.606 29.9789C95.6553 31.8899 93.5474 32.984 90.8469 32.984ZM86.9341 24.0796H94.1811C94.1122 21.7946 92.6931 20.2852 90.6265 20.2852C88.5736 20.2852 87.0856 21.8085 86.9341 24.0796Z" fill="black"/>
  <path d="M101.806 32.9701C100.911 32.9701 100.318 32.3608 100.318 31.3914V19.385C100.318 18.4711 100.897 17.8756 101.737 17.8756C102.564 17.8756 103.143 18.4711 103.143 19.385V20.6314H103.212C103.611 18.9973 104.948 17.9033 106.394 17.9033C106.918 17.9033 107.317 18.0279 107.565 18.2633C107.841 18.4849 107.965 18.845 107.965 19.3158C107.965 19.7866 107.813 20.1328 107.524 20.3683C107.221 20.6314 106.78 20.756 106.16 20.756C104.121 20.7698 103.294 22.1408 103.294 23.9549V31.3914C103.294 32.3608 102.688 32.9701 101.806 32.9701Z" fill="black"/>
  <path fill-rule="evenodd" clip-rule="evenodd" d="M115.462 9.25958C115.462 6.36286 115.462 4.9145 116.023 3.8081C116.517 2.83488 117.304 2.04363 118.272 1.54775C119.373 0.984009 120.814 0.984009 123.696 0.984009H146.767C149.649 0.984009 151.09 0.984009 152.19 1.54775C153.159 2.04363 153.946 2.83488 154.439 3.8081C155 4.9145 155 6.36286 155 9.25958V18.6558C155 21.5525 155 23.0009 154.439 24.1073C153.946 25.0805 153.159 25.8718 152.19 26.3676C151.09 26.9314 149.649 26.9314 146.767 26.9314H121.552L115.419 32.8795L115.462 26.9314V9.25958ZM122.965 21.3222C122.965 22.0358 123.417 22.468 124.05 22.468C124.684 22.468 125.136 22.0358 125.136 21.3222V8.72886C125.136 8.01527 124.684 7.58309 124.05 7.58309C123.417 7.58309 122.965 8.01527 122.965 8.72886V21.3222ZM127.884 8.85952C127.884 9.54296 128.447 10.1058 129.14 10.1058C129.844 10.1058 130.407 9.54296 130.407 8.85952C130.407 8.16603 129.844 7.62329 129.14 7.62329C128.447 7.62329 127.884 8.16603 127.884 8.85952ZM128.055 21.3222C128.055 22.0157 128.487 22.468 129.14 22.468C129.794 22.468 130.226 22.0157 130.226 21.3222V12.6687C130.226 11.9651 129.794 11.5129 129.14 11.5129C128.487 11.5129 128.055 11.9651 128.055 12.6687V21.3222ZM133.698 13.4225V19.7443C133.698 21.4931 134.602 22.3675 136.381 22.3675H136.492C137.557 22.3675 138.06 22.0358 138.06 21.3825C138.06 20.87 137.748 20.6187 137.125 20.5584L136.954 20.5483C136.17 20.488 135.879 20.1061 135.879 19.2619V13.4225H137.115C137.678 13.4225 138.019 13.1009 138.019 12.5682C138.019 12.0355 137.678 11.7038 137.115 11.7038H135.879V10.1359C135.879 9.44245 135.447 8.98012 134.793 8.98012C134.13 8.98012 133.698 9.44245 133.698 10.1359V11.7038H132.934C132.371 11.7038 132.029 12.0255 132.029 12.5682C132.029 13.1009 132.371 13.4225 132.934 13.4225H133.698ZM139.562 17.0407C139.562 20.4579 141.431 22.4781 144.617 22.4781C146.587 22.4781 148.125 21.6841 148.818 20.2971C148.909 20.086 148.969 19.885 148.969 19.7141C148.969 19.1714 148.587 18.8297 148.064 18.8297C147.753 18.8297 147.532 18.9403 147.301 19.2116C146.497 20.3071 145.753 20.7192 144.567 20.7192C142.838 20.7192 141.753 19.5131 141.753 17.5834V17.5332H148.145C148.818 17.5332 149.22 17.1311 149.22 16.4276C149.22 13.5431 147.28 11.5129 144.466 11.5129C141.471 11.5129 139.562 13.6838 139.562 17.0407ZM147.049 16.0155H141.763C141.873 14.3672 142.959 13.2617 144.456 13.2617C145.964 13.2617 146.999 14.3572 147.049 16.0155Z" fill="#595959"/>
  </svg>
  