<svg width="186" height="32" viewBox="0 0 186 32" fill="none" xmlns="http://www.w3.org/2000/svg">
  <path d="M32.488 31.9862C31.5924 31.9862 31 31.363 31 30.4075V18.4149C31 17.4733 31.5787 16.8916 32.4191 16.8916C33.2458 16.8916 33.8382 17.4594 33.8382 18.4149V19.6059H33.9071C34.5546 17.9856 36.0702 16.9055 38.0266 16.9055C40.0382 16.9055 41.4986 17.9441 42.0773 19.7582H42.1461C42.8901 17.9856 44.5986 16.9055 46.6652 16.9055C49.531 16.9055 51.4047 18.8165 51.4047 21.7108V30.4075C51.4047 31.363 50.7985 31.9862 49.903 31.9862C49.0074 31.9862 48.415 31.363 48.415 30.4075V22.4309C48.415 20.5476 47.4092 19.4674 45.6457 19.4674C43.8821 19.4674 42.6559 20.783 42.6559 22.6248V30.4075C42.6559 31.363 42.091 31.9862 41.1955 31.9862C40.2999 31.9862 39.735 31.363 39.735 30.4075V22.2093C39.735 20.5337 38.6742 19.4674 36.9933 19.4674C35.2297 19.4674 33.976 20.8522 33.976 22.7217V30.4075C33.976 31.363 33.3835 31.9862 32.488 31.9862Z" fill="white"/>
  <path d="M59.3743 31.9723C56.5361 31.9723 54.5383 30.1997 54.5383 27.5824C54.5383 25.0344 56.4948 23.4695 59.9254 23.2756L63.9072 23.0402V21.9185C63.9072 20.2983 62.8187 19.3289 61.0001 19.3289C59.5672 19.3289 58.6165 19.8413 57.7899 21.1707C57.4868 21.6139 57.101 21.8077 56.5774 21.8077C55.8334 21.8077 55.2961 21.3092 55.2961 20.5614C55.2961 20.2567 55.3788 19.9244 55.5579 19.592C56.3157 17.9441 58.5063 16.8916 61.1103 16.8916C64.6236 16.8916 66.8694 18.7611 66.8694 21.6831V30.4767C66.8694 31.4184 66.2769 31.9862 65.4365 31.9862C64.6098 31.9862 64.0449 31.4461 64.0174 30.5598V29.3273H63.9485C63.1081 30.9475 61.2618 31.9723 59.3743 31.9723ZM60.1872 29.6043C62.2676 29.6043 63.9072 28.1641 63.9072 26.2669V25.1175L60.325 25.339C58.5476 25.4637 57.5419 26.253 57.5419 27.4993C57.5419 28.7734 58.6028 29.6043 60.1872 29.6043Z" fill="white"/>
  <path d="M72.1936 14.9529C71.243 14.9529 70.4714 14.1774 70.4714 13.2357C70.4714 12.2802 71.243 11.5324 72.1936 11.5324C73.158 11.5324 73.9296 12.2802 73.9296 13.2357C73.9296 14.1774 73.158 14.9529 72.1936 14.9529ZM72.1936 31.9862C71.2981 31.9862 70.7056 31.363 70.7056 30.4075V18.4842C70.7056 17.5148 71.2981 16.8916 72.1936 16.8916C73.0892 16.8916 73.6816 17.5148 73.6816 18.4842V30.4075C73.6816 31.363 73.0892 31.9862 72.1936 31.9862Z" fill="white"/>
  <path d="M79.1712 31.9862C78.3032 31.9862 77.6832 31.3907 77.6832 30.4075V13.0557C77.6832 12.0725 78.3032 11.477 79.1712 11.477C80.0392 11.477 80.6592 12.0725 80.6592 13.0557V30.4075C80.6592 31.3907 80.0392 31.9862 79.1712 31.9862Z" fill="white"/>
  <path d="M90.8469 32C86.4794 32 83.9168 29.2165 83.9168 24.5081C83.9168 19.8828 86.5345 16.8916 90.6403 16.8916C94.498 16.8916 97.1571 19.689 97.1571 23.6634C97.1571 24.6328 96.606 25.1867 95.6829 25.1867H86.9203V25.2559C86.9203 27.9148 88.4083 29.5766 90.778 29.5766C92.4038 29.5766 93.4234 29.0088 94.5256 27.4993C94.8425 27.1254 95.1456 26.9731 95.5727 26.9731C96.2891 26.9731 96.8127 27.4439 96.8127 28.1918C96.8127 28.4272 96.73 28.7041 96.606 28.9949C95.6553 30.906 93.5474 32 90.8469 32ZM86.9341 23.0956H94.1811C94.1122 20.8107 92.6931 19.3012 90.6265 19.3012C88.5736 19.3012 87.0856 20.8245 86.9341 23.0956Z" fill="white"/>
  <path d="M101.806 31.9862C100.911 31.9862 100.318 31.3768 100.318 30.4075V18.4011C100.318 17.4871 100.897 16.8916 101.737 16.8916C102.564 16.8916 103.143 17.4871 103.143 18.4011V19.6474H103.212C103.611 18.0133 104.948 16.9193 106.394 16.9193C106.918 16.9193 107.317 17.044 107.565 17.2794C107.841 17.501 107.965 17.861 107.965 18.3318C107.965 18.8027 107.813 19.1489 107.524 19.3843C107.221 19.6474 106.78 19.7721 106.16 19.7721C104.121 19.7859 103.294 21.1569 103.294 22.971V30.4075C103.294 31.3768 102.688 31.9862 101.806 31.9862Z" fill="white"/>
  <path fill-rule="evenodd" clip-rule="evenodd" d="M115.462 8.27558C115.462 5.37885 115.462 3.93049 116.023 2.82409C116.517 1.85087 117.304 1.05962 118.272 0.56374C119.373 0 120.814 0 123.696 0H146.767C149.649 0 151.09 0 152.19 0.56374C153.159 1.05962 153.946 1.85087 154.439 2.82409C155 3.93049 155 5.37885 155 8.27558V17.6718C155 20.5685 155 22.0169 154.439 23.1233C153.946 24.0965 153.159 24.8878 152.19 25.3836C151.09 25.9474 149.649 25.9474 146.767 25.9474H121.552L115.419 31.8954L115.462 25.9474V8.27558ZM122.965 20.3382C122.965 21.0518 123.417 21.484 124.05 21.484C124.684 21.484 125.136 21.0518 125.136 20.3382V7.74485C125.136 7.03126 124.684 6.59908 124.05 6.59908C123.417 6.59908 122.965 7.03126 122.965 7.74485V20.3382ZM127.884 7.87551C127.884 8.55895 128.447 9.12178 129.14 9.12178C129.844 9.12178 130.407 8.55895 130.407 7.87551C130.407 7.18202 129.844 6.63929 129.14 6.63929C128.447 6.63929 127.884 7.18202 127.884 7.87551ZM128.055 20.3382C128.055 21.0317 128.487 21.484 129.14 21.484C129.794 21.484 130.226 21.0317 130.226 20.3382V11.6847C130.226 10.9811 129.794 10.5289 129.14 10.5289C128.487 10.5289 128.055 10.9811 128.055 11.6847V20.3382ZM133.698 12.4385V18.7603C133.698 20.5091 134.602 21.3835 136.381 21.3835H136.492C137.557 21.3835 138.06 21.0518 138.06 20.3985C138.06 19.886 137.748 19.6347 137.125 19.5744L136.954 19.5643C136.17 19.504 135.879 19.1221 135.879 18.2779V12.4385H137.115C137.678 12.4385 138.019 12.1169 138.019 11.5842C138.019 11.0515 137.678 10.7198 137.115 10.7198H135.879V9.15193C135.879 8.45844 135.447 7.99611 134.793 7.99611C134.13 7.99611 133.698 8.45844 133.698 9.15193V10.7198H132.934C132.371 10.7198 132.029 11.0414 132.029 11.5842C132.029 12.1169 132.371 12.4385 132.934 12.4385H133.698ZM139.562 16.0567C139.562 19.4739 141.431 21.4941 144.617 21.4941C146.587 21.4941 148.125 20.7001 148.818 19.3131C148.909 19.102 148.969 18.901 148.969 18.7301C148.969 18.1874 148.587 17.8457 148.064 17.8457C147.753 17.8457 147.532 17.9562 147.301 18.2276C146.497 19.3231 145.753 19.7352 144.567 19.7352C142.838 19.7352 141.753 18.5291 141.753 16.5994V16.5492H148.145C148.818 16.5492 149.22 16.1471 149.22 15.4436C149.22 12.5591 147.28 10.5289 144.466 10.5289C141.471 10.5289 139.562 12.6998 139.562 16.0567ZM147.049 15.0315H141.763C141.873 13.3832 142.959 12.2777 144.456 12.2777C145.964 12.2777 146.999 13.3732 147.049 15.0315Z" fill="#D9D9D9"/>
  </svg>
  