<svg width="186" height="49" viewBox="0 0 186 49" fill="none" xmlns="http://www.w3.org/2000/svg">
<path d="M2.23198 47.9952C0.88866 47.9952 0 47.0604 0 45.6271V27.6384C0 26.2258 0.867994 25.3534 2.12865 25.3534C3.36864 25.3534 4.2573 26.2051 4.2573 27.6384V29.4248H4.36064C5.33196 26.9944 7.60528 25.3742 10.5399 25.3742C13.5572 25.3742 15.7479 26.9321 16.6159 29.6533H16.7192C17.8352 26.9944 20.3979 25.3742 23.4978 25.3742C27.7965 25.3742 30.6071 28.2408 30.6071 32.5822V45.6271C30.6071 47.0604 29.6978 47.9952 28.3545 47.9952C27.0111 47.9952 26.1225 47.0604 26.1225 45.6271V33.6623C26.1225 30.8373 24.6138 29.217 21.9685 29.217C19.3232 29.217 17.4839 31.1904 17.4839 33.9531V45.6271C17.4839 47.0604 16.6365 47.9952 15.2932 47.9952C13.9499 47.9952 13.1026 47.0604 13.1026 45.6271V33.33C13.1026 30.8165 11.5113 29.217 8.98994 29.217C6.34462 29.217 4.46397 31.2943 4.46397 34.0985V45.6271C4.46397 47.0604 3.57531 47.9952 2.23198 47.9952Z" fill="white"/>
<path d="M42.5615 47.9744C38.3042 47.9744 35.3075 45.3156 35.3075 41.3896C35.3075 37.5675 38.2422 35.2202 43.3881 34.9294L49.3607 34.5763V32.8937C49.3607 30.4634 47.7281 29.0093 45.0001 29.0093C42.8508 29.0093 41.4248 29.7779 40.1848 31.772C39.7301 32.4368 39.1515 32.7276 38.3662 32.7276C37.2502 32.7276 36.4442 31.9798 36.4442 30.8581C36.4442 30.4011 36.5682 29.9025 36.8368 29.404C37.9735 26.9321 41.2595 25.3534 45.1654 25.3534C50.4354 25.3534 53.804 28.1577 53.804 32.5406V45.731C53.804 47.1435 52.9154 47.9952 51.6547 47.9952C50.4147 47.9952 49.5674 47.1851 49.5261 45.8556V44.0069H49.4227C48.1621 46.4373 45.3928 47.9744 42.5615 47.9744ZM43.7808 44.4224C46.9014 44.4224 49.3607 42.262 49.3607 39.4162V37.6921L43.9874 38.0245C41.3215 38.2114 39.8128 39.3955 39.8128 41.265C39.8128 43.176 41.4041 44.4224 43.7808 44.4224Z" fill="white"/>
<path d="M61.7904 22.4453C60.3644 22.4453 59.2071 21.282 59.2071 19.8695C59.2071 18.4362 60.3644 17.3145 61.7904 17.3145C63.2371 17.3145 64.3944 18.4362 64.3944 19.8695C64.3944 21.282 63.2371 22.4453 61.7904 22.4453ZM61.7904 47.9952C60.4471 47.9952 59.5584 47.0604 59.5584 45.6271V27.7422C59.5584 26.2882 60.4471 25.3534 61.7904 25.3534C63.1337 25.3534 64.0224 26.2882 64.0224 27.7422V45.6271C64.0224 47.0604 63.1337 47.9952 61.7904 47.9952Z" fill="white"/>
<path d="M72.2568 47.9952C70.9548 47.9952 70.0248 47.102 70.0248 45.6271V19.5995C70.0248 18.1247 70.9548 17.2314 72.2568 17.2314C73.5588 17.2314 74.4888 18.1247 74.4888 19.5995V45.6271C74.4888 47.102 73.5588 47.9952 72.2568 47.9952Z" fill="white"/>
<path d="M89.7704 48.016C83.2191 48.016 79.3751 43.8407 79.3751 36.7782C79.3751 29.8402 83.3018 25.3534 89.4604 25.3534C95.247 25.3534 99.2357 29.5494 99.2357 35.5111C99.2357 36.9651 98.409 37.796 97.0244 37.796H83.8804V37.8999C83.8804 41.8881 86.1124 44.3808 89.6671 44.3808C92.1057 44.3808 93.635 43.5292 95.2884 41.265C95.7637 40.7041 96.2184 40.4756 96.859 40.4756C97.9337 40.4756 98.719 41.1819 98.719 42.3036C98.719 42.6567 98.595 43.0722 98.409 43.5084C96.983 46.375 93.821 48.016 89.7704 48.016ZM83.9011 34.6594H94.7717C94.6684 31.232 92.5397 28.9678 89.4397 28.9678C86.3604 28.9678 84.1284 31.2527 83.9011 34.6594Z" fill="white"/>
<path d="M106.209 47.9952C104.866 47.9952 103.977 47.0812 103.977 45.6271V27.6176C103.977 26.2466 104.845 25.3534 106.106 25.3534C107.346 25.3534 108.214 26.2466 108.214 27.6176V29.4871H108.317C108.917 27.036 110.921 25.395 113.091 25.395C113.877 25.395 114.476 25.5819 114.848 25.935C115.261 26.2674 115.447 26.8075 115.447 27.5137C115.447 28.22 115.22 28.7393 114.786 29.0924C114.331 29.4871 113.67 29.674 112.74 29.674C109.681 29.6948 108.441 31.7513 108.441 34.4724V45.6271C108.441 47.0812 107.532 47.9952 106.209 47.9952Z" fill="white"/>
<path fill-rule="evenodd" clip-rule="evenodd" d="M126.694 12.4294C126.694 8.08427 126.694 5.91173 127.535 4.25213C128.275 2.7923 129.456 1.60542 130.908 0.861601C132.559 0.0159912 134.721 0.0159912 139.044 0.0159912H173.65C177.973 0.0159912 180.135 0.0159912 181.786 0.861601C183.238 1.60542 184.419 2.7923 185.159 4.25213C186 5.91173 186 8.08427 186 12.4294V26.5237C186 30.8688 186 33.0413 185.159 34.7009C184.419 36.1608 183.238 37.3476 181.786 38.0914C180.135 38.9371 177.973 38.9371 173.65 38.9371H135.828L126.629 47.8592L126.694 38.9371V12.4294ZM137.948 29.5233C137.948 30.5937 138.626 31.242 139.576 31.242C140.526 31.242 141.204 30.5937 141.204 29.5233V10.6333C141.204 9.56288 140.526 8.91462 139.576 8.91462C138.626 8.91462 137.948 9.56288 137.948 10.6333V29.5233ZM145.326 10.8293C145.326 11.8544 146.171 12.6987 147.211 12.6987C148.266 12.6987 149.11 11.8544 149.11 10.8293C149.11 9.78902 148.266 8.97492 147.211 8.97492C146.171 8.97492 145.326 9.78902 145.326 10.8293ZM145.583 29.5233C145.583 30.5636 146.231 31.242 147.211 31.242C148.191 31.242 148.839 30.5636 148.839 29.5233V16.543C148.839 15.4877 148.191 14.8093 147.211 14.8093C146.231 14.8093 145.583 15.4877 145.583 16.543V29.5233ZM154.047 17.6737V27.1564C154.047 29.7796 155.404 31.0912 158.072 31.0912H158.238C159.836 31.0912 160.59 30.5937 160.59 29.6138C160.59 28.8449 160.122 28.468 159.188 28.3776L158.931 28.3625C157.755 28.272 157.318 27.6992 157.318 26.4328V17.6737H159.173C160.017 17.6737 160.529 17.1913 160.529 16.3923C160.529 15.5932 160.017 15.0957 159.173 15.0957H157.318V12.7439C157.318 11.7037 156.67 11.0102 155.69 11.0102C154.695 11.0102 154.047 11.7037 154.047 12.7439V15.0957H152.901C152.057 15.0957 151.544 15.5782 151.544 16.3923C151.544 17.1913 152.057 17.6737 152.901 17.6737H154.047ZM162.843 23.101C162.843 28.2268 165.647 31.2571 170.426 31.2571C173.381 31.2571 175.687 30.0661 176.728 27.9856C176.863 27.669 176.954 27.3675 176.954 27.1112C176.954 26.2971 176.381 25.7845 175.597 25.7845C175.13 25.7845 174.798 25.9504 174.451 26.3574C173.245 28.0007 172.129 28.6188 170.35 28.6188C167.757 28.6188 166.129 26.8097 166.129 23.9151V23.8397H175.717C176.728 23.8397 177.331 23.2367 177.331 22.1814C177.331 17.8546 174.421 14.8093 170.2 14.8093C165.707 14.8093 162.843 18.0657 162.843 23.101ZM174.074 21.5633H166.144C166.31 19.0908 167.938 17.4325 170.185 17.4325C172.446 17.4325 173.999 19.0758 174.074 21.5633Z" fill="#D9D9D9"/>
</svg>
