<svg width="186" height="33" viewBox="0 0 186 33" fill="none" xmlns="http://www.w3.org/2000/svg">
<path fill-rule="evenodd" clip-rule="evenodd" d="M127.132 0.983887C126.652 0.983887 126.264 1.37263 126.264 1.85217V5.78568C126.264 6.26522 126.652 6.65396 127.132 6.65396C127.611 6.65396 128 6.26522 128 5.78568V1.85217C128 1.37263 127.611 0.983887 127.132 0.983887ZM127.132 9.2014C126.652 9.2014 126.264 9.59014 126.264 10.0697V20.7415C126.264 21.2211 126.652 21.6098 127.132 21.6098C127.611 21.6098 128 21.2211 128 20.7415V10.0697C128 9.59014 127.611 9.2014 127.132 9.2014ZM106.458 9.53009C103.874 9.53009 102.076 11.6256 102.076 13.0636H102.076L102.076 13.0691V20.7415C102.076 21.2211 102.465 21.6098 102.944 21.6098C103.424 21.6098 103.812 21.2211 103.812 20.7415V13.0691L103.812 13.0573C103.817 12.6385 104.319 11.2558 106.458 11.2558V11.2551L106.476 11.2556L106.495 11.2558H109.371C111.491 11.2635 111.992 12.6345 111.999 13.0549V20.6589C111.999 21.1841 112.425 21.6098 112.95 21.6098C113.475 21.6098 113.901 21.1841 113.901 20.6589V13.0508C113.911 12.6244 114.419 11.2558 116.547 11.2558V11.2551C116.559 11.2555 116.571 11.2558 116.583 11.2558H119.459C121.587 11.2635 122.084 12.6439 122.088 13.0592L122.088 13.0691V20.7416C122.088 21.2211 122.476 21.6098 122.956 21.6098C123.436 21.6098 123.824 21.2211 123.824 20.7416V13.0691L123.824 13.0636H123.824C123.824 11.6952 122.196 9.73163 119.812 9.54454C119.76 9.53507 119.708 9.53012 119.654 9.53012H119.459L119.442 9.53009L116.583 9.53012C116.571 9.53012 116.559 9.53037 116.547 9.53086V9.53009C114.988 9.53009 113.715 10.2929 112.95 11.2139C112.247 10.3669 111.113 9.65364 109.723 9.54454C109.672 9.53507 109.619 9.53012 109.565 9.53012H109.371L109.353 9.53009L106.495 9.53012L106.482 9.53021C106.474 9.53032 106.466 9.53054 106.458 9.53086V9.53009ZM88.0337 12.8621C88.2176 11.4427 89.9582 9.57116 92.4004 9.57117V9.57194C92.4123 9.57145 92.4244 9.5712 92.4365 9.5712L95.2949 9.57117L95.3124 9.5712H95.507C95.5609 9.5712 95.6137 9.57615 95.6649 9.58562C98.0491 9.77271 99.6776 11.7363 99.6776 13.1047H99.6776L99.6776 13.1102V14.1676C99.6776 14.6471 99.2888 15.0358 98.8093 15.0358C98.3297 15.0358 97.941 14.6471 97.941 14.1676V13.1102L97.9411 13.1004C97.9376 12.6853 97.4403 11.3046 95.3127 11.2969H92.4365C92.4244 11.2969 92.4123 11.2966 92.4004 11.2961V11.2968C90.281 11.2968 89.7686 12.6543 89.7545 13.0865V20.7415C89.7545 21.2211 89.3657 21.6098 88.8862 21.6098C88.4067 21.6098 88.0179 21.2211 88.0179 20.7415V13.1047H88.0176L88.0177 13.0881L88.0179 13.0721V13.028C88.0179 12.9713 88.0233 12.9158 88.0337 12.8621ZM73.7117 10.4394C73.7117 9.95991 74.1004 9.57117 74.58 9.57117C75.0595 9.57117 75.4483 9.95991 75.4483 10.4394V17.208C75.4483 17.2236 75.4478 17.2391 75.447 17.2545H75.4483C75.4483 19.2335 76.6543 19.8201 77.1608 19.8959C77.2072 19.8881 77.2549 19.8841 77.3035 19.8841H81.7798C81.8209 19.8841 81.8614 19.887 81.901 19.8926C82.4186 19.8044 83.5931 19.2074 83.5931 17.2545H83.5945C83.5936 17.2391 83.5932 17.2236 83.5932 17.208V10.4394C83.5932 9.95991 83.982 9.57117 84.4615 9.57117C84.9411 9.57117 85.3298 9.95991 85.3298 10.4394V17.208C85.3298 17.2236 85.3294 17.2391 85.3286 17.2545H85.3297C85.3297 19.8096 83.2421 21.5918 81.7957 21.6097L81.7798 21.6098H77.3035C77.2914 21.6098 77.2794 21.6096 77.2675 21.6091V21.6098C75.8204 21.6098 73.7117 19.8225 73.7117 17.2545H73.7129C73.7121 17.2391 73.7117 17.2236 73.7117 17.208V10.4394ZM58 1.97544C58 1.4959 58.3887 1.10715 58.8683 1.10715C59.3478 1.10715 59.7366 1.4959 59.7366 1.97544V18.6872C59.7366 19.1667 59.3478 19.5555 58.8683 19.5555C58.3887 19.5555 58 19.1667 58 18.6872V1.97544ZM69.8149 9.86243C69.5067 9.49738 68.9594 9.4495 68.5924 9.75547L61.3521 15.7928C61.0521 16.0429 60.9655 16.452 61.1123 16.7925C61.1425 16.8708 61.1848 16.946 61.2395 17.0155L73.5324 32.651C73.828 33.0271 74.3741 33.0942 74.7519 32.8008C75.1298 32.5074 75.1965 31.9647 74.9008 31.5886L63.4725 17.0528C63.2674 16.792 63.307 16.4153 63.5619 16.2028L69.7086 11.0774C70.0756 10.7714 70.1232 10.2275 69.8149 9.86243Z" fill="black"/>
</svg>
