<svg width="186" height="87" viewBox="0 0 186 87" fill="none" xmlns="http://www.w3.org/2000/svg">
<path fill-rule="evenodd" clip-rule="evenodd" d="M183.693 0.0159912C182.419 0.0159912 181.386 1.04893 181.386 2.32314V12.9473C181.386 14.2215 182.419 15.2544 183.693 15.2544C184.967 15.2544 186 14.2215 186 12.9473V2.32314C186 1.04894 184.967 0.0159912 183.693 0.0159912ZM183.693 22.1007C182.419 22.1007 181.386 23.1336 181.386 24.4078V53.1414C181.386 54.4156 182.419 55.4485 183.693 55.4485C184.967 55.4485 186 54.4156 186 53.1414V24.4078C186 23.1336 184.967 22.1007 183.693 22.1007ZM128.761 22.9841C121.918 22.9841 117.148 28.5768 117.115 32.4403L117.115 32.4687V32.4805V53.1414C117.115 54.4156 118.148 55.4485 119.422 55.4485C120.697 55.4485 121.73 54.4156 121.73 53.1414V32.4788C121.731 31.3726 123.051 27.6218 128.761 27.6218V27.6187C128.801 27.6208 128.842 27.6219 128.882 27.6219H136.474C142.127 27.6319 143.463 31.3239 143.482 32.4562V52.9217C143.482 54.3172 144.614 55.4486 146.009 55.4486C147.405 55.4486 148.536 54.3172 148.536 52.9217V32.4805H148.536C148.536 31.3762 149.855 27.6218 155.568 27.6218V27.6187C155.608 27.6208 155.649 27.6219 155.689 27.6219H163.281C168.975 27.632 170.289 31.3777 170.29 32.4805V53.1414C170.29 54.4156 171.322 55.4485 172.597 55.4485C173.871 55.4485 174.904 54.4156 174.904 53.1414V32.4687L174.904 32.4422L174.903 32.4261C174.861 28.7441 170.529 23.5032 164.205 23.0201C164.072 22.9964 163.936 22.9841 163.796 22.9841H163.281L163.258 22.9841L155.689 22.9841L155.658 22.9843L155.635 22.9847C155.613 22.9852 155.59 22.9861 155.568 22.9872V22.9841C151.425 22.9841 148.041 25.0343 146.01 27.5097C144.135 25.2256 141.109 23.3034 137.398 23.02C137.265 22.9964 137.128 22.9841 136.989 22.9841H136.474H136.451H128.882C128.842 22.9841 128.801 22.9851 128.761 22.9872V22.9841ZM99.0973 23.0945L99.125 23.0945H99.6348C99.7743 23.0945 99.911 23.1068 100.044 23.1304C106.399 23.6157 110.743 28.9062 110.743 32.5909H110.743V35.4737C110.743 36.7479 109.71 37.7808 108.436 37.7808C107.161 37.7808 106.128 36.7479 106.128 35.4737V32.5792L106.128 32.568C106.111 31.4377 104.776 27.7448 99.1262 27.7323H91.5284C91.4876 27.7323 91.4471 27.7312 91.4068 27.7292V27.7323C85.6939 27.7323 84.3755 31.4867 84.3755 32.5909V53.1414C84.3755 54.4156 83.3426 55.4486 82.0684 55.4486C80.7942 55.4486 79.7612 54.4156 79.7612 53.1414V32.3583C79.7612 32.1892 79.7794 32.0243 79.814 31.8655C80.3521 28.0599 84.9592 23.0945 91.4068 23.0945V23.0976C91.4471 23.0956 91.4876 23.0945 91.5284 23.0945L99.0973 23.0945ZM41.7485 25.4016C41.7485 24.1274 42.7815 23.0945 44.0557 23.0945C45.3299 23.0945 46.3628 24.1274 46.3628 25.4016V43.645C46.3628 43.6781 46.3621 43.711 46.3608 43.7437H46.3628C46.3628 49.0776 49.5861 50.6478 50.9249 50.844C51.0528 50.8222 51.1843 50.8108 51.3184 50.8108H63.1602C63.2753 50.8108 63.3884 50.8191 63.4989 50.8353C64.8689 50.6047 68.0058 49.0057 68.0058 43.7437H68.0081C68.0076 43.7303 68.0071 43.7168 68.0068 43.7033C68.0063 43.6839 68.0061 43.6645 68.0061 43.645V25.4016C68.0061 24.1274 69.039 23.0945 70.3132 23.0945C71.5874 23.0945 72.6204 24.1274 72.6204 25.4016V43.645C72.6204 43.6781 72.6197 43.711 72.6183 43.7437H72.6201C72.6201 50.6452 67.017 55.4486 63.1718 55.4486V55.4485L63.1602 55.4485H51.3184C51.2776 55.4485 51.2371 55.4475 51.1968 55.4454V55.4486C47.3516 55.4486 41.7485 50.6452 41.7485 43.7437H41.7506C41.7492 43.711 41.7485 43.6781 41.7485 43.645V25.4016ZM0 2.65441C0 1.38021 1.03294 0.347259 2.30715 0.347259C3.58135 0.347259 4.61429 1.3802 4.61429 2.65441V47.6202C4.61429 48.8944 3.58135 49.9274 2.30715 49.9274C1.03294 49.9274 0 48.8944 0 47.6202V2.65441ZM31.3941 23.8771C30.5751 22.896 29.1192 22.7687 28.1422 23.5926L8.91055 39.812C8.12149 40.4775 7.88622 41.56 8.25645 42.4687C8.337 42.6893 8.45259 42.9011 8.60423 43.0962L41.2759 85.1269C42.0594 86.1349 43.5086 86.3128 44.5127 85.5244C45.5168 84.7359 45.6956 83.2796 44.912 82.2716L14.5349 43.1927C13.992 42.4943 14.0973 41.4918 14.7735 40.9216L31.1082 27.1453C32.0852 26.3214 32.2132 24.8582 31.3941 23.8771Z" fill="white"/>
</svg>
