<svg width="186" height="32" viewBox="0 0 186 32" fill="none" xmlns="http://www.w3.org/2000/svg">
  <path fill-rule="evenodd" clip-rule="evenodd" d="M127.132 0C126.652 0 126.264 0.388742 126.264 0.86828V4.8018C126.264 5.28133 126.652 5.67008 127.132 5.67008C127.611 5.67008 128 5.28133 128 4.8018V0.86828C128 0.388742 127.611 0 127.132 0ZM127.132 8.21751C126.652 8.21751 126.264 8.60625 126.264 9.08579V19.7577C126.264 20.2372 126.652 20.6259 127.132 20.6259C127.611 20.6259 128 20.2372 128 19.7577V9.08579C128 8.60625 127.611 8.21751 127.132 8.21751ZM106.458 8.5462C103.874 8.5462 102.076 10.6417 102.076 12.0797H102.076L102.076 12.0852V19.7577C102.076 20.2372 102.465 20.6259 102.944 20.6259C103.424 20.6259 103.812 20.2372 103.812 19.7577V12.0852L103.812 12.0734C103.817 11.6547 104.319 10.2719 106.458 10.2719V10.2712L106.481 10.2718L106.495 10.2719H109.371C111.491 10.2796 111.992 11.6507 111.999 12.071V19.675C111.999 20.2002 112.425 20.6259 112.95 20.6259C113.475 20.6259 113.901 20.2002 113.901 19.675V12.0669C113.911 11.6406 114.419 10.2719 116.547 10.2719V10.2712C116.559 10.2717 116.571 10.2719 116.583 10.2719H119.459C121.587 10.2796 122.084 11.6601 122.088 12.0753L122.088 12.0852V19.7577C122.088 20.2372 122.476 20.626 122.956 20.626C123.436 20.626 123.824 20.2372 123.824 19.7577V12.0852L123.824 12.0797H123.824C123.824 10.7114 122.196 8.74775 119.812 8.56065C119.76 8.55119 119.708 8.54623 119.654 8.54623H119.459L119.442 8.5462L116.583 8.54623C116.571 8.54623 116.559 8.54649 116.547 8.54698V8.5462C114.988 8.5462 113.715 9.30902 112.95 10.23C112.247 9.38299 111.113 8.66976 109.723 8.56065C109.672 8.55119 109.619 8.54623 109.565 8.54623H109.371L109.353 8.5462L106.495 8.54623C106.482 8.54623 106.47 8.54649 106.458 8.54698V8.5462ZM88.0337 11.8783C88.2176 10.4588 89.9582 8.58728 92.4004 8.58728V8.58805L92.4219 8.58743L92.4365 8.58731L95.2949 8.58728L95.3124 8.58731H95.507C95.5609 8.58731 95.6137 8.59226 95.6649 8.60173C98.0492 8.78882 99.6776 10.7524 99.6776 12.1208H99.6776L99.6776 12.1263V13.1837C99.6776 13.6632 99.2888 14.0519 98.8093 14.0519C98.3297 14.0519 97.941 13.6632 97.941 13.1837V12.1263L97.9411 12.1165C97.9376 11.7013 97.4402 10.3207 95.3127 10.313H92.4365C92.4244 10.313 92.4123 10.3127 92.4004 10.3122V10.313C90.281 10.313 89.7686 11.6704 89.7545 12.1026V19.7576C89.7545 20.2372 89.3657 20.6259 88.8862 20.6259C88.4067 20.6259 88.0179 20.2372 88.0179 19.7576V12.1208H88.0176C88.0176 12.11 88.0177 12.0991 88.0179 12.0881V12.0441C88.0179 11.9874 88.0233 11.9319 88.0337 11.8783ZM73.7117 9.45556C73.7117 8.97602 74.1004 8.58728 74.58 8.58728C75.0595 8.58728 75.4483 8.97602 75.4483 9.45556V16.2241C75.4483 16.2276 75.4482 16.2311 75.4482 16.2346C75.448 16.2467 75.4477 16.2587 75.447 16.2707H75.4483C75.4483 18.2496 76.6543 18.8362 77.1608 18.912C77.2072 18.9043 77.2549 18.9002 77.3035 18.9002H81.7798C81.8209 18.9002 81.8614 18.9031 81.901 18.9087C82.4186 18.8205 83.5931 18.2235 83.5931 16.2706H83.5945C83.5936 16.2552 83.5932 16.2397 83.5932 16.2241V9.45556C83.5932 8.97602 83.982 8.58728 84.4615 8.58728C84.9411 8.58728 85.3298 8.97602 85.3298 9.45556V16.2241L85.3298 16.2319C85.3296 16.2449 85.3292 16.2578 85.3286 16.2706H85.3297C85.3297 18.8257 83.2421 20.6079 81.7957 20.6258L81.7798 20.6259H77.3035C77.2914 20.6259 77.2794 20.6257 77.2675 20.6252V20.6259C75.8204 20.6259 73.7117 18.8386 73.7117 16.2707H73.7129C73.7121 16.2552 73.7117 16.2397 73.7117 16.2241V9.45556ZM58 0.991549C58 0.512011 58.3887 0.123268 58.8683 0.123268C59.3478 0.123268 59.7366 0.512011 59.7366 0.991549V17.7033C59.7366 18.1828 59.3478 18.5716 58.8683 18.5716C58.3887 18.5716 58 18.1828 58 17.7033V0.991549ZM69.8149 8.87854C69.5067 8.5135 68.9594 8.46561 68.5924 8.77158L61.3521 14.8089C61.0521 15.059 60.9655 15.4681 61.1123 15.8086C61.1425 15.8869 61.1848 15.9621 61.2395 16.0316L73.5324 31.6672C73.828 32.0432 74.3741 32.1103 74.7519 31.8169C75.1298 31.5235 75.1965 30.9808 74.9008 30.6047L63.4725 16.0689C63.2674 15.8081 63.307 15.4314 63.5619 15.219L69.7086 10.0935C70.0756 9.78755 70.1232 9.24358 69.8149 8.87854Z" fill="white"/>
  </svg>
  