<svg width="186" height="33" viewBox="0 0 186 33" fill="none" xmlns="http://www.w3.org/2000/svg">
	<path d="M66.5209 25.2249V9.40693H60.8232V6.1862H76.0825V9.40693H70.3979V25.2249H66.5209Z" fill="white"/>
	<path d="M84.2868 20.8353L87.9543 21.4457C87.4827 22.779 86.7362 23.7963 85.7145 24.4976C84.7016 25.1902 83.4311 25.5365 81.903 25.5365C79.4842 25.5365 77.6941 24.753 76.5328 23.1859C75.6159 21.9305 75.1575 20.3461 75.1575 18.4328C75.1575 16.1471 75.76 14.3592 76.965 13.0692C78.17 11.7705 79.6938 11.1212 81.5362 11.1212C83.6057 11.1212 85.2386 11.8008 86.4349 13.1601C87.6312 14.5107 88.2031 16.5843 88.1508 19.3808H78.9297C78.9559 20.463 79.2528 21.3072 79.8204 21.9132C80.388 22.5106 81.0953 22.8093 81.9423 22.8093C82.5186 22.8093 83.0032 22.6535 83.3962 22.3418C83.7891 22.0301 84.086 21.5279 84.2868 20.8353ZM84.4964 17.1471C84.4702 16.0908 84.1951 15.29 83.6712 14.7445C83.1473 14.1904 82.5098 13.9134 81.7589 13.9134C80.9555 13.9134 80.2919 14.2034 79.768 14.7835C79.2441 15.3635 78.9865 16.1514 78.9952 17.1471H84.4964Z" fill="white"/>
	<path d="M93.5652 15.6406L90.2252 15.0432C90.6007 13.7099 91.2468 12.7229 92.1637 12.0822C93.0806 11.4415 94.4428 11.1212 96.2503 11.1212C97.8919 11.1212 99.1144 11.316 99.9177 11.7056C100.721 12.0865 101.284 12.5757 101.607 13.1731C101.939 13.7618 102.105 14.8484 102.105 16.4328L102.066 20.6925C102.066 21.9046 102.123 22.8007 102.236 23.3807C102.358 23.9521 102.581 24.5669 102.904 25.2249H99.2628C99.1668 24.9824 99.0489 24.6231 98.9092 24.147C98.8481 23.9305 98.8044 23.7876 98.7782 23.7184C98.1495 24.3244 97.4771 24.779 96.7611 25.082C96.0451 25.385 95.281 25.5365 94.4689 25.5365C93.0369 25.5365 91.9061 25.1513 91.0765 24.3807C90.2557 23.6102 89.8453 22.6362 89.8453 21.4587C89.8453 20.6795 90.0331 19.9868 90.4085 19.3808C90.784 18.7661 91.3079 18.2986 91.9803 17.9782C92.6614 17.6492 93.6394 17.3635 94.9143 17.1211C96.6345 16.8007 97.8264 16.5021 98.4901 16.225V15.8614C98.4901 15.1601 98.3154 14.6623 97.9661 14.3679C97.6169 14.0649 96.9576 13.9134 95.9883 13.9134C95.3334 13.9134 94.8226 14.0432 94.4559 14.303C94.0891 14.554 93.7922 14.9999 93.5652 15.6406ZM98.4901 18.6016C98.0185 18.7574 97.2719 18.9436 96.2503 19.16C95.2286 19.3765 94.5606 19.5886 94.2463 19.7964C93.766 20.134 93.5259 20.5626 93.5259 21.0821C93.5259 21.5929 93.718 22.0344 94.1022 22.4067C94.4864 22.779 94.9754 22.9652 95.5692 22.9652C96.2328 22.9652 96.8659 22.7487 97.4684 22.3158C97.9137 21.9868 98.2063 21.5842 98.346 21.108C98.442 20.7964 98.4901 20.2033 98.4901 19.3288V18.6016Z" fill="white"/>
	<path d="M105.123 11.4329H108.515V13.316C109.729 11.8528 111.174 11.1212 112.85 11.1212C113.741 11.1212 114.514 11.303 115.169 11.6666C115.824 12.0303 116.361 12.58 116.78 13.316C117.391 12.58 118.05 12.0303 118.758 11.6666C119.465 11.303 120.22 11.1212 121.024 11.1212C122.045 11.1212 122.91 11.329 123.617 11.7446C124.324 12.1515 124.853 12.7532 125.202 13.5497C125.455 14.1385 125.582 15.0908 125.582 16.4068V25.2249H121.901V17.3419C121.901 15.9739 121.775 15.0908 121.521 14.6926C121.181 14.1731 120.657 13.9134 119.95 13.9134C119.434 13.9134 118.95 14.0692 118.496 14.3809C118.042 14.6926 117.714 15.1514 117.513 15.7575C117.313 16.3549 117.212 17.3029 117.212 18.6016V25.2249H113.532V17.6665C113.532 16.3246 113.466 15.4588 113.335 15.0692C113.204 14.6796 112.999 14.3895 112.719 14.1991C112.449 14.0086 112.078 13.9134 111.606 13.9134C111.039 13.9134 110.528 14.0649 110.074 14.3679C109.62 14.6709 109.292 15.1081 109.091 15.6796C108.899 16.251 108.803 17.199 108.803 18.5237V25.2249H105.123V11.4329Z" fill="white"/>
	<path d="M128.887 25.2249V6.1862H134.69L138.174 19.173L141.619 6.1862H147.434V25.2249H143.832V10.2381L140.021 25.2249H136.288L132.489 10.2381V25.2249H128.887Z" fill="white"/>
	<path d="M153.661 15.6406L150.321 15.0432C150.696 13.7099 151.342 12.7229 152.259 12.0822C153.176 11.4415 154.538 11.1212 156.346 11.1212C157.988 11.1212 159.21 11.316 160.013 11.7056C160.817 12.0865 161.38 12.5757 161.703 13.1731C162.035 13.7618 162.201 14.8484 162.201 16.4328L162.161 20.6925C162.161 21.9046 162.218 22.8007 162.332 23.3807C162.454 23.9521 162.677 24.5669 163 25.2249H159.358C159.262 24.9824 159.145 24.6231 159.005 24.147C158.944 23.9305 158.9 23.7876 158.874 23.7184C158.245 24.3244 157.573 24.779 156.857 25.082C156.141 25.385 155.377 25.5365 154.565 25.5365C153.133 25.5365 152.002 25.1513 151.172 24.3807C150.351 23.6102 149.941 22.6362 149.941 21.4587C149.941 20.6795 150.129 19.9868 150.504 19.3808C150.88 18.7661 151.404 18.2986 152.076 17.9782C152.757 17.6492 153.735 17.3635 155.01 17.1211C156.73 16.8007 157.922 16.5021 158.586 16.225V15.8614C158.586 15.1601 158.411 14.6623 158.062 14.3679C157.712 14.0649 157.053 13.9134 156.084 13.9134C155.429 13.9134 154.918 14.0432 154.551 14.303C154.185 14.554 153.888 14.9999 153.661 15.6406ZM158.586 18.6016C158.114 18.7574 157.368 18.9436 156.346 19.16C155.324 19.3765 154.656 19.5886 154.342 19.7964C153.862 20.134 153.622 20.5626 153.622 21.0821C153.622 21.5929 153.814 22.0344 154.198 22.4067C154.582 22.779 155.071 22.9652 155.665 22.9652C156.328 22.9652 156.962 22.7487 157.564 22.3158C158.009 21.9868 158.302 21.5842 158.442 21.108C158.538 20.7964 158.586 20.2033 158.586 19.3288V18.6016Z" fill="white"/>
	<path d="M171.872 11.4329V14.3419H169.357V19.9003C169.357 21.0258 169.379 21.6838 169.423 21.8743C169.475 22.0561 169.584 22.2076 169.75 22.3288C169.925 22.45 170.134 22.5106 170.379 22.5106C170.719 22.5106 171.213 22.3937 171.859 22.16L172.173 24.9911C171.318 25.3547 170.348 25.5365 169.266 25.5365C168.602 25.5365 168.004 25.4283 167.471 25.2119C166.938 24.9868 166.546 24.7011 166.292 24.3547C166.048 23.9998 165.878 23.5236 165.781 22.9262C165.703 22.502 165.664 21.6448 165.664 20.3548V14.3419H163.974V11.4329H165.664V8.69266L169.357 6.56282V11.4329H171.872Z" fill="white"/>
	<path d="M182.133 20.8353L185.8 21.4457C185.329 22.779 184.582 23.7963 183.56 24.4976C182.548 25.1902 181.277 25.5365 179.749 25.5365C177.33 25.5365 175.54 24.753 174.379 23.1859C173.462 21.9305 173.003 20.3461 173.003 18.4328C173.003 16.1471 173.606 14.3592 174.811 13.0692C176.016 11.7705 177.54 11.1212 179.382 11.1212C181.452 11.1212 183.085 11.8008 184.281 13.1601C185.477 14.5107 186.049 16.5843 185.997 19.3808H176.776C176.802 20.463 177.099 21.3072 177.666 21.9132C178.234 22.5106 178.941 22.8093 179.788 22.8093C180.365 22.8093 180.849 22.6535 181.242 22.3418C181.635 22.0301 181.932 21.5279 182.133 20.8353ZM182.342 17.1471C182.316 16.0908 182.041 15.29 181.517 14.7445C180.993 14.1904 180.356 13.9134 179.605 13.9134C178.802 13.9134 178.138 14.2034 177.614 14.7835C177.09 15.3635 176.832 16.1514 176.841 17.1471H182.342Z" fill="white"/>
	<path d="M8.83728 23.1983C6.28918 26.0023 7.38122 28.7786 8.47326 30.139L1.61304 23.3926C-0.985447 20.8384 0.100987 17.1737 1.10902 16.4241L16.5935 1.0989C19.2256 -0.927805 22.2217 0.349296 23.3417 1.45982L46.1905 23.9756C47.5345 25.0306 50.4746 25.0584 52.2667 23.6147C45.6584 30.1945 43.3904 34.0536 38.4062 30.8331L23.3137 15.8966C21.3873 13.9865 18.4696 14.203 16.5935 15.5357L8.83728 23.1983Z" fill="#D9D9D9"/>
	<path d="M16.1453 30.4443C12.8132 33.2761 9.87312 31.7214 8.47307 30.1389C7.07302 28.5564 6.429 25.8634 8.80908 23.2259L16.5653 15.5356C19.1694 13.4533 21.5495 14.3695 23.2575 15.8409L27.0657 19.6167L16.1453 30.4443Z" fill="#595959"/>
	<path d="M27.0937 5.12442L34.3739 12.3983L36.1379 10.6493C37.034 10.1218 37.93 10.2328 38.602 10.7881L43.2222 15.3967C43.6982 15.8132 44.0622 16.9515 43.4182 17.8399L41.7101 19.5612L45.9663 23.7534C47.3943 25.2526 50.6424 24.9472 52.2665 23.6146L53.4425 22.2264C54.7305 20.1442 53.8905 17.2291 52.8265 16.2019L37.314 0.95997C35.0179 -0.789098 32.1338 0.293659 31.3498 1.0155L27.0937 5.12442Z" fill="#595959"/>
	</svg>
	