<svg width="186" height="32" viewBox="0 0 186 32" fill="none" xmlns="http://www.w3.org/2000/svg">
	<path d="M66.5209 25.2088V9.39089H60.8232V6.17017H76.0825V9.39089H70.3979V25.2088H66.5209Z" fill="black"/>
	<path d="M84.2868 20.8193L87.9543 21.4297C87.4828 22.763 86.7362 23.7803 85.7145 24.4816C84.7016 25.1742 83.4311 25.5205 81.903 25.5205C79.4842 25.5205 77.6941 24.737 76.5328 23.1699C75.6159 21.9145 75.1575 20.3301 75.1575 18.4167C75.1575 16.131 75.76 14.3432 76.965 13.0532C78.17 11.7545 79.6938 11.1052 81.5362 11.1052C83.6057 11.1052 85.2386 11.7848 86.4349 13.1441C87.6312 14.4947 88.2031 16.5683 88.1508 19.3648H78.9297C78.9559 20.447 79.2528 21.2911 79.8204 21.8972C80.388 22.4946 81.0953 22.7933 81.9423 22.7933C82.5186 22.7933 83.0032 22.6374 83.3962 22.3257C83.7891 22.0141 84.086 21.5119 84.2868 20.8193ZM84.4964 17.131C84.4702 16.0748 84.1951 15.2739 83.6712 14.7285C83.1473 14.1744 82.5098 13.8973 81.7589 13.8973C80.9555 13.8973 80.2919 14.1874 79.768 14.7674C79.2441 15.3475 78.9865 16.1354 78.9952 17.131H84.4964Z" fill="black"/>
	<path d="M93.5652 15.6246L90.2252 15.0272C90.6007 13.6939 91.2468 12.7069 92.1637 12.0662C93.0806 11.4255 94.4428 11.1052 96.2503 11.1052C97.8919 11.1052 99.1144 11.3 99.9177 11.6896C100.721 12.0705 101.284 12.5597 101.607 13.1571C101.939 13.7458 102.105 14.8324 102.105 16.4168L102.066 20.6764C102.066 21.8885 102.123 22.7846 102.236 23.3647C102.358 23.9361 102.581 24.5508 102.904 25.2088H99.2628C99.1668 24.9664 99.0489 24.6071 98.9092 24.1309C98.8481 23.9145 98.8044 23.7716 98.7782 23.7023C98.1495 24.3084 97.4771 24.7629 96.7611 25.066C96.0451 25.369 95.281 25.5205 94.4689 25.5205C93.0369 25.5205 91.9061 25.1352 91.0765 24.3647C90.2557 23.5941 89.8453 22.6201 89.8453 21.4426C89.8453 20.6634 90.0331 19.9708 90.4085 19.3648C90.784 18.75 91.3079 18.2825 91.9803 17.9622C92.6614 17.6332 93.6394 17.3475 94.9143 17.1051C96.6345 16.7847 97.8264 16.486 98.4901 16.209V15.8453C98.4901 15.144 98.3154 14.6462 97.9661 14.3519C97.6169 14.0488 96.9576 13.8973 95.9883 13.8973C95.3334 13.8973 94.8226 14.0272 94.4559 14.2869C94.0891 14.538 93.7922 14.9839 93.5652 15.6246ZM98.4901 18.5855C98.0185 18.7414 97.2719 18.9275 96.2503 19.144C95.2286 19.3604 94.5606 19.5725 94.2463 19.7803C93.766 20.118 93.5259 20.5466 93.5259 21.066C93.5259 21.5768 93.718 22.0184 94.1022 22.3907C94.4864 22.763 94.9754 22.9491 95.5692 22.9491C96.2328 22.9491 96.8659 22.7327 97.4684 22.2998C97.9137 21.9708 98.2063 21.5682 98.346 21.092C98.442 20.7803 98.4901 20.1873 98.4901 19.3128V18.5855Z" fill="black"/>
	<path d="M105.123 11.4168H108.515V13.2999C109.729 11.8367 111.174 11.1052 112.85 11.1052C113.741 11.1052 114.514 11.287 115.169 11.6506C115.824 12.0142 116.361 12.564 116.78 13.2999C117.391 12.564 118.05 12.0142 118.758 11.6506C119.465 11.287 120.22 11.1052 121.024 11.1052C122.045 11.1052 122.91 11.3129 123.617 11.7285C124.324 12.1354 124.853 12.7372 125.202 13.5337C125.455 14.1224 125.582 15.0748 125.582 16.3908V25.2088H121.901V17.3258C121.901 15.9579 121.775 15.0748 121.521 14.6765C121.181 14.157 120.657 13.8973 119.95 13.8973C119.434 13.8973 118.95 14.0532 118.496 14.3648C118.042 14.6765 117.714 15.1354 117.513 15.7414C117.313 16.3388 117.212 17.2869 117.212 18.5855V25.2088H113.532V17.6505C113.532 16.3085 113.466 15.4427 113.335 15.0531C113.204 14.6635 112.999 14.3735 112.719 14.183C112.449 13.9926 112.078 13.8973 111.606 13.8973C111.039 13.8973 110.528 14.0488 110.074 14.3519C109.62 14.6549 109.292 15.0921 109.091 15.6635C108.899 16.2349 108.803 17.183 108.803 18.5076V25.2088H105.123V11.4168Z" fill="black"/>
	<path d="M128.887 25.2088V6.17017H134.69L138.174 19.157L141.619 6.17017H147.434V25.2088H143.832V10.222L140.021 25.2088H136.288L132.489 10.222V25.2088H128.887Z" fill="black"/>
	<path d="M153.661 15.6246L150.321 15.0272C150.696 13.6939 151.342 12.7069 152.259 12.0662C153.176 11.4255 154.538 11.1052 156.346 11.1052C157.988 11.1052 159.21 11.3 160.013 11.6896C160.817 12.0705 161.38 12.5597 161.703 13.1571C162.035 13.7458 162.201 14.8324 162.201 16.4168L162.161 20.6764C162.161 21.8885 162.218 22.7846 162.332 23.3647C162.454 23.9361 162.677 24.5508 163 25.2088H159.358C159.262 24.9664 159.145 24.6071 159.005 24.1309C158.944 23.9145 158.9 23.7716 158.874 23.7023C158.245 24.3084 157.573 24.7629 156.857 25.066C156.141 25.369 155.377 25.5205 154.565 25.5205C153.133 25.5205 152.002 25.1352 151.172 24.3647C150.351 23.5941 149.941 22.6201 149.941 21.4426C149.941 20.6634 150.129 19.9708 150.504 19.3648C150.88 18.75 151.404 18.2825 152.076 17.9622C152.757 17.6332 153.735 17.3475 155.01 17.1051C156.73 16.7847 157.922 16.486 158.586 16.209V15.8453C158.586 15.144 158.411 14.6462 158.062 14.3519C157.712 14.0488 157.053 13.8973 156.084 13.8973C155.429 13.8973 154.918 14.0272 154.551 14.2869C154.185 14.538 153.888 14.9839 153.661 15.6246ZM158.586 18.5855C158.114 18.7414 157.368 18.9275 156.346 19.144C155.324 19.3604 154.656 19.5725 154.342 19.7803C153.862 20.118 153.622 20.5466 153.622 21.066C153.622 21.5768 153.814 22.0184 154.198 22.3907C154.582 22.763 155.071 22.9491 155.665 22.9491C156.328 22.9491 156.962 22.7327 157.564 22.2998C158.009 21.9708 158.302 21.5682 158.442 21.092C158.538 20.7803 158.586 20.1873 158.586 19.3128V18.5855Z" fill="black"/>
	<path d="M171.872 11.4168V14.3259H169.357V19.8842C169.357 21.0098 169.379 21.6678 169.423 21.8582C169.475 22.04 169.584 22.1916 169.75 22.3128C169.925 22.434 170.134 22.4946 170.379 22.4946C170.719 22.4946 171.213 22.3777 171.859 22.1439L172.173 24.9751C171.318 25.3387 170.348 25.5205 169.266 25.5205C168.602 25.5205 168.004 25.4123 167.471 25.1958C166.938 24.9707 166.546 24.685 166.292 24.3387C166.048 23.9837 165.878 23.5075 165.781 22.9102C165.703 22.4859 165.664 21.6288 165.664 20.3388V14.3259H163.974V11.4168H165.664V8.67662L169.357 6.54678V11.4168H171.872Z" fill="black"/>
	<path d="M182.133 20.8193L185.8 21.4297C185.329 22.763 184.582 23.7803 183.56 24.4816C182.548 25.1742 181.277 25.5205 179.749 25.5205C177.33 25.5205 175.54 24.737 174.379 23.1699C173.462 21.9145 173.003 20.3301 173.003 18.4167C173.003 16.131 173.606 14.3432 174.811 13.0532C176.016 11.7545 177.54 11.1052 179.382 11.1052C181.452 11.1052 183.085 11.7848 184.281 13.1441C185.477 14.4947 186.049 16.5683 185.997 19.3648H176.776C176.802 20.447 177.099 21.2911 177.666 21.8972C178.234 22.4946 178.941 22.7933 179.788 22.7933C180.365 22.7933 180.849 22.6374 181.242 22.3257C181.635 22.0141 181.932 21.5119 182.133 20.8193ZM182.342 17.131C182.316 16.0748 182.041 15.2739 181.517 14.7285C180.993 14.1744 180.356 13.8973 179.605 13.8973C178.802 13.8973 178.138 14.1874 177.614 14.7674C177.09 15.3475 176.832 16.1354 176.841 17.131H182.342Z" fill="black"/>
	<path d="M8.83728 23.1822C6.28918 25.9863 7.38122 28.7626 8.47326 30.1229L1.61304 23.3765C-0.985447 20.8223 0.100987 17.1576 1.10902 16.408L16.5935 1.08283C19.2256 -0.943872 22.2217 0.333229 23.3417 1.44375L46.1905 23.9596C47.5345 25.0146 50.4746 25.0423 52.2667 23.5986C45.6584 30.1785 43.3904 34.0375 38.4062 30.817L23.3137 15.8805C21.3873 13.9704 18.4696 14.187 16.5935 15.5196L8.83728 23.1822Z" fill="#595959"/>
	<path d="M16.1453 30.4283C12.8132 33.2601 9.87312 31.7054 8.47307 30.1229C7.07302 28.5404 6.429 25.8474 8.80908 23.2099L16.5653 15.5195C19.1694 13.4373 21.5495 14.3535 23.2575 15.8249L27.0657 19.6007L16.1453 30.4283Z" fill="black"/>
	<path d="M27.0937 5.10841L34.3739 12.3823L36.1379 10.6333C37.034 10.1058 37.93 10.2168 38.602 10.7721L43.2222 15.3807C43.6982 15.7972 44.0622 16.9355 43.4182 17.8239L41.7101 19.5452L45.9663 23.7374C47.3943 25.2366 50.6424 24.9312 52.2665 23.5986L53.4425 22.2104C54.7305 20.1282 53.8905 17.2131 52.8265 16.1859L37.314 0.943956C35.0179 -0.805112 32.1338 0.277645 31.3498 0.999482L27.0937 5.10841Z" fill="black"/>
	</svg>
	