<svg version="1.1" id="Layer_1" xmlns="http://www.w3.org/2000/svg" xmlns:xlink="http://www.w3.org/1999/xlink" x="0px" y="0px" viewBox="0 0 184 32" xml:space="preserve">
<path fill="#47704C" opacity="1.000000" stroke="none" 
	d="
M1841.000000,194.000000 
	C1841.000000,234.988968 1841.000000,275.977936 1841.000000,317.000000 
	C1366.971924,317.000000 892.943909,317.000000 418.666016,316.672729 
	C422.643768,315.044464 426.960327,313.975708 431.082001,312.397919 
	C442.282104,308.110382 449.117126,298.349030 457.472198,290.590729 
	C466.194946,282.490936 474.137878,273.554932 482.489777,265.051331 
	C492.314392,255.048187 502.212067,245.116791 512.238403,234.977417 
	C516.600464,229.224701 520.802124,223.648880 525.235352,217.815094 
	C527.278809,211.058624 529.090759,204.560120 531.053711,197.714081 
	C530.116577,190.580948 529.028442,183.795364 527.859192,176.660156 
	C524.547241,170.891022 521.316406,165.471481 517.969116,159.726135 
	C513.558777,155.628159 509.264832,151.856018 504.777313,147.821060 
	C503.038422,146.050079 501.493164,144.541916 499.777740,142.754486 
	C497.754517,140.623703 495.901520,138.772186 493.875061,136.674805 
	C492.834167,135.606522 491.966766,134.784134 490.906921,133.689392 
	C488.172241,130.930832 485.630005,128.444626 483.032562,125.612297 
	C481.792145,123.707619 480.767242,121.989326 479.397461,120.614662 
	C461.502716,102.656151 443.592529,84.712715 425.604248,66.847992 
	C421.167084,62.441315 416.436157,58.330425 411.670227,53.798786 
	C400.676178,42.964165 389.852173,32.414318 378.909973,21.556450 
	C374.844116,17.527462 370.896515,13.806495 366.677979,9.869922 
	C360.862518,7.185622 355.317993,4.716926 349.625946,2.240816 
	C349.478455,2.233401 349.183594,2.215961 348.895447,2.153756 
	C348.415100,2.050787 348.222839,2.010021 348.020721,1.727013 
	C348.010834,1.484769 348.000000,1.000000 348.000000,1.000000 
	C845.666687,1.000000 1343.333374,1.000000 1841.000000,1.000000 
	C1841.000000,57.112114 1841.000000,113.098114 1840.665283,169.324493 
	C1840.134155,167.921539 1840.109985,166.235550 1839.715332,164.641235 
	C1834.501709,143.578461 1822.878296,127.395172 1802.953735,118.106857 
	C1784.207153,109.367744 1764.862305,108.532341 1745.080444,114.833488 
	C1733.443848,118.540070 1723.408936,124.671791 1715.319824,133.639175 
	C1705.903564,144.077789 1699.965454,156.452835 1698.410889,170.489349 
	C1697.538208,178.368790 1696.664429,186.583893 1697.970947,194.277618 
	C1699.369751,202.514053 1702.147705,211.039978 1706.484375,218.115250 
	C1711.411621,226.153992 1717.805054,233.920151 1725.216187,239.672394 
	C1738.291138,249.820419 1753.779297,253.467072 1770.601196,253.234665 
	C1786.337891,253.017242 1800.735962,249.713272 1813.568237,240.681610 
	C1822.291626,234.541840 1829.568726,226.968155 1833.913818,216.654312 
	C1824.189697,213.796616 1814.785400,210.936676 1805.298950,208.381378 
	C1804.253174,208.099655 1802.414795,209.268387 1801.503052,210.272217 
	C1799.182617,212.827225 1797.670288,216.360321 1794.967529,218.283310 
	C1780.019653,228.918182 1762.435547,230.377914 1747.351074,217.088882 
	C1740.666870,211.200134 1736.731201,203.646713 1736.058105,194.000000 
	C1771.401733,194.000000 1806.200928,194.000000 1841.000000,194.000000 
M1299.000000,155.500107 
	C1299.000000,148.475677 1299.000000,141.451248 1299.000000,134.426834 
	C1301.217651,136.009811 1302.343140,137.785706 1303.307861,139.645142 
	C1309.841553,152.238586 1316.337402,164.851700 1322.852905,177.454636 
	C1328.448730,188.278931 1334.251343,199.002014 1339.596924,209.948364 
	C1344.454590,219.895737 1344.237671,220.001709 1355.155029,220.001694 
	C1356.987671,220.001694 1358.855469,219.772263 1360.645752,220.047363 
	C1364.845093,220.692612 1366.777710,218.625946 1368.518433,215.033371 
	C1373.330933,205.102112 1378.585083,195.385223 1383.649048,185.575516 
	C1390.146240,172.989319 1396.593506,160.377136 1403.133911,147.813522 
	C1405.677734,142.926971 1408.417480,138.142365 1411.067993,133.311340 
	C1411.434692,133.396912 1411.801270,133.482468 1412.167969,133.568039 
	C1412.167969,172.564743 1412.167969,211.561432 1412.167969,250.608276 
	C1424.712646,250.608276 1436.604858,250.608276 1448.681885,250.608276 
	C1448.681885,188.667755 1448.681885,127.119621 1448.681885,65.024246 
	C1436.087769,65.024246 1423.804565,64.945541 1411.526245,65.151360 
	C1410.355103,65.170990 1408.777710,66.737244 1408.123413,67.974098 
	C1397.337402,88.363159 1386.685181,108.822906 1375.968994,129.249069 
	C1369.241455,142.072845 1362.458008,154.867340 1355.470337,168.109222 
	C1354.715210,166.969940 1354.214966,166.341324 1353.847778,165.642822 
	C1345.931763,150.583221 1337.996704,135.533478 1330.135132,120.445419 
	C1321.051758,103.012146 1311.967773,85.578270 1303.065674,68.052399 
	C1301.775513,65.512367 1300.215210,64.931229 1297.649658,64.957291 
	C1287.154907,65.063911 1276.658569,64.987785 1266.162842,65.023056 
	C1264.895386,65.027313 1263.628906,65.299881 1262.360107,65.448311 
	C1262.360107,127.352730 1262.360107,188.902817 1262.360107,250.656586 
	C1274.613770,250.656586 1286.505127,250.656586 1299.000000,250.656586 
	C1299.000000,219.044403 1299.000000,187.772232 1299.000000,155.500107 
M1185.536377,144.880722 
	C1191.687744,146.009460 1195.053711,150.466141 1196.702271,155.766525 
	C1198.444092,161.366699 1199.770996,167.338913 1199.855225,173.169174 
	C1200.199341,196.992706 1199.999268,220.824112 1199.999512,244.652618 
	C1199.999512,246.588821 1199.999512,248.525024 1199.999512,250.655045 
	C1212.281860,250.655045 1223.841675,250.655045 1236.001587,250.655045 
	C1236.001587,248.363876 1236.001587,246.411453 1236.001587,244.459045 
	C1236.001587,220.963806 1235.926270,197.468216 1236.034058,173.973480 
	C1236.086548,162.524826 1236.170288,151.090881 1232.949707,139.970169 
	C1230.066895,130.015488 1225.387695,121.278038 1215.878174,115.990265 
	C1197.838257,105.959259 1170.029419,111.137497 1155.089478,125.578674 
	C1151.473389,129.074081 1148.410767,133.142120 1144.777222,137.309860 
	C1140.287231,125.367889 1133.271484,116.174767 1120.836426,113.131805 
	C1114.511475,111.584015 1107.779785,111.031036 1101.249023,111.132088 
	C1088.478882,111.329697 1077.093018,116.028008 1067.147095,123.968002 
	C1063.688721,126.728889 1060.685791,130.060120 1056.718018,133.854523 
	C1056.718018,126.734032 1056.718018,120.637611 1056.718018,114.335350 
	C1045.316040,114.335350 1034.424927,114.335350 1023.333496,114.335350 
	C1023.203491,115.441696 1023.027649,116.240883 1023.027344,117.040146 
	C1023.010437,160.198029 1023.037720,203.355988 1022.951782,246.513702 
	C1022.944519,250.147980 1024.523804,251.080460 1027.792114,251.036758 
	C1036.455566,250.920837 1045.129272,250.780426 1053.783325,251.087433 
	C1058.482910,251.254166 1060.160767,249.885712 1060.108398,244.937958 
	C1059.868164,222.278427 1060.685181,199.586334 1059.736938,176.964005 
	C1059.202881,164.224426 1071.406738,149.159134 1081.567627,145.218719 
	C1091.520508,141.358948 1101.051880,142.906906 1105.925415,150.864624 
	C1108.874390,155.679749 1110.667480,161.959641 1110.780273,167.625214 
	C1111.297607,193.609848 1111.111206,219.610275 1110.985718,245.604111 
	C1110.965698,249.741531 1112.286377,251.186310 1116.446655,251.073730 
	C1125.438232,250.830429 1134.441040,251.016953 1143.438965,250.979279 
	C1144.860718,250.973328 1146.281494,250.714844 1148.001587,250.543304 
	C1148.001587,248.075134 1148.001587,246.089996 1148.001587,244.104858 
	C1148.001709,222.442581 1148.364990,200.772049 1147.873901,179.120911 
	C1147.547363,164.719208 1154.515625,154.739182 1165.631836,147.398102 
	C1171.118530,143.774750 1177.753540,140.990021 1185.536377,144.880722 
M803.287170,225.973282 
	C778.825500,230.107651 762.212402,209.309906 762.532288,194.006927 
	C797.107361,194.006927 831.697571,194.006927 866.170898,194.006927 
	C872.669556,165.156479 856.931213,121.774170 813.206726,112.691086 
	C775.162354,104.787956 737.311401,122.073479 726.934204,159.525513 
	C714.479065,204.477127 736.266052,243.403259 783.119141,253.077301 
	C811.811157,259.001556 854.795471,239.117371 859.366455,216.421692 
	C850.205627,213.791412 841.058228,211.101028 831.858093,208.604797 
	C830.715149,208.294678 828.507507,208.594650 828.118164,209.321625 
	C822.932251,219.002686 814.223694,223.415756 803.287170,225.973282 
M1508.028809,113.547684 
	C1496.196045,115.779160 1485.482422,120.764465 1475.329956,127.037125 
	C1474.333374,127.652908 1473.093750,129.646439 1473.410889,130.344818 
	C1476.728516,137.650620 1480.340942,144.822571 1483.777344,151.838699 
	C1484.441406,151.838699 1484.640259,151.899567 1484.764282,151.828964 
	C1485.616821,151.343597 1486.468628,150.853821 1487.293579,150.323303 
	C1496.833496,144.188049 1506.891479,139.387360 1518.178955,137.282593 
	C1527.609131,135.524185 1536.573975,136.679291 1544.974854,141.048691 
	C1553.792114,145.634583 1557.624878,156.610931 1555.557251,169.156281 
	C1547.136230,167.770798 1538.765137,165.660889 1530.299927,165.168732 
	C1516.863037,164.387527 1503.742920,165.937332 1491.128418,171.766006 
	C1470.682129,181.213440 1461.561768,200.135712 1466.507080,220.386078 
	C1470.453857,236.548492 1481.604370,247.656937 1497.588867,251.397110 
	C1519.560059,256.538025 1540.020020,252.387680 1556.720093,235.788010 
	C1558.188721,234.328140 1559.695190,232.906326 1561.610718,231.054199 
	C1562.676025,240.642700 1565.552002,247.971085 1574.649658,251.286087 
	C1582.956787,254.312988 1591.127075,252.697006 1599.283447,250.857880 
	C1600.039551,250.687408 1600.897217,248.896530 1600.914062,247.845276 
	C1601.048340,239.515045 1601.090454,231.179199 1600.884033,222.851944 
	C1600.852661,221.589645 1599.585938,219.501495 1598.556885,219.268387 
	C1594.052856,218.248093 1592.987915,215.474915 1592.942627,211.280716 
	C1592.752441,193.664017 1592.712402,176.032150 1591.889526,158.439896 
	C1591.180420,143.280777 1584.600708,130.571091 1571.856445,122.127693 
	C1552.413452,109.246162 1530.831665,109.004036 1508.028809,113.547684 
M989.482239,133.110565 
	C984.204590,125.865410 977.498840,120.298775 969.181396,117.011009 
	C950.787292,109.740150 932.008728,109.126671 912.832825,113.851196 
	C900.674927,116.846657 889.369141,121.426353 878.746277,128.996735 
	C882.578247,136.783661 886.331665,144.411057 890.238159,152.349380 
	C892.426941,150.931915 894.028442,149.805618 895.711792,148.818756 
	C908.943542,141.061691 922.694031,135.037064 938.572876,137.032333 
	C957.294373,139.384766 964.826782,152.067734 961.281982,169.792297 
	C946.577271,165.232224 931.614807,163.790405 916.328064,165.982407 
	C904.783264,167.637833 894.281555,171.879059 885.381836,179.318466 
	C870.258789,191.960175 867.546875,215.367828 877.894287,232.220001 
	C884.413086,242.836685 893.762268,249.892075 905.155945,251.975327 
	C925.264221,255.652008 944.680664,252.979172 960.523315,238.003281 
	C962.775818,235.874054 965.050659,233.768524 967.819824,231.180435 
	C967.946777,232.955597 967.957886,233.784454 968.071716,234.598969 
	C969.080933,241.823486 975.767639,251.296448 981.284790,251.697662 
	C989.643860,252.305573 998.079773,251.856491 1006.961670,251.856491 
	C1006.961670,241.163727 1007.009766,231.540924 1006.882629,221.920456 
	C1006.870728,221.020416 1005.849365,219.453018 1005.131348,219.350174 
	C999.141052,218.492142 999.074158,213.972916 999.039429,209.626953 
	C998.936890,196.802765 999.125183,183.975739 998.968140,171.152649 
	C998.807190,158.011978 997.628174,145.056396 989.482239,133.110565 
M735.493103,98.000153 
	C740.242432,98.000153 744.991699,98.000153 749.591797,98.000153 
	C749.591797,86.519073 749.591797,75.949486 749.591797,65.384613 
	C697.977234,65.384613 646.771973,65.384613 595.416199,65.384613 
	C595.416199,76.331367 595.416199,86.890816 595.416199,98.044846 
	C615.324707,98.044846 634.885620,98.044846 655.144348,98.044846 
	C655.144348,149.309723 655.144348,199.982239 655.144348,250.594742 
	C667.423218,250.594742 678.987183,250.594742 691.099487,250.594742 
	C691.099487,199.643890 691.099487,149.095261 691.099487,98.000153 
	C705.932068,98.000153 720.213562,98.000153 735.493103,98.000153 
M1660.000610,206.217621 
	C1660.000610,184.632294 1660.000610,163.046967 1660.000610,140.910904 
	C1669.971069,140.910904 1679.215332,140.910904 1688.543701,140.910904 
	C1688.543701,131.657745 1688.543701,122.970238 1688.543701,113.735107 
	C1678.849731,113.735107 1669.603394,113.735107 1659.828613,113.735107 
	C1659.828613,98.610214 1659.828613,84.037430 1659.828613,69.315750 
	C1647.704346,69.315750 1636.137329,69.315750 1623.840820,69.315750 
	C1623.840820,84.313721 1623.840820,99.010567 1623.840820,114.245171 
	C1617.535400,114.245171 1611.957275,114.245171 1606.358398,114.245171 
	C1606.358398,123.380142 1606.358398,131.949387 1606.358398,141.071930 
	C1612.282959,141.071930 1617.865967,141.071930 1623.525146,141.071930 
	C1623.734131,142.226593 1623.947632,142.856049 1623.947754,143.485580 
	C1623.955322,169.303101 1624.014526,195.120926 1623.901123,220.937988 
	C1623.852783,231.952469 1629.596313,244.613892 1640.360229,249.123581 
	C1660.224731,257.446045 1678.843628,252.042252 1697.244141,244.185501 
	C1698.056396,243.838593 1698.937134,242.016068 1698.720093,241.147232 
	C1696.539795,232.421326 1694.136353,223.751221 1691.880859,215.381607 
	C1685.821411,216.745331 1680.441040,218.093964 1675.003662,219.148697 
	C1666.207642,220.854919 1660.683228,216.354904 1660.000610,206.217621 
z"/>
<path fill="#47704C" opacity="1.000000" stroke="none" 
	d="
M1.000000,184.000000 
	C1.000000,123.072975 1.000000,62.145950 1.000000,1.000000 
	C61.687386,1.000000 122.375031,1.000000 183.336487,1.336309 
	C179.070923,3.402784 174.531540,5.132949 169.662109,6.931113 
	C168.214798,7.662446 167.097580,8.325780 165.991882,8.998096 
	C166.003433,9.007077 165.996292,8.978878 165.700623,9.082254 
	C164.597198,9.803542 163.789429,10.421453 162.683258,11.183628 
	C150.912170,22.860546 139.439468,34.393196 127.678955,46.059967 
	C126.251259,47.426540 125.111382,48.658989 123.653427,49.968620 
	C122.854210,50.687668 122.373070,51.329529 121.598755,52.119968 
	C118.861229,54.808052 116.416862,57.347561 113.654129,59.965363 
	C112.853043,60.686626 112.370338,61.329594 111.607658,62.108822 
	C110.209221,63.459297 109.090759,64.673508 107.654022,65.965820 
	C106.853371,66.686447 106.370972,67.328964 105.608589,68.107666 
	C104.210007,69.457390 103.091408,70.670929 101.654495,71.963486 
	C100.853493,72.685539 100.370796,73.328568 99.675468,74.052567 
	C99.193962,74.312820 99.033127,74.561882 98.678452,75.035721 
	C89.566986,84.092247 80.757416,92.993774 71.649506,102.049408 
	C60.190624,113.458244 49.030067,124.712967 37.576538,136.117645 
	C28.838873,144.845444 20.394176,153.423309 11.691765,162.154037 
	C10.938684,163.164352 10.443318,164.021790 9.724598,164.990540 
	C9.387775,165.395996 9.274308,165.690155 9.094502,166.202728 
	C9.028163,166.421127 8.957572,166.872162 8.718255,166.990524 
	C8.297886,167.407471 8.116834,167.706055 7.966358,168.000061 
	C7.996934,167.995468 7.969226,167.940186 7.711907,168.100616 
	C7.275775,168.830322 7.096963,169.399628 6.614009,170.151306 
	C4.539912,174.889130 2.769956,179.444565 1.000000,184.000000 
z"/>
<path fill="#47704C" opacity="1.000000" stroke="none" 
	d="
M398.000000,317.000000 
	C310.979095,317.000000 223.958206,317.000000 136.731079,316.771240 
	C139.981506,314.685303 143.438171,312.828125 147.177643,310.777802 
	C150.312729,308.711182 153.165009,306.837738 156.346909,304.879272 
	C158.998062,302.730316 161.464249,300.805573 163.611847,298.574219 
	C168.498108,293.497345 173.227951,288.269958 178.318298,282.936890 
	C183.171631,278.530853 187.915375,274.472931 192.237228,270.006714 
	C197.695831,264.365753 202.810577,258.392029 208.290588,252.497345 
	C208.507523,252.432816 208.900879,252.208862 209.093292,252.171600 
	C209.554520,251.743835 209.823349,251.353333 210.273071,250.686646 
	C213.895233,247.408173 217.524612,244.592575 220.732773,241.359039 
	C225.322632,236.732910 229.604538,231.801254 234.296967,226.818146 
	C236.155884,225.211502 237.786545,223.838699 239.306458,222.352631 
	C244.588654,217.188034 249.832413,211.984131 255.235947,206.708984 
	C255.562378,206.481781 255.700668,206.306793 255.978088,205.807343 
	C257.803772,203.942993 259.447296,202.369095 261.235962,200.708984 
	C261.562378,200.481750 261.700653,200.306747 262.000244,199.780945 
	C263.399963,198.161163 264.595428,196.858215 265.927429,195.845032 
	C272.703094,202.755508 279.342224,209.376236 286.127930,216.304535 
	C288.573181,218.937149 290.852417,221.281830 293.173828,223.583984 
	C305.774933,236.080612 318.386444,248.566742 331.142151,261.352356 
	C340.191345,270.452881 349.092773,279.257538 358.141235,288.355652 
	C360.502380,290.766022 362.716522,292.882904 365.006592,295.319275 
	C365.721741,296.115417 366.360931,296.592133 367.145142,297.363037 
	C369.513336,299.768066 371.736511,301.878845 374.118042,304.252747 
	C374.846130,304.728210 375.415833,304.940613 376.140564,305.448456 
	C383.530396,309.495941 390.765198,313.247955 398.000000,317.000000 
z"/>
<path fill="#F18521" opacity="1.000000" stroke="none" 
	d="
M1841.000000,193.531372 
	C1806.200928,194.000000 1771.401733,194.000000 1736.058105,194.000000 
	C1736.731201,203.646713 1740.666870,211.200134 1747.351074,217.088882 
	C1762.435547,230.377914 1780.019653,228.918182 1794.967529,218.283310 
	C1797.670288,216.360321 1799.182617,212.827225 1801.503052,210.272217 
	C1802.414795,209.268387 1804.253174,208.099655 1805.298950,208.381378 
	C1814.785400,210.936676 1824.189697,213.796616 1833.913818,216.654312 
	C1829.568726,226.968155 1822.291626,234.541840 1813.568237,240.681610 
	C1800.735962,249.713272 1786.337891,253.017242 1770.601196,253.234665 
	C1753.779297,253.467072 1738.291138,249.820419 1725.216187,239.672394 
	C1717.805054,233.920151 1711.411621,226.153992 1706.484375,218.115250 
	C1702.147705,211.039978 1699.369751,202.514053 1697.970947,194.277618 
	C1696.664429,186.583893 1697.538208,178.368790 1698.410889,170.489349 
	C1699.965454,156.452835 1705.903564,144.077789 1715.319824,133.639175 
	C1723.408936,124.671791 1733.443848,118.540070 1745.080444,114.833488 
	C1764.862305,108.532341 1784.207153,109.367744 1802.953735,118.106857 
	C1822.878296,127.395172 1834.501709,143.578461 1839.715332,164.641235 
	C1840.109985,166.235550 1840.134155,167.921539 1840.665283,169.782440 
	C1841.000000,177.687576 1841.000000,185.375168 1841.000000,193.531372 
M1788.257690,143.055527 
	C1765.947266,130.344986 1738.331787,142.131546 1735.468262,169.723480 
	C1758.197388,169.723480 1780.908936,169.723480 1803.785400,169.723480 
	C1803.031738,158.332031 1797.661987,149.925247 1788.257690,143.055527 
z"/>
<path fill="#F4A21C" opacity="1.000000" stroke="none" 
	d="
M127.966774,45.925850 
	C139.439468,34.393196 150.912170,22.860546 162.990509,11.103899 
	C164.396210,10.246228 165.196259,9.612554 165.996292,8.978878 
	C165.996292,8.978878 166.003433,9.007077 166.324280,8.948548 
	C167.760818,8.214384 168.876495,7.538749 169.992172,6.863114 
	C174.531540,5.132949 179.070923,3.402784 183.805145,1.336309 
	C191.020950,1.000000 198.041901,1.000000 205.711609,1.334312 
	C210.574432,3.394794 214.788467,5.120965 219.225067,7.100833 
	C220.647369,7.902068 221.847092,8.449605 223.018005,9.006922 
	C222.989166,9.016702 222.989944,8.955806 223.149994,9.245214 
	C224.588959,10.370144 225.867874,11.205666 227.438934,12.184278 
	C240.149170,24.828203 252.567261,37.329037 265.069336,50.114246 
	C265.384430,50.938374 265.615509,51.478123 265.925537,52.010300 
	C266.004456,52.002728 266.160187,51.972656 266.178253,52.227066 
	C266.455017,52.691410 266.713684,52.901348 267.127869,53.401855 
	C274.034454,60.378082 280.785583,67.063751 287.302704,74.032951 
	C285.335602,76.317451 283.920685,78.776924 281.813690,80.239044 
	C273.228241,86.196754 264.659576,92.237602 255.663727,97.532585 
	C237.309433,108.335991 217.812378,111.246162 198.162811,101.879807 
	C186.833450,96.479439 175.881973,89.829376 165.840637,82.301010 
	C153.652115,73.162827 142.522842,62.594559 131.147415,52.408138 
	C129.485199,50.919659 128.997787,48.119225 127.966774,45.925850 
M204.961929,100.232872 
	C204.631699,100.293396 204.301483,100.353920 203.971252,100.414436 
	C204.004044,100.550362 204.036835,100.686279 204.069626,100.822189 
	C204.388641,100.717064 204.707672,100.611938 204.961929,100.232872 
z"/>
<path fill="#F07420" opacity="1.000000" stroke="none" 
	d="
M364.930664,294.999786 
	C362.716522,292.882904 360.502380,290.766022 358.292114,288.052429 
	C359.049774,286.362610 359.703827,285.182190 360.572144,284.189148 
	C377.633820,264.677002 394.668640,245.140854 411.838348,225.724030 
	C416.116333,220.886139 420.846100,216.447739 425.630981,211.963745 
	C426.666870,212.710358 427.439911,213.318909 428.376984,214.209167 
	C434.389832,220.371399 440.068634,226.433594 446.120148,232.097549 
	C462.599487,247.521484 487.889801,250.141922 508.397034,236.741974 
	C509.908783,236.112244 510.993439,235.633270 512.078064,235.154297 
	C502.212067,245.116791 492.314392,255.048187 482.489777,265.051331 
	C474.137878,273.554932 466.194946,282.490936 457.472198,290.590729 
	C449.117126,298.349030 442.282104,308.110382 431.082001,312.397919 
	C426.960327,313.975708 422.643768,315.044464 418.208069,316.672729 
	C411.645599,317.000000 405.291199,317.000000 398.468384,317.000000 
	C390.765198,313.247955 383.530396,309.495941 375.898285,305.284454 
	C374.987244,304.546539 374.473480,304.268097 373.959717,303.989655 
	C371.736511,301.878845 369.513336,299.768066 366.984344,297.113586 
	C366.095917,296.046539 365.513306,295.523163 364.930664,294.999786 
z"/>
<path fill="#F07321" opacity="1.000000" stroke="none" 
	d="
M9.947951,164.879227 
	C10.443318,164.021790 10.938684,163.164352 11.820793,162.500015 
	C12.789453,167.688538 16.359512,170.315933 20.044622,173.056610 
	C37.668232,186.163589 55.292355,199.273911 72.708832,212.653122 
	C78.482437,217.088348 83.636467,222.330154 88.926865,227.501419 
	C87.599152,229.395523 86.491508,231.052078 85.226303,232.577988 
	C71.065170,249.657120 68.776642,268.377197 77.528984,288.576050 
	C78.837631,291.596161 80.571030,294.432190 81.809746,297.157227 
	C77.016365,292.486481 72.548706,287.983795 68.020859,283.542480 
	C54.115486,269.902924 40.214218,256.258942 26.258821,242.670609 
	C15.410235,232.107376 4.759892,221.434082 1.000000,206.000000 
	C1.000000,198.979050 1.000000,191.958099 1.000000,184.468567 
	C2.769956,179.444565 4.539912,174.889130 6.763232,169.908356 
	C7.467472,168.968750 7.718348,168.454468 7.969225,167.940186 
	C7.969226,167.940186 7.996934,167.995468 8.141749,167.814987 
	C8.510234,167.380386 8.733903,167.126282 8.957572,166.872162 
	C8.957572,166.872162 9.028163,166.421127 9.232229,166.022583 
	C9.614916,165.381302 9.785467,165.133041 9.947951,164.879227 
z"/>
<path fill="#47704C" opacity="1.000000" stroke="none" 
	d="
M1.000000,206.468658 
	C4.759892,221.434082 15.410235,232.107376 26.258821,242.670609 
	C40.214218,256.258942 54.115486,269.902924 68.020859,283.542480 
	C72.548706,287.983795 77.016365,292.486481 81.950821,297.439270 
	C88.135063,304.467926 94.252769,310.510895 102.969337,313.027222 
	C102.977554,313.027710 102.982933,313.019806 103.038155,313.161438 
	C103.405510,313.529877 103.717644,313.756683 104.359772,314.119812 
	C107.126511,315.170715 109.563263,316.085358 112.000000,317.000000 
	C75.073051,317.000000 38.146095,317.000000 1.000000,317.000000 
	C1.000000,280.312744 1.000000,243.625031 1.000000,206.468658 
z"/>
<path fill="#546233" opacity="1.000000" stroke="none" 
	d="
M112.463188,317.000000 
	C109.563263,316.085358 107.126511,315.170715 104.190964,313.952698 
	C103.464378,313.429749 103.227974,313.219910 102.982933,313.019806 
	C102.982933,313.019806 102.977554,313.027710 102.974724,312.577881 
	C102.659187,308.147430 102.059090,304.165283 102.080391,300.186462 
	C102.219521,274.209106 102.524986,248.232635 102.657135,222.255264 
	C102.666718,220.370911 101.736473,218.481766 101.445740,216.313187 
	C106.475334,211.034225 111.302376,206.036926 116.418045,200.886658 
	C119.134369,198.486206 121.562073,196.238708 123.992813,194.447449 
	C124.330566,235.602463 124.665283,276.301239 125.000000,317.000000 
	C120.975456,317.000000 116.950912,317.000000 112.463188,317.000000 
z"/>
<path fill="#47704C" opacity="1.000000" stroke="none" 
	d="
M264.985352,49.829872 
	C252.567261,37.329037 240.149170,24.828203 227.264343,11.898034 
	C225.528397,10.631067 224.259171,9.793436 222.989944,8.955805 
	C222.989944,8.955806 222.989166,9.016702 222.830750,8.726645 
	C221.449066,7.906769 220.225800,7.376950 219.002518,6.847133 
	C214.788467,5.120965 210.574432,3.394794 206.180191,1.334312 
	C245.687561,1.000000 285.375122,1.000000 325.363098,1.176533 
	C325.446442,1.595890 325.214172,1.823171 324.606750,2.118348 
	C322.206787,2.854133 320.096008,3.342597 318.139404,4.187991 
	C310.763550,7.374899 303.308746,10.499048 298.729919,18.161516 
	C290.958649,25.900259 283.458008,33.442402 275.690125,41.179306 
	C272.252655,44.275372 269.082428,47.176685 265.679688,50.018990 
	C265.447174,49.959984 264.985352,49.829872 264.985352,49.829872 
z"/>
<path fill="#4F5D2E" opacity="1.000000" stroke="none" 
	d="
M125.458069,317.000000 
	C124.665283,276.301239 124.330566,235.602463 124.149445,194.152924 
	C129.868790,187.937561 135.434540,182.472992 140.954483,177.360748 
	C140.938705,191.017715 140.988037,204.322327 140.994827,217.626968 
	C141.009674,246.736542 140.985367,275.846130 141.018890,304.955658 
	C141.026123,311.243195 141.527328,311.671936 146.894836,310.970947 
	C143.438171,312.828125 139.981506,314.685303 136.262421,316.771240 
	C132.638718,317.000000 129.277420,317.000000 125.458069,317.000000 
z"/>
<path fill="#737E4C" opacity="1.000000" stroke="none" 
	d="
M324.966705,2.034909 
	C325.214172,1.823171 325.446442,1.595890 325.831726,1.176533 
	C333.020966,1.000000 340.041901,1.000000 347.531433,1.000000 
	C348.000000,1.000000 348.010834,1.484769 347.972534,2.007396 
	C349.350800,8.067224 350.655792,13.636021 352.212524,19.133535 
	C354.113647,25.847265 355.594177,32.776859 358.365723,39.129166 
	C366.640472,58.094540 374.300873,77.216515 377.370026,97.821915 
	C377.820068,100.843399 377.100586,104.039085 376.553833,107.090508 
	C371.813660,106.290436 367.441986,105.554016 363.029541,104.429474 
	C359.494324,83.910866 351.435303,65.368904 343.003601,46.975323 
	C338.094177,36.265400 332.678802,25.781647 327.986938,14.980736 
	C326.250183,10.982567 325.931915,6.368232 324.966705,2.034909 
z"/>
<path fill="#F18521" opacity="1.000000" stroke="none" 
	d="
M1299.000000,156.000092 
	C1299.000000,187.772232 1299.000000,219.044403 1299.000000,250.656586 
	C1286.505127,250.656586 1274.613770,250.656586 1262.360107,250.656586 
	C1262.360107,188.902817 1262.360107,127.352730 1262.360107,65.448311 
	C1263.628906,65.299881 1264.895386,65.027313 1266.162842,65.023056 
	C1276.658569,64.987785 1287.154907,65.063911 1297.649658,64.957291 
	C1300.215210,64.931229 1301.775513,65.512367 1303.065674,68.052399 
	C1311.967773,85.578270 1321.051758,103.012146 1330.135132,120.445419 
	C1337.996704,135.533478 1345.931763,150.583221 1353.847778,165.642822 
	C1354.214966,166.341324 1354.715210,166.969940 1355.470337,168.109222 
	C1362.458008,154.867340 1369.241455,142.072845 1375.968994,129.249069 
	C1386.685181,108.822906 1397.337402,88.363159 1408.123413,67.974098 
	C1408.777710,66.737244 1410.355103,65.170990 1411.526245,65.151360 
	C1423.804565,64.945541 1436.087769,65.024246 1448.681885,65.024246 
	C1448.681885,127.119621 1448.681885,188.667755 1448.681885,250.608276 
	C1436.604858,250.608276 1424.712646,250.608276 1412.167969,250.608276 
	C1412.167969,211.561432 1412.167969,172.564743 1412.167969,133.568039 
	C1411.801270,133.482468 1411.434692,133.396912 1411.067993,133.311340 
	C1408.417480,138.142365 1405.677734,142.926971 1403.133911,147.813522 
	C1396.593506,160.377136 1390.146240,172.989319 1383.649048,185.575516 
	C1378.585083,195.385223 1373.330933,205.102112 1368.518433,215.033371 
	C1366.777710,218.625946 1364.845093,220.692612 1360.645752,220.047363 
	C1358.855469,219.772263 1356.987671,220.001694 1355.155029,220.001694 
	C1344.237671,220.001709 1344.454590,219.895737 1339.596924,209.948364 
	C1334.251343,199.002014 1328.448730,188.278931 1322.852905,177.454636 
	C1316.337402,164.851700 1309.841553,152.238586 1303.307861,139.645142 
	C1302.343140,137.785706 1301.217651,136.009811 1299.000000,134.426834 
	C1299.000000,141.451248 1299.000000,148.475677 1299.000000,156.000092 
z"/>
<path fill="#F18521" opacity="1.000000" stroke="none" 
	d="
M1185.144409,144.820786 
	C1177.753540,140.990021 1171.118530,143.774750 1165.631836,147.398102 
	C1154.515625,154.739182 1147.547363,164.719208 1147.873901,179.120911 
	C1148.364990,200.772049 1148.001709,222.442581 1148.001587,244.104858 
	C1148.001587,246.089996 1148.001587,248.075134 1148.001587,250.543304 
	C1146.281494,250.714844 1144.860718,250.973328 1143.438965,250.979279 
	C1134.441040,251.016953 1125.438232,250.830429 1116.446655,251.073730 
	C1112.286377,251.186310 1110.965698,249.741531 1110.985718,245.604111 
	C1111.111206,219.610275 1111.297607,193.609848 1110.780273,167.625214 
	C1110.667480,161.959641 1108.874390,155.679749 1105.925415,150.864624 
	C1101.051880,142.906906 1091.520508,141.358948 1081.567627,145.218719 
	C1071.406738,149.159134 1059.202881,164.224426 1059.736938,176.964005 
	C1060.685181,199.586334 1059.868164,222.278427 1060.108398,244.937958 
	C1060.160767,249.885712 1058.482910,251.254166 1053.783325,251.087433 
	C1045.129272,250.780426 1036.455566,250.920837 1027.792114,251.036758 
	C1024.523804,251.080460 1022.944519,250.147980 1022.951782,246.513702 
	C1023.037720,203.355988 1023.010437,160.198029 1023.027344,117.040146 
	C1023.027649,116.240883 1023.203491,115.441696 1023.333496,114.335350 
	C1034.424927,114.335350 1045.316040,114.335350 1056.718018,114.335350 
	C1056.718018,120.637611 1056.718018,126.734032 1056.718018,133.854523 
	C1060.685791,130.060120 1063.688721,126.728889 1067.147095,123.968002 
	C1077.093018,116.028008 1088.478882,111.329697 1101.249023,111.132088 
	C1107.779785,111.031036 1114.511475,111.584015 1120.836426,113.131805 
	C1133.271484,116.174767 1140.287231,125.367889 1144.777222,137.309860 
	C1148.410767,133.142120 1151.473389,129.074081 1155.089478,125.578674 
	C1170.029419,111.137497 1197.838257,105.959259 1215.878174,115.990265 
	C1225.387695,121.278038 1230.066895,130.015488 1232.949707,139.970169 
	C1236.170288,151.090881 1236.086548,162.524826 1236.034058,173.973480 
	C1235.926270,197.468216 1236.001587,220.963806 1236.001587,244.459045 
	C1236.001587,246.411453 1236.001587,248.363876 1236.001587,250.655045 
	C1223.841675,250.655045 1212.281860,250.655045 1199.999512,250.655045 
	C1199.999512,248.525024 1199.999512,246.588821 1199.999512,244.652618 
	C1199.999268,220.824112 1200.199341,196.992706 1199.855225,173.169174 
	C1199.770996,167.338913 1198.444092,161.366699 1196.702271,155.766525 
	C1195.053711,150.466141 1191.687744,146.009460 1185.144409,144.820786 
z"/>
<path fill="#F18521" opacity="1.000000" stroke="none" 
	d="
M803.707886,225.932770 
	C814.223694,223.415756 822.932251,219.002686 828.118164,209.321625 
	C828.507507,208.594650 830.715149,208.294678 831.858093,208.604797 
	C841.058228,211.101028 850.205627,213.791412 859.366455,216.421692 
	C854.795471,239.117371 811.811157,259.001556 783.119141,253.077301 
	C736.266052,243.403259 714.479065,204.477127 726.934204,159.525513 
	C737.311401,122.073479 775.162354,104.787956 813.206726,112.691086 
	C856.931213,121.774170 872.669556,165.156479 866.170898,194.006927 
	C831.697571,194.006927 797.107361,194.006927 762.532288,194.006927 
	C762.212402,209.309906 778.825500,230.107651 803.707886,225.932770 
M781.500366,169.999298 
	C797.560608,169.999298 813.620789,169.999298 829.714294,169.999298 
	C828.727844,152.922150 815.328369,137.248459 793.773682,137.885590 
	C776.990051,138.381714 762.058167,153.060486 762.085938,169.999298 
	C768.222473,169.999298 774.361694,169.999298 781.500366,169.999298 
z"/>
<path fill="#F18521" opacity="1.000000" stroke="none" 
	d="
M1508.408325,113.363113 
	C1530.831665,109.004036 1552.413452,109.246162 1571.856445,122.127693 
	C1584.600708,130.571091 1591.180420,143.280777 1591.889526,158.439896 
	C1592.712402,176.032150 1592.752441,193.664017 1592.942627,211.280716 
	C1592.987915,215.474915 1594.052856,218.248093 1598.556885,219.268387 
	C1599.585938,219.501495 1600.852661,221.589645 1600.884033,222.851944 
	C1601.090454,231.179199 1601.048340,239.515045 1600.914062,247.845276 
	C1600.897217,248.896530 1600.039551,250.687408 1599.283447,250.857880 
	C1591.127075,252.697006 1582.956787,254.312988 1574.649658,251.286087 
	C1565.552002,247.971085 1562.676025,240.642700 1561.610718,231.054199 
	C1559.695190,232.906326 1558.188721,234.328140 1556.720093,235.788010 
	C1540.020020,252.387680 1519.560059,256.538025 1497.588867,251.397110 
	C1481.604370,247.656937 1470.453857,236.548492 1466.507080,220.386078 
	C1461.561768,200.135712 1470.682129,181.213440 1491.128418,171.766006 
	C1503.742920,165.937332 1516.863037,164.387527 1530.299927,165.168732 
	C1538.765137,165.660889 1547.136230,167.770798 1555.557251,169.156281 
	C1557.624878,156.610931 1553.792114,145.634583 1544.974854,141.048691 
	C1536.573975,136.679291 1527.609131,135.524185 1518.178955,137.282593 
	C1506.891479,139.387360 1496.833496,144.188049 1487.293579,150.323303 
	C1486.468628,150.853821 1485.616821,151.343597 1484.764282,151.828964 
	C1484.640259,151.899567 1484.441406,151.838699 1483.777344,151.838699 
	C1480.340942,144.822571 1476.728516,137.650620 1473.410889,130.344818 
	C1473.093750,129.646439 1474.333374,127.652908 1475.329956,127.037125 
	C1485.482422,120.764465 1496.196045,115.779160 1508.408325,113.363113 
M1504.458374,218.958008 
	C1509.497192,223.969513 1515.866821,227.151932 1522.650635,226.759949 
	C1534.529907,226.073547 1545.713745,222.571594 1553.562012,212.599686 
	C1554.721436,211.126816 1555.744385,209.155487 1555.878662,207.344299 
	C1556.210083,202.870880 1556.160278,198.345901 1555.882812,193.865219 
	C1555.801880,192.557739 1554.691528,190.524979 1553.623779,190.189102 
	C1542.323730,186.634567 1530.776123,184.024628 1518.976562,187.089874 
	C1502.780273,191.297241 1494.401489,204.323105 1504.458374,218.958008 
z"/>
<path fill="#F18521" opacity="1.000000" stroke="none" 
	d="
M989.674805,133.423004 
	C997.628174,145.056396 998.807190,158.011978 998.968140,171.152649 
	C999.125183,183.975739 998.936890,196.802765 999.039429,209.626953 
	C999.074158,213.972916 999.141052,218.492142 1005.131348,219.350174 
	C1005.849365,219.453018 1006.870728,221.020416 1006.882629,221.920456 
	C1007.009766,231.540924 1006.961670,241.163727 1006.961670,251.856491 
	C998.079773,251.856491 989.643860,252.305573 981.284790,251.697662 
	C975.767639,251.296448 969.080933,241.823486 968.071716,234.598969 
	C967.957886,233.784454 967.946777,232.955597 967.819824,231.180435 
	C965.050659,233.768524 962.775818,235.874054 960.523315,238.003281 
	C944.680664,252.979172 925.264221,255.652008 905.155945,251.975327 
	C893.762268,249.892075 884.413086,242.836685 877.894287,232.220001 
	C867.546875,215.367828 870.258789,191.960175 885.381836,179.318466 
	C894.281555,171.879059 904.783264,167.637833 916.328064,165.982407 
	C931.614807,163.790405 946.577271,165.232224 961.281982,169.792297 
	C964.826782,152.067734 957.294373,139.384766 938.572876,137.032333 
	C922.694031,135.037064 908.943542,141.061691 895.711792,148.818756 
	C894.028442,149.805618 892.426941,150.931915 890.238159,152.349380 
	C886.331665,144.411057 882.578247,136.783661 878.746277,128.996735 
	C889.369141,121.426353 900.674927,116.846657 912.832825,113.851196 
	C932.008728,109.126671 950.787292,109.740150 969.181396,117.011009 
	C977.498840,120.298775 984.204590,125.865410 989.674805,133.423004 
M914.542419,222.048248 
	C926.187622,230.747238 942.816833,225.611557 952.067749,219.380890 
	C958.010193,215.378510 962.822266,210.768066 962.268127,202.177795 
	C961.529358,190.724152 962.195374,190.229263 951.027588,187.655594 
	C939.671570,185.038559 928.166138,184.230637 917.301453,190.258102 
	C904.701721,197.248138 901.212830,211.115189 914.542419,222.048248 
z"/>
<path fill="#F18521" opacity="1.000000" stroke="none" 
	d="
M734.994080,98.000153 
	C720.213562,98.000153 705.932068,98.000153 691.099487,98.000153 
	C691.099487,149.095261 691.099487,199.643890 691.099487,250.594742 
	C678.987183,250.594742 667.423218,250.594742 655.144348,250.594742 
	C655.144348,199.982239 655.144348,149.309723 655.144348,98.044846 
	C634.885620,98.044846 615.324707,98.044846 595.416199,98.044846 
	C595.416199,86.890816 595.416199,76.331367 595.416199,65.384613 
	C646.771973,65.384613 697.977234,65.384613 749.591797,65.384613 
	C749.591797,75.949486 749.591797,86.519073 749.591797,98.000153 
	C744.991699,98.000153 740.242432,98.000153 734.994080,98.000153 
z"/>
<path fill="#F18521" opacity="1.000000" stroke="none" 
	d="
M1660.001343,206.679443 
	C1660.683228,216.354904 1666.207642,220.854919 1675.003662,219.148697 
	C1680.441040,218.093964 1685.821411,216.745331 1691.880859,215.381607 
	C1694.136353,223.751221 1696.539795,232.421326 1698.720093,241.147232 
	C1698.937134,242.016068 1698.056396,243.838593 1697.244141,244.185501 
	C1678.843628,252.042252 1660.224731,257.446045 1640.360229,249.123581 
	C1629.596313,244.613892 1623.852783,231.952469 1623.901123,220.937988 
	C1624.014526,195.120926 1623.955322,169.303101 1623.947754,143.485580 
	C1623.947632,142.856049 1623.734131,142.226593 1623.525146,141.071930 
	C1617.865967,141.071930 1612.282959,141.071930 1606.358398,141.071930 
	C1606.358398,131.949387 1606.358398,123.380142 1606.358398,114.245171 
	C1611.957275,114.245171 1617.535400,114.245171 1623.840820,114.245171 
	C1623.840820,99.010567 1623.840820,84.313721 1623.840820,69.315750 
	C1636.137329,69.315750 1647.704346,69.315750 1659.828613,69.315750 
	C1659.828613,84.037430 1659.828613,98.610214 1659.828613,113.735107 
	C1669.603394,113.735107 1678.849731,113.735107 1688.543701,113.735107 
	C1688.543701,122.970238 1688.543701,131.657745 1688.543701,140.910904 
	C1679.215332,140.910904 1669.971069,140.910904 1660.000610,140.910904 
	C1660.000610,163.046967 1660.000610,184.632294 1660.001343,206.679443 
z"/>
<path fill="#7F8955" opacity="1.000000" stroke="none" 
	d="
M483.087769,125.958420 
	C485.630005,128.444626 488.172241,130.930832 490.544922,133.821472 
	C485.008484,134.896530 479.232697,137.185455 474.347046,135.951111 
	C455.515594,131.193466 436.904480,125.515511 418.350464,119.733879 
	C411.836426,117.704025 406.645203,113.119110 403.721863,106.852188 
	C401.060333,101.146507 398.959656,95.137154 397.083466,89.114708 
	C390.175659,66.940697 387.867493,43.526787 379.028198,21.864470 
	C389.852173,32.414318 400.676178,42.964165 411.422760,54.061111 
	C410.919983,55.842701 410.023224,57.125580 410.144226,58.303963 
	C411.058441,67.207443 411.503510,76.236588 413.405426,84.940147 
	C415.457306,94.329987 419.915009,103.017815 427.995422,108.744209 
	C441.090485,118.024330 455.750366,123.879974 471.691284,126.111496 
	C475.410095,126.632080 479.284790,126.039070 483.087769,125.958420 
z"/>
<path fill="#7B8552" opacity="1.000000" stroke="none" 
	d="
M378.909973,21.556450 
	C387.867493,43.526787 390.175659,66.940697 397.083466,89.114708 
	C398.959656,95.137154 401.060333,101.146507 403.721863,106.852188 
	C406.645203,113.119110 411.836426,117.704025 418.350464,119.733879 
	C436.904480,125.515511 455.515594,131.193466 474.347046,135.951111 
	C479.232697,137.185455 485.008484,134.896530 490.737396,134.093842 
	C491.966766,134.784134 492.834167,135.606522 493.713654,136.989563 
	C490.336456,139.002014 486.989014,141.534317 483.548706,141.667572 
	C477.479675,141.902634 471.289337,141.043671 465.264374,139.988510 
	C448.577515,137.066071 431.936920,133.871933 415.308319,130.630020 
	C411.574585,129.902084 407.652252,129.120834 404.362701,127.349983 
	C397.717285,123.772652 391.294373,119.210838 390.190979,111.099319 
	C386.594269,84.658714 378.295044,59.616276 368.342529,35.046539 
	C364.997437,26.788412 365.594147,18.505365 366.948914,10.085522 
	C370.896515,13.806495 374.844116,17.527462 378.909973,21.556450 
z"/>
<path fill="#788350" opacity="1.000000" stroke="none" 
	d="
M366.677979,9.869919 
	C365.594147,18.505365 364.997437,26.788412 368.342529,35.046539 
	C378.295044,59.616276 386.594269,84.658714 390.190979,111.099319 
	C391.294373,119.210838 397.717285,123.772652 404.362701,127.349983 
	C407.652252,129.120834 411.574585,129.902084 415.308319,130.630020 
	C431.936920,133.871933 448.577515,137.066071 465.264374,139.988510 
	C471.289337,141.043671 477.479675,141.902634 483.548706,141.667572 
	C486.989014,141.534317 490.336456,139.002014 493.887146,137.235443 
	C495.901520,138.772186 497.754517,140.623703 499.521088,142.989868 
	C491.257507,147.380478 482.595337,148.695969 473.736633,147.367584 
	C461.084259,145.470306 448.514160,143.029510 435.895660,140.899490 
	C428.424469,139.638351 421.033997,139.630966 413.688385,142.834610 
	C408.386566,137.789352 403.400116,132.886978 398.374603,128.024948 
	C391.869781,121.731636 385.333832,115.470520 378.787079,109.039017 
	C378.478943,108.599274 378.195007,108.316063 377.727722,107.908066 
	C377.311005,107.599228 377.103638,107.389526 376.922241,107.154167 
	C377.100586,104.039085 377.820068,100.843399 377.370026,97.821915 
	C374.300873,77.216515 366.640472,58.094540 358.365723,39.129166 
	C355.594177,32.776859 354.113647,25.847265 352.212524,19.133535 
	C350.655792,13.636021 349.350800,8.067224 347.982422,2.249639 
	C348.222839,2.010021 348.415100,2.050787 348.966248,2.170704 
	C349.325195,2.249856 349.773438,2.248235 349.773438,2.248233 
	C355.317993,4.716926 360.862518,7.185622 366.677979,9.869919 
z"/>
<path fill="#868D57" opacity="1.000000" stroke="none" 
	d="
M483.032562,125.612305 
	C479.284790,126.039070 475.410095,126.632080 471.691284,126.111496 
	C455.750366,123.879974 441.090485,118.024330 427.995422,108.744209 
	C419.915009,103.017815 415.457306,94.329987 413.405426,84.940147 
	C411.503510,76.236588 411.058441,67.207443 410.144226,58.303963 
	C410.023224,57.125580 410.919983,55.842701 411.592834,54.345886 
	C416.436157,58.330425 421.167084,62.441315 425.604248,66.847992 
	C443.592529,84.712715 461.502716,102.656151 479.397461,120.614662 
	C480.767242,121.989326 481.792145,123.707619 483.032562,125.612305 
z"/>
<path fill="#435225" opacity="1.000000" stroke="none" 
	d="
M428.212952,213.927460 
	C427.439911,213.318909 426.666870,212.710358 425.458527,211.668945 
	C420.603516,206.773590 416.117554,202.373581 411.808167,197.806931 
	C410.656708,196.586700 410.045013,194.857071 409.423950,193.248413 
	C409.820465,193.058060 409.978577,192.980576 410.278870,192.790070 
	C410.603058,192.516418 410.769135,192.340714 410.981384,192.133957 
	C411.043549,192.118027 411.165527,192.077942 411.555450,192.131195 
	C422.851746,193.369980 433.732452,195.121277 444.670074,195.617035 
	C464.282043,196.506012 482.511963,202.728714 500.776154,208.944794 
	C508.941772,211.723877 516.933289,215.014542 525.003784,218.073044 
	C520.802124,223.648880 516.600464,229.224701 512.238403,234.977417 
	C510.993439,235.633270 509.908783,236.112244 508.325012,236.402130 
	C506.275055,234.356506 505.063904,231.969818 503.121063,230.725250 
	C483.123779,217.915085 462.761963,205.944641 437.479889,210.122498 
	C434.268982,210.653091 431.296112,212.623901 428.212952,213.927460 
z"/>
<path fill="#576435" opacity="1.000000" stroke="none" 
	d="
M527.940247,177.009766 
	C529.028442,183.795364 530.116577,190.580948 530.652100,197.641510 
	C525.976440,197.429291 521.832825,197.074249 517.733765,196.433701 
	C488.845520,191.919373 459.952484,187.430298 431.111786,182.627792 
	C428.876892,182.255661 427.030334,179.551773 425.094421,177.633499 
	C425.753815,176.225677 426.322021,175.116013 427.062134,173.766510 
	C427.490234,172.996277 427.746429,172.465912 428.016785,171.705566 
	C428.030945,171.475586 428.063019,171.015884 428.448669,170.923843 
	C430.810486,170.664291 432.832062,170.141220 434.755310,170.387177 
	C446.960297,171.947952 459.147736,173.648727 471.332825,175.361252 
	C485.347565,177.330902 499.333832,179.156876 513.556091,177.252304 
	C518.277039,176.620117 523.141418,177.060013 527.940247,177.009766 
z"/>
<path fill="#4C5A2D" opacity="1.000000" stroke="none" 
	d="
M425.003265,177.931671 
	C427.030334,179.551773 428.876892,182.255661 431.111786,182.627792 
	C459.952484,187.430298 488.845520,191.919373 517.733765,196.433701 
	C521.832825,197.074249 525.976440,197.429291 530.501099,197.989044 
	C529.090759,204.560120 527.278809,211.058624 525.235352,217.815094 
	C516.933289,215.014542 508.941772,211.723877 500.776154,208.944794 
	C482.511963,202.728714 464.282043,196.506012 444.670074,195.617035 
	C433.732452,195.121277 422.851746,193.369980 411.726868,191.852051 
	C416.006653,186.990311 420.504974,182.460983 425.003265,177.931671 
z"/>
<path fill="#626E3D" opacity="1.000000" stroke="none" 
	d="
M527.859192,176.660172 
	C523.141418,177.060013 518.277039,176.620117 513.556091,177.252304 
	C499.333832,179.156876 485.347565,177.330902 471.332825,175.361252 
	C459.147736,173.648727 446.960297,171.947952 434.755310,170.387177 
	C432.832062,170.141220 430.810486,170.664291 428.435730,170.473663 
	C427.971985,167.191788 427.906891,164.268082 428.222198,161.154938 
	C433.045624,160.809769 437.543701,160.137589 441.920441,160.603958 
	C451.514008,161.626221 461.038025,163.285110 470.605072,164.575714 
	C486.774200,166.756958 502.803986,167.277298 518.085510,160.051956 
	C521.316406,165.471481 524.547241,170.891022 527.859192,176.660172 
z"/>
<path fill="#6C7644" opacity="1.000000" stroke="none" 
	d="
M517.969116,159.726135 
	C502.803986,167.277298 486.774200,166.756958 470.605072,164.575714 
	C461.038025,163.285110 451.514008,161.626221 441.920441,160.603958 
	C437.543701,160.137589 433.045624,160.809769 427.996826,160.871780 
	C425.922424,157.874298 424.453827,154.970551 423.268799,151.843475 
	C427.180176,150.884644 430.905701,149.215851 434.417938,149.583710 
	C446.301575,150.828430 458.080170,153.052887 469.955444,154.407166 
	C480.203094,155.575821 490.518372,155.891129 500.587128,152.758148 
	C502.926727,152.030151 505.812073,151.800751 504.970947,148.083878 
	C509.264832,151.856018 513.558777,155.628159 517.969116,159.726135 
z"/>
<path fill="#737E4C" opacity="1.000000" stroke="none" 
	d="
M504.777313,147.821060 
	C505.812073,151.800751 502.926727,152.030151 500.587128,152.758148 
	C490.518372,155.891129 480.203094,155.575821 469.955444,154.407166 
	C458.080170,153.052887 446.301575,150.828430 434.417938,149.583710 
	C430.905701,149.215851 427.180176,150.884644 422.942200,151.743927 
	C419.550140,148.910278 416.768280,145.952850 413.986420,142.995422 
	C421.033997,139.630966 428.424469,139.638351 435.895660,140.899490 
	C448.514160,143.029510 461.084259,145.470306 473.736633,147.367584 
	C482.595337,148.695969 491.257507,147.380478 499.691284,143.269150 
	C501.493164,144.541916 503.038422,146.050079 504.777313,147.821060 
z"/>
<path fill="#737E4C" opacity="1.000000" stroke="none" 
	d="
M349.625946,2.240818 
	C349.773438,2.248235 349.325195,2.249856 349.254395,2.232909 
	C349.183594,2.215961 349.478455,2.233401 349.625946,2.240818 
z"/>
<path fill="#F3991D" opacity="1.000000" stroke="none" 
	d="
M127.678955,46.059967 
	C128.997787,48.119225 129.485199,50.919659 131.147415,52.408138 
	C142.522842,62.594559 153.652115,73.162827 165.840637,82.301010 
	C175.881973,89.829376 186.833450,96.479439 198.162811,101.879807 
	C217.812378,111.246162 237.309433,108.335991 255.663727,97.532585 
	C264.659576,92.237602 273.228241,86.196754 281.813690,80.239044 
	C283.920685,78.776924 285.335602,76.317451 287.573853,74.200073 
	C297.329834,83.152863 306.580719,92.222069 315.963959,101.560638 
	C318.993530,104.897797 321.890717,107.965591 324.656158,111.345078 
	C323.093048,113.859634 322.031891,116.458450 320.169250,118.200165 
	C309.263306,128.398071 298.288788,138.530121 287.101227,148.417114 
	C278.521454,155.999435 269.668793,163.280411 260.781616,170.503647 
	C257.344696,173.297073 253.478104,175.561859 249.512222,177.924103 
	C243.807358,172.528824 238.397522,167.276901 232.849411,161.719879 
	C225.595078,153.348557 216.757416,148.192139 205.962891,145.551926 
	C195.904007,143.096481 186.362747,143.632477 176.693726,147.309204 
	C174.239944,148.245285 172.123444,149.130981 169.881927,149.699097 
	C169.242157,148.534729 168.873795,147.540604 168.191376,146.862549 
	C149.267151,128.059235 130.284576,109.314583 111.378799,90.492783 
	C106.650513,85.785492 100.727173,81.975800 98.980331,74.880714 
	C99.033127,74.561882 99.193962,74.312820 99.929367,73.893936 
	C100.921532,73.064384 101.447166,72.474426 101.972801,71.884460 
	C103.091408,70.670929 104.210007,69.457390 105.862549,67.949516 
	C106.921753,67.066025 107.447021,66.476875 107.972290,65.887718 
	C109.090759,64.673508 110.209221,63.459297 111.861526,61.950096 
	C112.921074,61.065762 113.446785,60.476414 113.972496,59.887070 
	C116.416862,57.347561 118.861229,54.808052 121.852516,51.962463 
	C122.923462,51.068069 123.447487,50.479755 123.971512,49.891441 
	C125.111382,48.658989 126.251259,47.426540 127.678955,46.059967 
z"/>
<path fill="#F17A20" opacity="1.000000" stroke="none" 
	d="
M116.129417,201.039627 
	C111.302376,206.036926 106.475334,211.034225 101.182587,216.485046 
	C96.835838,220.360107 92.954796,223.781647 89.073761,227.203186 
	C83.636467,222.330154 78.482437,217.088348 72.708832,212.653122 
	C55.292355,199.273911 37.668232,186.163589 20.044622,173.056610 
	C16.359512,170.315933 12.789453,167.688538 12.078508,162.347137 
	C20.394176,153.423309 28.838873,144.845444 37.971092,136.106964 
	C40.110809,135.640961 41.752163,135.665146 42.976345,134.962509 
	C45.632095,133.438187 47.520126,134.081177 49.607868,136.068741 
	C68.601265,154.150711 87.706253,172.115723 106.654892,190.244247 
	C110.101288,193.541458 112.985619,197.426147 116.129417,201.039627 
z"/>
<path fill="#F2841F" opacity="1.000000" stroke="none" 
	d="
M116.418045,200.886658 
	C112.985619,197.426147 110.101288,193.541458 106.654892,190.244247 
	C87.706253,172.115723 68.601265,154.150711 49.607868,136.068741 
	C47.520126,134.081177 45.632095,133.438187 42.976345,134.962509 
	C41.752163,135.665146 40.110809,135.640961 38.264061,135.957016 
	C49.030067,124.712967 60.190624,113.458244 71.806343,102.364243 
	C80.994484,111.779747 89.618904,121.140343 98.499634,130.251099 
	C104.166458,136.064697 110.205086,141.516449 116.090652,147.116119 
	C125.341263,155.917343 134.603348,164.706512 143.684952,173.773102 
	C142.672974,175.033096 141.836624,176.020752 141.000275,177.008423 
	C135.434540,182.472992 129.868790,187.937561 124.146400,193.696671 
	C121.562073,196.238708 119.134369,198.486206 116.418045,200.886658 
z"/>
<path fill="#F28E1E" opacity="1.000000" stroke="none" 
	d="
M143.860580,173.500778 
	C134.603348,164.706512 125.341263,155.917343 116.090652,147.116119 
	C110.205086,141.516449 104.166458,136.064697 98.499634,130.251099 
	C89.618904,121.140343 80.994484,111.779747 72.104675,102.210136 
	C80.757416,92.993774 89.566986,84.092247 98.678452,75.035721 
	C100.727173,81.975800 106.650513,85.785492 111.378799,90.492783 
	C130.284576,109.314583 149.267151,128.059235 168.191376,146.862549 
	C168.873795,147.540604 169.242157,148.534729 169.667725,149.961487 
	C164.039627,155.346848 158.500687,160.152283 152.665039,165.106873 
	C149.532440,168.004288 146.696518,170.752533 143.860580,173.500778 
z"/>
<path fill="#F28E1E" opacity="1.000000" stroke="none" 
	d="
M169.662109,6.931113 
	C168.876495,7.538749 167.760818,8.214384 166.312744,8.939567 
	C167.097580,8.325780 168.214798,7.662446 169.662109,6.931113 
z"/>
<path fill="#F28E1E" opacity="1.000000" stroke="none" 
	d="
M101.654495,71.963486 
	C101.447166,72.474426 100.921532,73.064384 100.141998,73.812973 
	C100.370796,73.328568 100.853493,72.685539 101.654495,71.963486 
z"/>
<path fill="#F28E1E" opacity="1.000000" stroke="none" 
	d="
M107.654022,65.965820 
	C107.447021,66.476875 106.921753,67.066025 106.142532,67.813324 
	C106.370972,67.328964 106.853371,66.686447 107.654022,65.965820 
z"/>
<path fill="#F28E1E" opacity="1.000000" stroke="none" 
	d="
M113.654129,59.965363 
	C113.446785,60.476414 112.921074,61.065762 112.141495,61.813835 
	C112.370338,61.329594 112.853043,60.686626 113.654129,59.965363 
z"/>
<path fill="#F28E1E" opacity="1.000000" stroke="none" 
	d="
M165.700623,9.082255 
	C165.196259,9.612554 164.396210,10.246228 163.288910,10.959633 
	C163.789429,10.421453 164.597198,9.803542 165.700623,9.082255 
z"/>
<path fill="#F28E1E" opacity="1.000000" stroke="none" 
	d="
M123.653427,49.968620 
	C123.447487,50.479755 122.923462,51.068069 122.145676,51.813889 
	C122.373070,51.329529 122.854210,50.687668 123.653427,49.968620 
z"/>
<path fill="#F17A20" opacity="1.000000" stroke="none" 
	d="
M7.711906,168.100616 
	C7.718348,168.454468 7.467472,168.968750 7.067373,169.725983 
	C7.096963,169.399628 7.275775,168.830322 7.711906,168.100616 
z"/>
<path fill="#F17A20" opacity="1.000000" stroke="none" 
	d="
M9.724596,164.990540 
	C9.785467,165.133041 9.614916,165.381302 9.298569,165.804169 
	C9.274308,165.690155 9.387775,165.395996 9.724596,164.990540 
z"/>
<path fill="#F17A20" opacity="1.000000" stroke="none" 
	d="
M8.718255,166.990524 
	C8.733903,167.126282 8.510234,167.380386 8.111174,167.819580 
	C8.116834,167.706055 8.297886,167.407471 8.718255,166.990524 
z"/>
<path fill="#F28D1E" opacity="1.000000" stroke="none" 
	d="
M249.807251,178.067474 
	C253.478104,175.561859 257.344696,173.297073 260.781616,170.503647 
	C269.668793,163.280411 278.521454,155.999435 287.101227,148.417114 
	C298.288788,138.530121 309.263306,128.398071 320.169250,118.200165 
	C322.031891,116.458450 323.093048,113.859634 324.948914,111.519775 
	C329.593445,115.312096 333.813507,119.241409 338.208527,123.312134 
	C338.620026,123.638206 338.865570,123.809998 339.413483,124.119064 
	C346.482819,131.139328 353.258850,138.009460 360.052368,145.258087 
	C360.889160,149.613770 359.484283,152.530441 356.459351,155.287109 
	C349.837860,161.321396 343.526794,167.697540 337.118866,173.964661 
	C325.357666,185.467346 313.723328,197.102615 301.814148,208.449661 
	C297.467316,212.591354 293.195892,217.570633 285.981323,215.996979 
	C279.342224,209.376236 272.703094,202.755508 265.900116,195.478180 
	C260.426605,189.236877 255.116928,183.652161 249.807251,178.067474 
z"/>
<path fill="#F1841F" opacity="1.000000" stroke="none" 
	d="
M286.127930,216.304535 
	C293.195892,217.570633 297.467316,212.591354 301.814148,208.449661 
	C313.723328,197.102615 325.357666,185.467346 337.118866,173.964661 
	C343.526794,167.697540 349.837860,161.321396 356.459351,155.287109 
	C359.484283,152.530441 360.889160,149.613770 360.351807,145.414062 
	C374.119537,158.789993 387.605347,172.388474 400.736267,185.920364 
	C390.981659,182.071198 391.053680,182.139481 385.243439,188.268021 
	C377.011566,196.950867 368.671844,205.531677 360.357941,214.136520 
	C350.084045,224.769928 339.828308,235.421356 329.480957,245.982925 
	C326.207489,249.324142 324.967407,252.386047 328.898193,256.189026 
	C330.069885,257.322632 330.321289,259.407471 330.994385,261.056488 
	C318.386444,248.566742 305.774933,236.080612 293.173828,223.583984 
	C290.852417,221.281830 288.573181,218.937149 286.127930,216.304535 
z"/>
<path fill="#F17C20" opacity="1.000000" stroke="none" 
	d="
M331.142151,261.352356 
	C330.321289,259.407471 330.069885,257.322632 328.898193,256.189026 
	C324.967407,252.386047 326.207489,249.324142 329.480957,245.982925 
	C339.828308,235.421356 350.084045,224.769928 360.357941,214.136520 
	C368.671844,205.531677 377.011566,196.950867 385.243439,188.268021 
	C391.053680,182.139481 390.981659,182.071198 401.025024,186.075806 
	C404.174255,188.652298 406.679901,191.006790 409.185486,193.361282 
	C410.045013,194.857071 410.656708,196.586700 411.808167,197.806931 
	C416.117554,202.373581 420.603516,206.773590 425.195740,211.530884 
	C420.846100,216.447739 416.116333,220.886139 411.838348,225.724030 
	C394.668640,245.140854 377.633820,264.677002 360.572144,284.189148 
	C359.703827,285.182190 359.049774,286.362610 358.145081,287.758972 
	C349.092773,279.257538 340.191345,270.452881 331.142151,261.352356 
z"/>
<path fill="#3C4C22" opacity="1.000000" stroke="none" 
	d="
M177.031036,147.258804 
	C186.362747,143.632477 195.904007,143.096481 205.830170,145.875702 
	C206.604340,154.098053 207.083191,161.773148 207.794174,169.426682 
	C208.211807,173.922302 209.537491,178.386948 209.509705,182.859665 
	C209.447678,192.850586 208.856766,202.841064 208.345306,212.824753 
	C208.171799,216.211594 207.228027,219.581207 207.262619,222.952271 
	C207.363968,232.823883 207.780594,242.692245 208.073669,252.561890 
	C202.810577,258.392029 197.695831,264.365753 192.237228,270.006714 
	C187.915375,274.472931 183.171631,278.530853 178.258377,282.529572 
	C177.434479,276.834442 176.558304,271.379272 176.565887,265.925323 
	C176.620895,226.369675 176.854156,186.814285 177.031036,147.258804 
z"/>
<path fill="#455326" opacity="1.000000" stroke="none" 
	d="
M176.693726,147.309204 
	C176.854156,186.814285 176.620895,226.369675 176.565887,265.925323 
	C176.558304,271.379272 177.434479,276.834442 177.961441,282.696411 
	C173.227951,288.269958 168.498108,293.497345 163.611847,298.574219 
	C161.464249,300.805573 158.998062,302.730316 156.341125,304.638031 
	C156.005722,304.481781 155.998520,303.998749 156.016266,303.987152 
	C156.033997,303.975555 156.001419,304.001801 155.758652,303.710266 
	C155.011063,300.528198 154.073761,297.638733 154.066666,294.746979 
	C153.969360,255.116547 154.027405,215.485764 153.954758,175.855225 
	C153.948090,172.222137 153.307800,168.590195 152.961731,164.957718 
	C158.500687,160.152283 164.039627,155.346848 169.792770,150.279037 
	C172.123444,149.130981 174.239944,148.245285 176.693726,147.309204 
z"/>
<path fill="#334520" opacity="1.000000" stroke="none" 
	d="
M208.290604,252.497345 
	C207.780594,242.692245 207.363968,232.823883 207.262619,222.952271 
	C207.228027,219.581207 208.171799,216.211594 208.345306,212.824753 
	C208.856766,202.841064 209.447678,192.850586 209.509705,182.859665 
	C209.537491,178.386948 208.211807,173.922302 207.794174,169.426682 
	C207.083191,161.773148 206.604340,154.098053 206.160706,146.108215 
	C216.757416,148.192139 225.595078,153.348557 232.688339,162.065033 
	C232.114136,165.452698 231.195465,168.175797 231.088211,170.930496 
	C230.869278,176.554596 231.120270,182.195724 231.117859,187.829803 
	C231.113113,198.920151 230.921753,210.013809 231.173737,221.097778 
	C231.218933,223.085724 233.024918,225.033646 234.017929,227.000046 
	C229.604538,231.801254 225.322632,236.732910 220.732773,241.359039 
	C217.524612,244.592575 213.895233,247.408173 210.073715,250.892624 
	C209.429260,251.652832 209.165070,251.930847 208.900879,252.208862 
	C208.900879,252.208862 208.507523,252.432816 208.290604,252.497345 
z"/>
<path fill="#4A582B" opacity="1.000000" stroke="none" 
	d="
M152.665039,165.106873 
	C153.307800,168.590195 153.948090,172.222137 153.954758,175.855225 
	C154.027405,215.485764 153.969360,255.116547 154.066666,294.746979 
	C154.073761,297.638733 155.011063,300.528198 155.757935,303.709351 
	C156.000000,304.000000 155.998520,303.998749 155.998520,303.998749 
	C155.998520,303.998749 156.005722,304.481781 156.011505,304.723022 
	C153.165009,306.837738 150.312729,308.711182 147.177643,310.777802 
	C141.527328,311.671936 141.026123,311.243195 141.018890,304.955658 
	C140.985367,275.846130 141.009674,246.736542 140.994827,217.626968 
	C140.988037,204.322327 140.938705,191.017715 140.954468,177.360748 
	C141.836624,176.020752 142.672974,175.033096 143.684952,173.773102 
	C146.696518,170.752533 149.532440,168.004288 152.665039,165.106873 
z"/>
<path fill="#2D401F" opacity="1.000000" stroke="none" 
	d="
M234.296967,226.818146 
	C233.024918,225.033646 231.218933,223.085724 231.173737,221.097778 
	C230.921753,210.013809 231.113113,198.920151 231.117859,187.829803 
	C231.120270,182.195724 230.869278,176.554596 231.088211,170.930496 
	C231.195465,168.175797 232.114136,165.452698 232.826630,162.370132 
	C238.397522,167.276901 243.807358,172.528824 249.512222,177.924103 
	C255.116928,183.652161 260.426605,189.236877 265.763550,195.188431 
	C264.595428,196.858215 263.399963,198.161163 261.879547,199.892609 
	C261.394775,200.474030 261.240204,200.632050 261.090820,200.795197 
	C259.447296,202.369095 257.803772,203.942993 255.857391,205.919022 
	C255.394760,206.474075 255.240173,206.632080 255.090790,206.795197 
	C249.832413,211.984131 244.588654,217.188034 239.306458,222.352631 
	C237.786545,223.838699 236.155884,225.211502 234.296967,226.818146 
z"/>
<path fill="#F1841F" opacity="1.000000" stroke="none" 
	d="
M365.006592,295.319275 
	C365.513306,295.523163 366.095917,296.046539 366.839355,296.819366 
	C366.360931,296.592133 365.721741,296.115417 365.006592,295.319275 
z"/>
<path fill="#F1841F" opacity="1.000000" stroke="none" 
	d="
M374.118042,304.252747 
	C374.473480,304.268097 374.987244,304.546539 375.743286,304.989014 
	C375.415833,304.940613 374.846130,304.728210 374.118042,304.252747 
z"/>
<path fill="#3C4C22" opacity="1.000000" stroke="none" 
	d="
M209.093292,252.171600 
	C209.165070,251.930847 209.429260,251.652832 209.892822,251.168823 
	C209.823349,251.353333 209.554520,251.743835 209.093292,252.171600 
z"/>
<path fill="#334520" opacity="1.000000" stroke="none" 
	d="
M255.235947,206.708984 
	C255.240173,206.632080 255.394760,206.474075 255.675262,206.209473 
	C255.700668,206.306793 255.562378,206.481781 255.235947,206.708984 
z"/>
<path fill="#334520" opacity="1.000000" stroke="none" 
	d="
M261.235962,200.708984 
	C261.240204,200.632050 261.394775,200.474030 261.675232,200.209442 
	C261.700653,200.306747 261.562378,200.481750 261.235962,200.708984 
z"/>
<path fill="#47704C" opacity="1.000000" stroke="none" 
	d="
M1788.573975,143.250626 
	C1797.661987,149.925247 1803.031738,158.332031 1803.785400,169.723480 
	C1780.908936,169.723480 1758.197388,169.723480 1735.468262,169.723480 
	C1738.331787,142.131546 1765.947266,130.344986 1788.573975,143.250626 
z"/>
<path fill="#5E6A3A" opacity="1.000000" stroke="none" 
	d="
M315.831573,101.291267 
	C306.580719,92.222069 297.329834,83.152863 287.807861,73.916534 
	C280.785583,67.063751 274.034454,60.378082 267.000885,53.206116 
	C266.541565,52.463863 266.355499,52.214809 266.160187,51.972656 
	C266.160187,51.972656 266.004456,52.002728 265.978516,51.689575 
	C265.939117,50.943615 265.925690,50.510807 265.912231,50.077995 
	C269.082428,47.176685 272.252655,44.275372 276.108124,41.189171 
	C280.528870,42.503769 284.743195,43.352528 287.882355,45.662415 
	C292.096069,48.763008 295.866943,52.685009 299.134796,56.804230 
	C305.284760,64.556366 311.665863,72.285271 316.558014,80.822029 
	C320.164062,87.114578 321.339874,94.665604 315.831573,101.291267 
z"/>
<path fill="#F3991D" opacity="1.000000" stroke="none" 
	d="
M204.994324,100.369843 
	C204.707672,100.611938 204.388641,100.717064 204.069626,100.822197 
	C204.036835,100.686279 204.004044,100.550362 203.971252,100.414444 
	C204.301483,100.353920 204.631699,100.293396 204.994324,100.369843 
z"/>
<path fill="#F18521" opacity="1.000000" stroke="none" 
	d="
M223.149994,9.245214 
	C224.259171,9.793436 225.528397,10.631067 226.972198,11.754943 
	C225.867874,11.205666 224.588959,10.370144 223.149994,9.245214 
z"/>
<path fill="#F18521" opacity="1.000000" stroke="none" 
	d="
M219.225067,7.100831 
	C220.225800,7.376950 221.449066,7.906769 222.859589,8.716865 
	C221.847092,8.449605 220.647369,7.902068 219.225067,7.100831 
z"/>
<path fill="#F18521" opacity="1.000000" stroke="none" 
	d="
M265.679688,50.018990 
	C265.925690,50.510807 265.939117,50.943615 265.899597,51.697151 
	C265.615509,51.478123 265.384430,50.938374 265.069336,50.114250 
	C264.985352,49.829872 265.447174,49.959984 265.679688,50.018990 
z"/>
<path fill="#626E3E" opacity="1.000000" stroke="none" 
	d="
M266.178253,52.227066 
	C266.355499,52.214809 266.541565,52.463863 266.845398,52.915550 
	C266.713684,52.901348 266.455017,52.691410 266.178253,52.227066 
z"/>
<path fill="#3B4A20" opacity="1.000000" stroke="none" 
	d="
M428.376984,214.209167 
	C431.296112,212.623901 434.268982,210.653091 437.479889,210.122498 
	C462.761963,205.944641 483.123779,217.915085 503.121063,230.725250 
	C505.063904,231.969818 506.275055,234.356506 507.897888,236.552887 
	C487.889801,250.141922 462.599487,247.521484 446.120148,232.097549 
	C440.068634,226.433594 434.389832,220.371399 428.376984,214.209167 
z"/>
<path fill="#5D6838" opacity="1.000000" stroke="none" 
	d="
M88.926865,227.501419 
	C92.954796,223.781647 96.835838,220.360107 100.980026,216.766724 
	C101.736473,218.481766 102.666718,220.370911 102.657135,222.255264 
	C102.524986,248.232635 102.219521,274.209106 102.080391,300.186462 
	C102.059090,304.165283 102.659187,308.147430 102.966507,312.577393 
	C94.252769,310.510895 88.135063,304.467926 82.249023,297.635437 
	C80.571030,294.432190 78.837631,291.596161 77.528984,288.576050 
	C68.776642,268.377197 71.065170,249.657120 85.226303,232.577988 
	C86.491508,231.052078 87.599152,229.395523 88.926865,227.501419 
z"/>
<path fill="#5D6838" opacity="1.000000" stroke="none" 
	d="
M103.038155,313.161438 
	C103.227974,313.219910 103.464378,313.429749 103.860962,313.816437 
	C103.717644,313.756683 103.405510,313.529877 103.038155,313.161438 
z"/>
<path fill="#6B7644" opacity="1.000000" stroke="none" 
	d="
M324.606750,2.118348 
	C325.931915,6.368232 326.250183,10.982567 327.986938,14.980736 
	C332.678802,25.781647 338.094177,36.265400 343.003601,46.975323 
	C351.435303,65.368904 359.494324,83.910866 362.642883,104.518295 
	C357.541473,107.655373 352.785980,110.315491 347.684021,112.893303 
	C345.585693,110.013947 342.715912,107.388290 342.256744,104.393082 
	C338.133942,77.500427 324.484680,55.295097 308.719574,33.984718 
	C305.020569,28.984589 302.216400,23.322474 299.000549,17.964916 
	C303.308746,10.499048 310.763550,7.374899 318.139404,4.187991 
	C320.096008,3.342597 322.206787,2.854133 324.606750,2.118348 
z"/>
<path fill="#626E3E" opacity="1.000000" stroke="none" 
	d="
M298.729919,18.161516 
	C302.216400,23.322474 305.020569,28.984589 308.719574,33.984718 
	C324.484680,55.295097 338.133942,77.500427 342.256744,104.393082 
	C342.715912,107.388290 345.585693,110.013947 347.489502,113.167953 
	C344.737701,116.722542 341.833862,119.920166 338.704224,123.101868 
	C338.478363,123.085945 338.033569,123.170723 338.033569,123.170723 
	C333.813507,119.241409 329.593445,115.312096 325.080627,111.208084 
	C321.890717,107.965591 318.993530,104.897797 315.963959,101.560638 
	C321.339874,94.665604 320.164062,87.114578 316.558014,80.822029 
	C311.665863,72.285271 305.284760,64.556366 299.134796,56.804230 
	C295.866943,52.685009 292.096069,48.763008 287.882355,45.662415 
	C284.743195,43.352528 280.528870,42.503769 276.375366,40.994415 
	C283.458008,33.442402 290.958649,25.900259 298.729919,18.161516 
z"/>
<path fill="#47704C" opacity="1.000000" stroke="none" 
	d="
M338.930054,123.117783 
	C341.833862,119.920166 344.737701,116.722542 347.835999,113.250275 
	C352.785980,110.315491 357.541473,107.655373 362.683655,104.906433 
	C367.441986,105.554016 371.813660,106.290436 376.553802,107.090508 
	C377.103638,107.389526 377.311005,107.599228 377.874115,108.104294 
	C378.403748,108.684113 378.606232,108.940849 378.811310,109.195541 
	C385.333832,115.470520 391.869781,121.731636 398.374603,128.024948 
	C403.400116,132.886978 408.386566,137.789352 413.688385,142.834625 
	C416.768280,145.952850 419.550140,148.910278 422.658630,151.967255 
	C424.453827,154.970551 425.922424,157.874298 427.616394,161.061188 
	C427.906891,164.268082 427.971985,167.191788 428.050049,170.565704 
	C428.063019,171.015884 428.030945,171.475586 427.857300,171.953568 
	C427.419189,172.956482 427.154694,173.481430 426.890228,174.006363 
	C426.322021,175.116013 425.753815,176.225677 425.094421,177.633514 
	C420.504974,182.460983 416.006653,186.990311 411.336914,191.798798 
	C411.165527,192.077942 411.043549,192.118027 410.849304,192.256592 
	C410.479828,192.561951 410.307037,192.731262 410.136719,192.903091 
	C409.978577,192.980576 409.820465,193.058060 409.423950,193.248398 
	C406.679901,191.006790 404.174255,188.652298 401.379883,186.142365 
	C387.605347,172.388474 374.119537,158.789993 360.334290,145.035553 
	C353.258850,138.009460 346.482819,131.139328 339.365387,123.906372 
	C339.023956,123.543526 338.930054,123.117783 338.930054,123.117783 
z"/>
<path fill="#47704C" opacity="1.000000" stroke="none" 
	d="
M781.000610,169.999298 
	C774.361694,169.999298 768.222473,169.999298 762.085938,169.999298 
	C762.058167,153.060486 776.990051,138.381714 793.773682,137.885590 
	C815.328369,137.248459 828.727844,152.922150 829.714294,169.999298 
	C813.620789,169.999298 797.560608,169.999298 781.000610,169.999298 
z"/>
<path fill="#47704C" opacity="1.000000" stroke="none" 
	d="
M1504.206055,218.687775 
	C1494.401489,204.323105 1502.780273,191.297241 1518.976562,187.089874 
	C1530.776123,184.024628 1542.323730,186.634567 1553.623779,190.189102 
	C1554.691528,190.524979 1555.801880,192.557739 1555.882812,193.865219 
	C1556.160278,198.345901 1556.210083,202.870880 1555.878662,207.344299 
	C1555.744385,209.155487 1554.721436,211.126816 1553.562012,212.599686 
	C1545.713745,222.571594 1534.529907,226.073547 1522.650635,226.759949 
	C1515.866821,227.151932 1509.497192,223.969513 1504.206055,218.687775 
z"/>
<path fill="#47704C" opacity="1.000000" stroke="none" 
	d="
M914.249451,221.820877 
	C901.212830,211.115189 904.701721,197.248138 917.301453,190.258102 
	C928.166138,184.230637 939.671570,185.038559 951.027588,187.655594 
	C962.195374,190.229263 961.529358,190.724152 962.268127,202.177795 
	C962.822266,210.768066 958.010193,215.378510 952.067749,219.380890 
	C942.816833,225.611557 926.187622,230.747238 914.249451,221.820877 
z"/>
<path fill="#737E4C" opacity="1.000000" stroke="none" 
	d="
M378.787079,109.039009 
	C378.606232,108.940849 378.403748,108.684113 378.057495,108.229088 
	C378.195007,108.316063 378.478943,108.599274 378.787079,109.039009 
z"/>
<path fill="#4C5A2D" opacity="1.000000" stroke="none" 
	d="
M410.278870,192.790070 
	C410.307037,192.731262 410.479828,192.561951 410.787170,192.272522 
	C410.769135,192.340714 410.603058,192.516418 410.278870,192.790070 
z"/>
<path fill="#626E3D" opacity="1.000000" stroke="none" 
	d="
M427.062134,173.766510 
	C427.154694,173.481430 427.419189,172.956482 427.843140,172.183548 
	C427.746429,172.465912 427.490234,172.996277 427.062134,173.766510 
z"/>
<path fill="#F1841F" opacity="1.000000" stroke="none" 
	d="
M338.704224,123.101868 
	C338.930054,123.117783 339.023956,123.543526 339.072052,123.756226 
	C338.865570,123.809998 338.620026,123.638206 338.208527,123.312134 
	C338.033569,123.170723 338.478363,123.085945 338.704224,123.101868 
z"/>
<path fill="#4A582B" opacity="1.000000" stroke="none" 
	d="
M156.000702,304.000916 
	C156.001419,304.001801 156.033997,303.975555 156.016266,303.987152 
	C155.998520,303.998749 156.000000,304.000000 156.000702,304.000916 
z"/>
</svg>