<svg width="186" height="61" viewBox="0 0 186 61" fill="none" xmlns="http://www.w3.org/2000/svg">
<g clip-path="url(#clip0_6_61)">
<path d="M71.4261 52.3558C64.505 47.9635 55.1123 47.1928 39.9642 51.3331C23.8154 55.0716 18.4312 57.4681 11.3602 52.6572C8.64364 50.2939 7.66969 46.4887 8.39695 41.0076C10.0837 32.0724 14.6421 23.4737 22.739 13.9357C27.2585 8.97403 31.4507 4.71603 36.9866 3.00618C41.2292 1.93355 40.8326 5.21833 40.3192 5.68811C39.7775 5.68811 38.8675 5.77217 38.1642 6.22431C37.5934 6.66042 36.0266 8.06861 35.9424 9.96283C35.821 12.8626 38.8672 12.259 40.1811 10.6669C41.5973 8.87279 43.6902 5.43707 42.0439 2.23498C41.3538 1.09523 40.1616 0.307536 38.6812 0.0393206C33.6123 -0.246073 28.8914 2.13443 24.5345 4.76619C15.0062 11.287 7.38418 20.3225 3.07131 30.2128C0.58472 36.1802 -1.66402 44.7282 1.70676 51.6856C4.31425 56.513 9.72778 59.0772 16.1864 58.541C20.7162 58.0721 26.1937 56.6298 29.8776 55.759C33.5616 54.8867 52.4194 48.5007 58.6156 59.6152C58.6156 59.6152 60.676 55.6749 65.8251 55.5908C70.0585 55.206 76.1656 56.7982 80.6131 60.0161C79.1314 57.8209 74.9306 54.5856 71.4261 52.3558Z" fill="white"/>
<path d="M41.8872 15.0587C38.3601 12.7789 31.2712 17.1373 25.5933 24.6132C20.4011 31.319 18.1592 39.1129 20.599 42.7169C24.2286 46.9578 30.9664 40.7893 33.8317 37.4875L34.2014 37.1016C36.15 35.0397 37.6554 32.5586 39.1125 30.1781C39.1125 30.1781 40.4517 27.999 40.5157 27.8982C41.3434 27.7479 42.3403 27.5132 43.4638 27.1946C43.4477 27.2445 39.1655 34.3354 39.6024 37.8549C39.7384 38.9287 39.6345 42.8511 43.5219 44.0411C48.7029 44.8965 52.84 40.94 56.4898 37.4197C56.4898 37.4197 57.1117 36.8336 57.4635 36.499C57.3745 36.8501 57.2584 37.3185 57.2584 37.3185C55.7416 42.5151 57.7862 43.6054 59.0652 44.0078C62.9305 45.1148 67.5482 39.5826 67.5631 39.5826C67.4433 41.3252 67.0932 42.7669 68.9578 43.9236C70.7179 44.5443 72.4991 43.5981 73.8529 42.7096C78.7296 39.3236 82.6584 34.0241 85.8318 29.4431H83.8076C83.7837 29.4431 78.8128 36.5409 75.585 38.0835C75.5799 38.0835 74.9926 38.3806 74.6541 38.1456C74.2351 37.7933 74.4004 37.0613 74.6592 36.5427C74.6755 36.5088 87.1219 15.2421 87.1219 15.2421H81.2452C81.2452 15.2421 80.6033 16.2653 80.551 16.3324C80.5115 16.299 80.4173 16.1231 80.352 16.0388C76.711 11.0771 68.4659 18.709 62.2584 27.5594C59.8685 30.9626 56.8258 34.7944 53.6707 37.5601C53.6707 37.5601 48.9968 41.781 46.9996 38.7484C46.2696 37.4742 46.4942 35.6114 46.9059 34.388C49.2312 27.8673 53.2378 21.9493 57.7971 18.3785C59.0843 17.3901 60.4832 17.1043 61.1775 17.5235C61.8389 17.9096 61.9456 18.8643 61.5271 19.5182C60.4653 19.4848 59.6146 19.8027 58.9229 20.5068C57.5605 21.915 57.0871 23.273 57.5202 24.5472C59.6246 27.4974 63.8215 21.6637 63.6185 18.11C63.5459 16.8358 62.8559 15.6292 61.8261 15.0419C60.2914 14.1372 57.9501 14.3715 56.4349 15.0928C54.4066 15.8468 51.1958 18.4784 49.3216 20.5238C46.9622 23.0889 42.9158 25.9382 41.6503 25.6192C42.0648 24.5291 45.4828 17.6398 41.8872 15.0587ZM70.2199 25.2504C71.3631 23.6917 74.6904 19.5175 75.5016 18.8137C78.2297 16.4492 79.3201 17.4896 79.4145 18.2266C76.8684 22.719 73.8634 27.8654 71.038 32.4922C71.0438 32.4757 70.1538 33.8163 70.1538 33.8163C68.906 35.6934 67.6496 37.3027 65.6001 38.4257C65.3078 38.51 64.8261 38.5437 64.5055 38.3082C64.1195 38.0567 63.9672 37.6376 64.0107 37.2014C64.1335 35.7603 65.6231 31.3525 70.2199 25.2504ZM38.2499 27.949C38.2499 27.949 38.1988 28.1004 38.1735 28.1499C38.1669 28.1499 35.6113 32.2563 35.6113 32.2563C34.0689 34.285 32.1431 36.8336 29.7358 38.0567C29.0223 38.2915 28.036 38.4427 27.5333 37.8229C26.4678 36.5654 27.0169 34.8221 27.4631 33.4141L27.621 32.9111C28.9002 29.4919 30.9299 26.474 32.9055 23.6745C32.9301 23.658 32.9854 23.6413 33.0054 23.6413C33.0101 23.658 33.018 23.658 33.0215 23.6917C34.2612 26.0381 36.5857 27.1272 38.3241 27.6309C38.3346 27.6309 38.3457 27.6476 38.3457 27.6813C38.346 27.7312 38.3176 27.7988 38.2499 27.949ZM40.6712 23.1051C40.66 23.1386 39.5329 25.6863 39.5329 25.6863C39.3699 25.8203 39.1123 25.7534 38.817 25.6863L38.3111 25.602C36.7224 25.1162 35.5241 24.0767 35.1547 22.8365C34.645 20.4225 36.7382 18.5283 37.6606 17.8414C38.5455 17.2374 39.9212 16.919 40.72 17.5395C41.2127 18.1096 41.3994 18.8469 41.3994 19.652C41.3996 20.7413 41.0583 21.9649 40.6712 23.1051Z" fill="white"/>
<path d="M114.964 30.8824C114.398 29.6758 113.052 28.9046 111.619 28.9882C106.963 29.4076 102.41 33.1791 100.019 38.5931C98.7644 41.3761 98.0797 43.6723 97.6308 47.3265C99.0783 45.6842 102.031 42.9856 105.382 41.5103C105.382 41.5103 105.838 38.007 108.163 34.889C109.043 33.5978 110.803 31.5194 112.78 32.0724C114.507 32.6427 113.9 37.3531 111.605 41.9116C109.906 45.2646 107.307 48.6181 104.677 50.9308C102.351 52.8754 98.9111 55.222 95.9012 53.4119C94.0054 52.306 93.0384 49.9922 93.2428 47.0084C94.1486 38.5434 98.06 31.3353 103.657 23.1216C109.429 15.4945 115.791 7.66635 124.362 3.49172C126.11 2.62019 127.729 2.41908 129.128 2.95551C129.128 2.95551 121.083 7.31385 117.248 15.377C116.272 17.4224 114.915 20.1875 116.282 22.6351C116.996 23.9088 118.264 24.0096 119.284 23.9425C123.985 22.8694 127.022 18.5448 129.504 14.5891C130.942 11.5886 132.221 8.60476 132.221 5.28562C132.221 4.88341 132.2 4.34721 132.165 3.94454C134.411 2.77159 139.017 4.84974 139.017 4.84974C142.616 6.02362 150.279 11.8071 152.863 12.9129C154.124 11.4715 156.196 9.29259 157.363 8.20278L155.674 7.18008C152.97 5.55407 150.112 4.01166 147.299 2.48642C140.91 -0.949528 135.71 0.257098 133.063 1.19597C132.023 1.5645 131.072 1.88311 131.072 1.88311C129.108 -0.228943 125.887 -0.0282964 123.513 0.542034C114.977 2.95574 107.052 8.83931 98.555 19.0482C92.3081 27.0443 88.4333 33.9508 86.368 40.773C84.7761 45.3656 84.2922 52.1212 88.1778 56.1277C91.4814 59.5295 95.8619 58.7927 98.9553 57.5693C105.658 54.3173 111.681 47.31 114.683 39.2471C115.407 36.8503 116.211 33.4643 114.964 30.8824ZM130.376 5.62118C129.488 15.6455 121.579 21.5297 119.622 21.9984C118.436 22.2327 116.412 21.7134 118.219 17.5065C120.879 11.8401 125.421 7.0296 130.295 4.56527C130.414 4.98442 130.41 5.25195 130.376 5.62118Z" fill="white"/>
<path d="M177.294 6.89471C173.04 9.27543 168.629 10.8172 163.29 10.281C161.811 11.9241 160.37 13.617 159.042 15.3601C166.536 17.2376 174.48 13.0637 178.91 9.09128C183.597 5.08476 186 0.0395203 186 0.0395203C186 0.0395203 182.487 3.99518 177.294 6.89471Z" fill="white"/>
<path d="M93.7404 20.2814L96.8896 15.2423H91.3087L88.1606 20.2814H93.7404Z" fill="white"/>
<path d="M163.268 52.8223C162.668 53.2245 161.825 52.9153 162.14 51.9936C162.925 49.6468 166.047 44.8642 166.047 44.8642L174.741 29.6724H168.786C168.503 30.1305 167.897 31.1825 167.897 31.1825C167.622 30.7304 166.798 29.7248 166.459 29.5077C165.004 28.6018 162.869 29.0301 161.396 29.8513C154.993 33.5396 150.322 40.8268 146.638 46.5097C146.638 46.5097 142.759 52.8269 140.606 53.2967C138.926 53.4309 139.099 51.2004 139.172 50.6807C139.822 46.9252 141.331 43.355 142.851 40.1197C145.944 38.0077 149.473 35.2419 152.68 32.208C159.641 25.6531 165.509 18.2271 166.367 16.5676C166.367 16.5676 165.438 16.7522 164.342 16.7854C158.987 24.1443 148.029 34.8395 144.707 36.4316C146.179 32.9443 155.687 16.2992 163.779 8.33701L165.052 7.12969C167.021 5.23546 169.061 3.29107 170.651 2.97247C170.819 2.95575 171.035 2.97247 171.222 3.35864C171.293 4.83348 170.735 5.9233 170.096 7.16359L169.2 8.97422C169.2 8.97422 170.469 8.73944 171.303 8.47054C172.27 6.67778 173.341 4.66559 172.946 2.26906C172.814 1.49785 172.248 0.911262 171.507 0.77704C169.094 0.324441 166.463 2.08399 164.346 3.50936L164.261 3.55929C153.379 11.9576 144.191 24.0605 136.158 40.5888C135.576 41.024 133.326 41.5442 132.944 41.2925C133.737 39.6836 134.736 37.5207 135.236 35.1739C135.322 34.5032 135.403 33.8163 135.403 33.1459C135.403 31.7031 135.051 30.3458 133.739 29.4074C132.201 28.6529 130.3 29.0052 129.018 29.5748C123.276 31.9216 118.984 37.7221 115.887 42.4989C114.221 45.5338 112.561 48.7842 112.101 52.5062C111.777 55.4224 112.436 57.3 114.119 58.2391C115.85 59.1101 118.029 58.2047 118.885 57.7693C124.702 54.752 128.767 48.701 131.971 43.1688C132.098 43.1523 133.847 43.1024 135.171 42.7666C135.188 42.7666 135.196 42.7666 135.225 42.7843C135.149 43.0346 134.465 45.0468 134.465 45.0468C132.435 50.9134 131.496 54.9034 133.414 57.2665C136.155 60.6026 140.693 57.1497 144.384 52.5894C143.592 58.054 146.466 58.9092 148.658 58.4906C151.175 57.8204 153.98 55.1712 155.282 53.8138C154.864 55.406 154.978 58.256 157.267 58.5407C158.837 58.8266 160.012 57.9855 161.371 57.2645C166.246 54.6492 172.082 45.9346 173.597 43.4151H171.611C169.457 46.622 166.716 50.8266 163.268 52.8223ZM119.507 52.2387C119.198 51.7861 119.096 51.2911 119.085 50.756C119.026 47.4692 122.616 41.5829 125.149 38.3762C125.155 38.3762 125.155 38.3762 125.155 38.3762C126.217 40.6667 128.621 42.139 130.073 42.7595C128.27 46.7159 122.087 55.1888 119.507 52.2387ZM131.09 40.9908C130.918 41.1088 127.886 40.1026 127.3 37.3368C126.803 34.9556 128.468 33.0951 130.078 32.1571C130.769 31.6204 131.81 31.4365 132.574 31.7036C133.283 32.1736 133.475 33.0124 133.475 33.9162C133.475 34.4705 133.4 35.0399 133.335 35.5594C133.335 35.5594 133.322 35.6604 133.32 35.6771C132.815 37.5372 132.042 39.3646 131.09 40.9908ZM155.409 51.1828C155.406 51.1828 154.833 51.6855 154.833 51.6855C154.015 52.4059 153.174 53.1771 152.158 52.7914C151.877 52.6908 151.68 52.3225 151.632 52.0367C151.586 49.9748 152.529 48.0643 153.443 46.2039L153.677 45.7174C156.306 41.3928 159.362 36.2969 163.85 32.7604C164.607 32.2228 165.427 31.7712 166.294 32.1234C166.493 32.3074 166.725 32.6262 166.725 32.9443C166.725 33.0454 166.634 33.3133 166.581 33.3967C165.328 35.3924 164.134 37.4875 162.973 39.4988C160.704 43.4719 158.351 47.5782 155.409 51.1828Z" fill="white"/>
</g>
<defs>
<clipPath id="clip0_6_61">
<rect width="186" height="60" fill="white" transform="translate(0 0.0160217)"/>
</clipPath>
</defs>
</svg>
