<svg width="186" height="32" viewBox="0 0 186 32" fill="none" xmlns="http://www.w3.org/2000/svg">
<g clip-path="url(#clip0_6_69)">
<path d="M81.6549 27.9145C77.9834 25.572 73.0007 25.1609 64.9649 27.3691C56.3983 29.363 53.5421 30.6411 49.791 28.0753C48.3499 26.8149 47.8333 24.7854 48.2191 21.8622C49.1139 17.0967 51.532 12.5108 55.8272 7.42382C58.2248 4.77761 60.4487 2.50667 63.3853 1.59475C65.636 1.02268 65.4256 2.77456 65.1532 3.02511C64.8659 3.02511 64.3831 3.06995 64.01 3.31109C63.7072 3.54368 62.8761 4.29471 62.8314 5.30497C62.767 6.8515 64.383 6.52961 65.08 5.68048C65.8312 4.72361 66.9415 2.89123 66.0681 1.18344C65.7021 0.575579 65.0696 0.155474 64.2843 0.0124261C61.5953 -0.139784 59.091 1.12982 56.7798 2.53342C51.7252 6.01117 47.6818 10.8301 45.3939 16.1049C44.0748 19.2875 42.8819 23.8465 44.6701 27.5571C46.0533 30.1317 48.9251 31.4993 52.3512 31.2133C54.7542 30.9633 57.6599 30.194 59.6142 29.7296C61.5684 29.2644 71.5722 25.8585 74.8591 31.7862C74.8591 31.7862 75.9521 29.6847 78.6837 29.6399C80.9294 29.4347 84.1691 30.2838 86.5284 32C85.7424 30.8292 83.5139 29.1037 81.6549 27.9145Z" fill="white"/>
<path d="M65.9849 8.02273C64.1138 6.80689 60.3533 9.13133 57.3413 13.1185C54.5869 16.6949 53.3976 20.8516 54.6919 22.7738C56.6173 25.0356 60.1916 21.7457 61.7116 19.9848L61.9077 19.779C62.9414 18.6793 63.74 17.3561 64.513 16.0865C64.513 16.0865 65.2234 14.9242 65.2573 14.8705C65.6964 14.7903 66.2252 14.6651 66.8212 14.4952C66.8127 14.5218 64.5411 18.3036 64.7728 20.1807C64.845 20.7534 64.7898 22.8454 66.852 23.48C69.6005 23.9363 71.7951 21.8261 73.7313 19.9486C73.7313 19.9486 74.0612 19.636 74.2478 19.4576C74.2006 19.6448 74.139 19.8946 74.139 19.8946C73.3344 22.6662 74.419 23.2477 75.0975 23.4623C77.148 24.0527 79.5976 21.1022 79.6054 21.1022C79.5419 22.0316 79.3562 22.8004 80.3453 23.4173C81.279 23.7484 82.2239 23.2438 82.9421 22.7699C85.5291 20.964 87.6132 18.1376 89.2966 15.6944H88.2229C88.2102 15.6944 85.5732 19.4799 83.8609 20.3027C83.8582 20.3027 83.5467 20.4611 83.3671 20.3358C83.1448 20.1479 83.2325 19.7575 83.3698 19.4809C83.3784 19.4628 89.981 8.12058 89.981 8.12058H86.8636C86.8636 8.12058 86.523 8.66627 86.4953 8.70206C86.4743 8.68423 86.4244 8.59041 86.3897 8.54545C84.4583 5.89924 80.0844 9.96958 76.7914 14.6898C75.5236 16.5048 73.9095 18.5484 72.2358 20.0235C72.2358 20.0235 69.7564 22.2747 68.6969 20.6573C68.3096 19.9777 68.4288 18.9842 68.6472 18.3317C69.8807 14.854 72.0062 11.6978 74.4248 9.79331C75.1076 9.26619 75.8497 9.11374 76.218 9.33729C76.5689 9.54325 76.6255 10.0524 76.4035 10.4012C75.8402 10.3833 75.3889 10.5529 75.022 10.9284C74.2992 11.6794 74.0481 12.4037 74.2779 13.0833C75.3942 14.6567 77.6206 11.5454 77.5129 9.65014C77.4744 8.97057 77.1084 8.32703 76.5621 8.01382C75.748 7.53129 74.506 7.65626 73.7022 8.04094C72.6262 8.44308 70.9229 9.84657 69.9287 10.9374C68.6771 12.3055 66.5305 13.8252 65.8592 13.655C66.0791 13.0736 67.8923 9.39934 65.9849 8.02273ZM81.0148 13.4583C81.6213 12.627 83.3863 10.4008 83.8167 10.0254C85.2639 8.76436 85.8423 9.31921 85.8924 9.71232C84.5418 12.1082 82.9476 14.853 81.4488 17.3206C81.4519 17.3118 80.9798 18.0268 80.9798 18.0268C80.3178 19.0279 79.6513 19.8862 78.5641 20.4852C78.4091 20.5301 78.1535 20.5481 77.9834 20.4225C77.7787 20.2884 77.6979 20.0648 77.721 19.8322C77.7861 19.0636 78.5763 16.7128 81.0148 13.4583ZM64.0554 14.8976C64.0554 14.8976 64.0282 14.9783 64.0148 15.0047C64.0113 15.0047 62.6556 17.1948 62.6556 17.1948C61.8374 18.2768 60.8158 19.636 59.5388 20.2884C59.1603 20.4136 58.6371 20.4942 58.3704 20.1636C57.8052 19.493 58.0965 18.5632 58.3332 17.8123L58.4169 17.5441C59.0955 15.7205 60.1722 14.1109 61.2202 12.6179C61.2333 12.6091 61.2627 12.6002 61.2733 12.6002C61.2757 12.6091 61.2799 12.6091 61.2818 12.627C61.9394 13.8784 63.1725 14.4593 64.0947 14.7279C64.1003 14.7279 64.1062 14.7368 64.1062 14.7548C64.1063 14.7814 64.0913 14.8175 64.0554 14.8976ZM65.3398 12.3142C65.3339 12.332 64.7359 13.6908 64.7359 13.6908C64.6495 13.7623 64.5128 13.7266 64.3562 13.6908L64.0878 13.6458C63.2451 13.3867 62.6094 12.8324 62.4134 12.1709C62.143 10.8835 63.2534 9.8732 63.7427 9.50684C64.2121 9.18471 64.9419 9.01491 65.3657 9.34584C65.6271 9.64989 65.7261 10.0431 65.7261 10.4725C65.7262 11.0535 65.5452 11.7061 65.3398 12.3142Z" fill="white"/>
<path d="M104.751 16.4621C104.45 15.8186 103.737 15.4072 102.976 15.4518C100.506 15.6755 98.0909 17.687 96.8227 20.5745C96.1571 22.0587 95.7939 23.2833 95.5557 25.2323C96.3236 24.3564 97.89 22.9171 99.6675 22.1303C99.6675 22.1303 99.9094 20.2618 101.143 18.5989C101.609 17.9103 102.544 16.8018 103.592 17.0967C104.509 17.4009 104.186 19.9131 102.969 22.3443C102.068 24.1326 100.689 25.9211 99.2935 27.1545C98.06 28.1917 96.235 29.4432 94.6382 28.4778C93.6325 27.888 93.1196 26.6539 93.228 25.0626C93.7085 20.5479 95.7834 16.7036 98.7528 12.323C101.814 8.2552 105.189 4.08017 109.736 1.8537C110.663 1.38888 111.522 1.28163 112.265 1.56772C112.265 1.56772 107.997 3.89217 105.962 8.19253C105.445 9.28341 104.725 10.7581 105.45 12.0635C105.828 12.7428 106.501 12.7966 107.042 12.7608C109.536 12.1885 111.147 9.88199 112.464 7.7723C113.227 6.17202 113.905 4.58065 113.905 2.81045C113.905 2.59594 113.894 2.30996 113.876 2.09521C115.067 1.46963 117.51 2.57798 117.51 2.57798C119.419 3.20404 123.484 6.28856 124.856 6.87834C125.525 6.1096 126.624 4.9475 127.243 4.36627L126.347 3.82083C124.912 2.95362 123.396 2.131 121.904 1.31754C118.515 -0.514966 115.756 0.128568 114.352 0.629298C113.8 0.825852 113.296 0.995775 113.296 0.995775C112.254 -0.130654 110.545 -0.0236425 109.286 0.280534C104.758 1.56785 100.553 4.70575 96.046 10.1505C92.7322 14.4151 90.6767 18.0985 89.5811 21.737C88.7366 24.1864 88.4799 27.7894 90.5411 29.9262C92.2936 31.7405 94.6174 31.3475 96.2584 30.6951C99.8138 28.9607 103.009 25.2235 104.602 20.9232C104.986 19.6449 105.412 17.8391 104.751 16.4621ZM112.926 2.98941C112.456 8.3357 108.26 11.474 107.222 11.7239C106.593 11.8489 105.519 11.5719 106.477 9.32824C107.889 6.30615 110.298 3.74057 112.883 2.42626C112.946 2.64981 112.945 2.79249 112.926 2.98941Z" fill="white"/>
<path d="M137.815 3.66861C135.559 4.93833 133.219 5.76058 130.387 5.47461C129.602 6.35098 128.838 7.25386 128.133 8.18349C132.108 9.18482 136.323 6.95872 138.673 4.84012C141.159 2.70331 142.434 0.0125122 142.434 0.0125122C142.434 0.0125122 140.57 2.1222 137.815 3.66861Z" fill="white"/>
<path d="M93.4922 10.8082L95.1628 8.1207H92.2022L90.5322 10.8082H93.4922Z" fill="white"/>
<path d="M130.375 28.1634C130.057 28.3779 129.609 28.213 129.777 27.7214C130.193 26.4697 131.849 23.9191 131.849 23.9191L136.461 15.8167H133.302C133.152 16.0611 132.831 16.6221 132.831 16.6221C132.685 16.381 132.248 15.8447 132.068 15.7289C131.296 15.2458 130.163 15.4742 129.382 15.9121C125.985 17.8793 123.507 21.7658 121.553 24.7967C121.553 24.7967 119.496 28.1658 118.353 28.4163C117.462 28.4879 117.554 27.2983 117.592 27.0212C117.937 25.0183 118.738 23.1142 119.544 21.3887C121.185 20.2622 123.057 18.7872 124.759 17.169C128.451 13.6731 131.564 9.71258 132.019 8.82753C132.019 8.82753 131.526 8.92599 130.945 8.94371C128.104 12.8684 122.291 18.5725 120.529 19.4217C121.309 17.5618 126.354 8.68436 130.646 4.43787L131.322 3.79397C132.366 2.78371 133.448 1.74671 134.292 1.57678C134.381 1.56787 134.495 1.57678 134.594 1.78274C134.632 2.56933 134.336 3.15056 133.997 3.81205L133.522 4.77772C133.522 4.77772 134.195 4.6525 134.637 4.50909C135.15 3.55295 135.719 2.47978 135.509 1.20163C135.439 0.790323 135.139 0.477474 134.746 0.405889C133.465 0.164502 132.07 1.10293 130.947 1.86312L130.902 1.88975C125.129 6.36884 120.255 12.8237 115.994 21.6388C115.685 21.8709 114.491 22.1484 114.289 22.0141C114.709 21.1561 115.239 20.0025 115.504 18.7509C115.55 18.3932 115.593 18.0268 115.593 17.6693C115.593 16.8998 115.407 16.1759 114.711 15.6754C113.895 15.273 112.886 15.4609 112.206 15.7647C109.16 17.0163 106.883 20.1099 105.24 22.6575C104.357 24.2761 103.476 26.0097 103.232 27.9948C103.06 29.5501 103.41 30.5514 104.303 31.0523C105.221 31.5169 106.377 31.034 106.831 30.8017C109.917 29.1925 112.073 25.9653 113.772 23.0148C113.84 23.006 114.768 22.9794 115.47 22.8003C115.479 22.8003 115.483 22.8003 115.499 22.8097C115.459 22.9433 115.096 24.0164 115.096 24.0164C114.019 27.1453 113.52 29.2733 114.538 30.5336C115.992 32.3129 118.399 30.4713 120.357 28.0391C119.937 30.9536 121.462 31.4097 122.625 31.1864C123.96 30.829 125.448 29.4161 126.139 28.6922C125.917 29.5413 125.977 31.0613 127.192 31.2132C128.024 31.3656 128.648 30.9171 129.369 30.5325C131.955 29.1377 135.051 24.4899 135.855 23.1462H134.801C133.658 24.8565 132.204 27.099 130.375 28.1634ZM107.161 27.8521C106.997 27.6107 106.942 27.3467 106.937 27.0614C106.906 25.3084 108.81 22.169 110.154 20.4588C110.157 20.4588 110.157 20.4588 110.157 20.4588C110.72 21.6804 111.996 22.4656 112.766 22.7965C111.809 24.9066 108.529 29.4255 107.161 27.8521ZM113.305 21.8532C113.214 21.9161 111.606 21.3795 111.295 19.9044C111.031 18.6345 111.914 17.6422 112.768 17.1419C113.135 16.8557 113.687 16.7576 114.092 16.9C114.469 17.1507 114.57 17.5981 114.57 18.0801C114.57 18.3757 114.531 18.6794 114.496 18.9565C114.496 18.9565 114.489 19.0103 114.488 19.0193C114.22 20.0113 113.81 20.9859 113.305 21.8532ZM126.206 27.2889C126.204 27.2889 125.901 27.5571 125.901 27.5571C125.467 27.9413 125.02 28.3526 124.481 28.1469C124.332 28.0932 124.228 27.8968 124.203 27.7444C124.178 26.6447 124.678 25.6257 125.163 24.6336L125.287 24.3741C126.682 22.0676 128.303 19.3498 130.684 17.4637C131.085 17.177 131.52 16.9361 131.98 17.124C132.086 17.2221 132.209 17.3921 132.209 17.5618C132.209 17.6157 132.161 17.7586 132.133 17.803C131.468 18.8674 130.834 19.9848 130.219 21.0575C129.015 23.1765 127.767 25.3665 126.206 27.2889Z" fill="white"/>
</g>
<defs>
<clipPath id="clip0_6_69">
<rect width="186" height="32" fill="white"/>
</clipPath>
</defs>
</svg>
