<svg width="186" height="33" viewBox="0 0 186 33" fill="none" xmlns="http://www.w3.org/2000/svg">
<g clip-path="url(#clip0_9_488)">
<path d="M81.6549 28.8985C77.9834 26.556 73.0007 26.145 64.9649 28.3531C56.3983 30.347 53.542 31.6251 49.791 29.0593C48.3499 27.7989 47.8333 25.7694 48.2191 22.8462C49.1139 18.0807 51.532 13.4948 55.8272 8.40782C58.2248 5.76162 60.4487 3.49068 63.3853 2.57876C65.636 2.00669 65.4256 3.75857 65.1532 4.00912C64.8659 4.00912 64.3831 4.05395 64.01 4.2951C63.7072 4.52769 62.8761 5.27872 62.8314 6.28898C62.767 7.83551 64.383 7.51362 65.08 6.66449C65.8312 5.70762 66.9415 3.87523 66.0681 2.16745C65.7021 1.55959 65.0696 1.13948 64.2843 0.996435C61.5953 0.844225 59.091 2.11382 56.7798 3.51743C51.7252 6.99518 47.6818 11.8141 45.3939 17.0889C44.0748 20.2715 42.8819 24.8305 44.6701 28.5411C46.0533 31.1157 48.9251 32.4833 52.3512 32.1973C54.7542 31.9473 57.6599 31.178 59.6142 30.7136C61.5684 30.2484 71.5722 26.8425 74.8591 32.7702C74.8591 32.7702 75.9521 30.6687 78.6837 30.6239C80.9294 30.4187 84.1691 31.2678 86.5284 32.984C85.7424 31.8133 83.5139 30.0878 81.6549 28.8985Z" fill="black"/>
<path d="M65.9849 9.00674C64.1138 7.79089 60.3533 10.1153 57.3413 14.1025C54.5869 17.6789 53.3976 21.8356 54.6919 23.7578C56.6173 26.0196 60.1916 22.7297 61.7116 20.9688L61.9077 20.763C62.9414 19.6633 63.74 18.3401 64.513 17.0705C64.513 17.0705 65.2234 15.9082 65.2573 15.8545C65.6964 15.7744 66.2252 15.6491 66.8212 15.4792C66.8127 15.5058 64.5411 19.2876 64.7728 21.1647C64.845 21.7374 64.7898 23.8294 66.852 24.464C69.6005 24.9203 71.7951 22.8101 73.7313 20.9326C73.7313 20.9326 74.0612 20.62 74.2478 20.4416C74.2006 20.6288 74.139 20.8786 74.139 20.8786C73.3344 23.6502 74.419 24.2317 75.0975 24.4463C77.148 25.0367 79.5976 22.0862 79.6054 22.0862C79.5419 23.0156 79.3562 23.7844 80.3453 24.4014C81.279 24.7324 82.2239 24.2278 82.9421 23.7539C85.5291 21.948 87.6132 19.1216 89.2966 16.6785H88.2229C88.2102 16.6785 85.5732 20.4639 83.8609 21.2867C83.8582 21.2867 83.5467 21.4451 83.3671 21.3198C83.1448 21.1319 83.2325 20.7415 83.3698 20.4649C83.3784 20.4468 89.981 9.10459 89.981 9.10459H86.8636C86.8636 9.10459 86.523 9.65028 86.4953 9.68607C86.4743 9.66823 86.4244 9.57442 86.3897 9.52946C84.4583 6.88325 80.0844 10.9536 76.7914 15.6738C75.5236 17.4889 73.9095 19.5325 72.2358 21.0075C72.2358 21.0075 69.7564 23.2587 68.6969 21.6413C68.3096 20.9617 68.4288 19.9682 68.6472 19.3157C69.8807 15.838 72.0062 12.6818 74.4248 10.7773C75.1076 10.2502 75.8497 10.0977 76.218 10.3213C76.5689 10.5273 76.6255 11.0364 76.4035 11.3852C75.8402 11.3673 75.3889 11.5369 75.022 11.9124C74.2992 12.6635 74.0481 13.3877 74.2779 14.0673C75.3942 15.6407 77.6206 12.5294 77.5129 10.6341C77.4744 9.95457 77.1084 9.31104 76.5621 8.99782C75.748 8.5153 74.506 8.64027 73.7022 9.02494C72.6262 9.42709 70.9229 10.8306 69.9287 11.9215C68.6771 13.2895 66.5305 14.8092 65.8592 14.639C66.0791 14.0577 67.8923 10.3834 65.9849 9.00674ZM81.0148 14.4423C81.6213 13.611 83.3863 11.3848 83.8167 11.0094C85.2639 9.74837 85.8423 10.3032 85.8924 10.6963C84.5418 13.0922 82.9476 15.837 81.4488 18.3046C81.4519 18.2958 80.9798 19.0108 80.9798 19.0108C80.3178 20.0119 79.6513 20.8702 78.5641 21.4692C78.4091 21.5141 78.1535 21.5321 77.9834 21.4065C77.7787 21.2724 77.6979 21.0488 77.721 20.8162C77.7861 20.0476 78.5763 17.6968 81.0148 14.4423ZM64.0554 15.8816C64.0554 15.8816 64.0282 15.9624 64.0148 15.9887C64.0113 15.9887 62.6556 18.1788 62.6556 18.1788C61.8374 19.2608 60.8158 20.62 59.5388 21.2724C59.1603 21.3976 58.6371 21.4782 58.3704 21.1476C57.8052 20.477 58.0965 19.5472 58.3332 18.7963L58.4169 18.5281C59.0955 16.7045 60.1722 15.0949 61.2202 13.6019C61.2333 13.5931 61.2627 13.5842 61.2733 13.5842C61.2757 13.5931 61.2799 13.5931 61.2818 13.611C61.9394 14.8624 63.1725 15.4433 64.0947 15.7119C64.1003 15.7119 64.1062 15.7208 64.1062 15.7388C64.1063 15.7654 64.0913 15.8015 64.0554 15.8816ZM65.3398 13.2982C65.3339 13.316 64.7359 14.6748 64.7359 14.6748C64.6495 14.7463 64.5128 14.7106 64.3562 14.6748L64.0878 14.6298C63.2451 14.3707 62.6094 13.8164 62.4134 13.1549C62.143 11.8675 63.2534 10.8572 63.7427 10.4909C64.2121 10.1687 64.9419 9.99892 65.3657 10.3298C65.6271 10.6339 65.7261 11.0271 65.7261 11.4565C65.7262 12.0375 65.5452 12.6901 65.3398 13.2982Z" fill="black"/>
<path d="M104.751 17.4461C104.45 16.8026 103.737 16.3913 102.976 16.4359C100.506 16.6595 98.0909 18.671 96.8227 21.5585C96.1571 23.0427 95.7939 24.2674 95.5557 26.2163C96.3236 25.3404 97.89 23.9011 99.6675 23.1143C99.6675 23.1143 99.9094 21.2459 101.143 19.5829C101.609 18.8943 102.544 17.7859 103.592 18.0807C104.509 18.3849 104.186 20.8971 102.969 23.3283C102.068 25.1166 100.689 26.9051 99.2935 28.1386C98.06 29.1757 96.235 30.4272 94.6382 29.4618C93.6325 28.872 93.1196 27.638 93.228 26.0466C93.7085 21.532 95.7834 17.6876 98.7528 13.307C101.814 9.23924 105.189 5.06421 109.736 2.83774C110.663 2.37292 111.522 2.26567 112.265 2.55176C112.265 2.55176 107.997 4.87621 105.962 9.17657C105.445 10.2675 104.725 11.7422 105.45 13.0475C105.828 13.7269 106.501 13.7806 107.042 13.7448C109.536 13.1725 111.147 10.866 112.464 8.75634C113.227 7.15606 113.905 5.56469 113.905 3.79449C113.905 3.57998 113.894 3.294 113.876 3.07925C115.067 2.45367 117.51 3.56202 117.51 3.56202C119.419 4.18808 123.484 7.2726 124.856 7.86238C125.525 7.09364 126.624 5.93154 127.243 5.3503L126.347 4.80486C124.912 3.93766 123.396 3.11504 121.904 2.30158C118.515 0.469073 115.756 1.11261 114.352 1.61334C113.8 1.80989 113.296 1.97981 113.296 1.97981C112.254 0.853386 110.545 0.960397 109.286 1.26457C104.758 2.55189 100.553 5.68979 96.046 11.1345C92.7322 15.3991 90.6767 19.0826 89.5811 22.7211C88.7366 25.1705 88.4799 28.7734 90.5411 30.9103C92.2936 32.7246 94.6174 32.3316 96.2584 31.6791C99.8138 29.9447 103.009 26.2075 104.602 21.9073C104.986 20.629 105.412 18.8231 104.751 17.4461ZM112.926 3.97345C112.456 9.31974 108.26 12.458 107.222 12.7079C106.593 12.8329 105.519 12.556 106.477 10.3123C107.889 7.29019 110.298 4.72461 112.883 3.4103C112.946 3.63385 112.945 3.77653 112.926 3.97345Z" fill="black"/>
<path d="M137.815 4.65268C135.559 5.9224 133.219 6.74465 130.387 6.45868C129.602 7.33505 128.838 8.23793 128.133 9.16756C132.108 10.1689 136.323 7.94279 138.673 5.82419C141.159 3.68738 142.434 0.996582 142.434 0.996582C142.434 0.996582 140.57 3.10627 137.815 4.65268Z" fill="black"/>
<path d="M93.4922 11.7922L95.1628 9.10474H92.2022L90.5322 11.7922H93.4922Z" fill="black"/>
<path d="M130.375 29.1473C130.057 29.3618 129.609 29.1969 129.777 28.7053C130.193 27.4537 131.849 24.903 131.849 24.903L136.461 16.8007H133.302C133.152 17.045 132.831 17.6061 132.831 17.6061C132.685 17.3649 132.248 16.8287 132.068 16.7129C131.296 16.2297 130.163 16.4582 129.382 16.8961C125.985 18.8632 123.507 22.7497 121.553 25.7806C121.553 25.7806 119.496 29.1497 118.353 29.4003C117.462 29.4719 117.554 28.2823 117.592 28.0051C117.937 26.0022 118.738 24.0981 119.544 22.3726C121.185 21.2462 123.057 19.7711 124.759 18.153C128.451 14.657 131.564 10.6965 132.019 9.81148C132.019 9.81148 131.526 9.90994 130.945 9.92765C128.104 13.8524 122.291 19.5565 120.529 20.4056C121.309 18.5457 126.354 9.66831 130.646 5.42182L131.322 4.77792C132.366 3.76766 133.448 2.73065 134.292 2.56073C134.381 2.55181 134.495 2.56073 134.594 2.76669C134.632 3.55327 134.336 4.13451 133.997 4.796L133.522 5.76166C133.522 5.76166 134.195 5.63645 134.637 5.49304C135.15 4.5369 135.719 3.46373 135.509 2.18558C135.439 1.77427 135.139 1.46142 134.746 1.38984C133.465 1.14845 132.07 2.08688 130.947 2.84707L130.902 2.8737C125.129 7.35279 120.255 13.8077 115.994 22.6228C115.685 22.8549 114.491 23.1323 114.289 22.9981C114.709 22.14 115.239 20.9865 115.504 19.7348C115.55 19.3771 115.593 19.0108 115.593 18.6532C115.593 17.8838 115.407 17.1598 114.711 16.6594C113.895 16.257 112.886 16.4448 112.206 16.7487C109.16 18.0003 106.883 21.0938 105.24 23.6415C104.357 25.2601 103.476 26.9936 103.232 28.9787C103.06 30.5341 103.41 31.5354 104.303 32.0362C105.221 32.5008 106.377 32.0179 106.831 31.7857C109.917 30.1765 112.073 26.9493 113.772 23.9988C113.84 23.99 114.768 23.9634 115.47 23.7843C115.479 23.7843 115.483 23.7843 115.499 23.7937C115.459 23.9272 115.096 25.0004 115.096 25.0004C114.019 28.1292 113.52 30.2572 114.538 31.5176C115.992 33.2968 118.399 31.4553 120.357 29.0231C119.937 31.9375 121.462 32.3937 122.625 32.1704C123.96 31.8129 125.448 30.4 126.139 29.6761C125.917 30.5253 125.977 32.0453 127.192 32.1971C128.024 32.3496 128.648 31.901 129.369 31.5165C131.955 30.1216 135.051 25.4739 135.855 24.1301H134.801C133.658 25.8405 132.204 28.0829 130.375 29.1473ZM107.161 28.836C106.997 28.5947 106.942 28.3307 106.937 28.0453C106.906 26.2923 108.81 23.153 110.154 21.4427C110.157 21.4427 110.157 21.4427 110.157 21.4427C110.72 22.6643 111.996 23.4496 112.766 23.7805C111.809 25.8905 108.529 30.4095 107.161 28.836ZM113.305 22.8372C113.214 22.9001 111.606 22.3634 111.295 20.8884C111.031 19.6184 111.914 18.6261 112.768 18.1259C113.135 17.8397 113.687 17.7416 114.092 17.884C114.469 18.1347 114.57 18.582 114.57 19.0641C114.57 19.3597 114.531 19.6634 114.496 19.9404C114.496 19.9404 114.489 19.9943 114.488 20.0032C114.22 20.9953 113.81 21.9699 113.305 22.8372ZM126.206 28.2729C126.204 28.2729 125.901 28.541 125.901 28.541C125.467 28.9252 125.02 29.3365 124.481 29.1308C124.332 29.0772 124.228 28.8808 124.203 28.7283C124.178 27.6286 124.678 26.6097 125.163 25.6175L125.287 25.3581C126.682 23.0516 128.303 20.3338 130.684 18.4476C131.085 18.1609 131.52 17.92 131.98 18.1079C132.086 18.206 132.209 18.3761 132.209 18.5457C132.209 18.5996 132.161 18.7425 132.133 18.787C131.468 19.8514 130.834 20.9688 130.219 22.0414C129.015 24.1604 127.767 26.3505 126.206 28.2729Z" fill="black"/>
</g>
<defs>
<clipPath id="clip0_9_488">
<rect width="186" height="32" fill="white" transform="translate(0 0.984009)"/>
</clipPath>
</defs>
</svg>
