<svg width="187" height="33" viewBox="0 0 187 33" fill="none" xmlns="http://www.w3.org/2000/svg">
  <path d="M106.131 11.8871C106.086 11.4128 105.98 10.995 105.815 10.6337C105.649 10.2648 105.423 9.95237 105.137 9.69642C104.851 9.44047 104.497 9.24851 104.076 9.12053C103.654 8.98502 103.165 8.91727 102.608 8.91727C101.494 8.91727 100.462 9.18828 99.5139 9.7303C98.5654 10.2723 97.7636 11.0628 97.1087 12.1016C96.4538 13.133 96.0059 14.3864 95.765 15.8619C95.5241 17.3449 95.5165 18.6096 95.7424 19.656C95.9757 20.7024 96.4425 21.5003 97.1426 22.0499C97.8427 22.5994 98.7686 22.8742 99.9204 22.8742C100.952 22.8742 101.863 22.7086 102.653 22.3773C103.444 22.0386 104.083 21.5606 104.573 20.9433C105.07 20.326 105.382 19.5995 105.51 18.7639L106.538 18.8881H100.914L101.592 14.8117H111.551L111.043 17.8718C110.704 19.942 109.974 21.7149 108.852 23.1904C107.738 24.6659 106.346 25.7988 104.674 26.5893C103.011 27.3797 101.185 27.7749 99.1977 27.7749C96.9995 27.7749 95.1439 27.2969 93.6308 26.3408C92.1176 25.3848 91.0411 24.0222 90.4013 22.2531C89.7614 20.4765 89.6409 18.3687 90.0399 15.9296C90.3561 14.0326 90.9169 12.35 91.7224 10.8821C92.5354 9.40659 93.5291 8.15694 94.7035 7.13314C95.8854 6.10933 97.1915 5.33394 98.6218 4.80698C100.052 4.28002 101.539 4.01654 103.082 4.01654C104.415 4.01654 105.627 4.2085 106.718 4.59243C107.81 4.97636 108.743 5.51838 109.519 6.21848C110.294 6.91859 110.877 7.75043 111.269 8.71402C111.668 9.6776 111.841 10.7353 111.788 11.8871H106.131Z" fill="white"/>
  <path d="M110.201 27.4588L114.041 4.33272H123.594C125.325 4.33272 126.771 4.64513 127.93 5.26995C129.089 5.88725 129.914 6.77555 130.403 7.93487C130.892 9.08665 131.005 10.453 130.742 12.0339C130.486 13.6298 129.914 14.9886 129.025 16.1103C128.144 17.2244 127.008 18.0751 125.615 18.6623C124.23 19.2495 122.657 19.5431 120.895 19.5431H114.854L115.599 15.1392H120.601C121.437 15.1392 122.16 15.03 122.769 14.8117C123.379 14.5859 123.865 14.2471 124.226 13.7954C124.595 13.3362 124.84 12.749 124.96 12.0339C125.073 11.3187 125.02 10.7278 124.802 10.261C124.591 9.78676 124.219 9.43294 123.684 9.19957C123.157 8.95868 122.48 8.83823 121.652 8.83823H118.896L115.791 27.4588H110.201ZM124.971 16.8894L128.98 27.4588H122.882L118.998 16.8894H124.971Z" fill="white"/>
  <path d="M133.962 27.4588H127.955L139.597 4.33272H147.038L151.002 27.4588H144.995L142.454 10.1594H142.273L133.962 27.4588ZM134.685 18.3574H147.242L146.519 22.6032H133.962L134.685 18.3574Z" fill="white"/>
  <path d="M150.375 8.8721L151.143 4.33272H170.689L169.921 8.8721H162.909L159.838 27.4588H154.327L157.399 8.8721H150.375Z" fill="white"/>
  <path d="M167.036 27.4588L170.875 4.33272H187L186.232 8.8721H175.697L174.929 13.6147H184.64L183.872 18.1654H174.161L173.393 22.9194H183.929L183.161 27.4588H167.036Z" fill="white"/>
  <path d="M89.6911 27.4587C89.6911 27.4587 89.0483 25.9086 88.2931 23.166C87.7918 21.3454 87.6841 18.3687 88.0831 15.9296C88.3993 14.0325 89.0086 12.0763 89.7638 10.5659L91.1152 8.14128L93.5304 4.3327H87.9408L84.1015 27.4587H89.6911Z" fill="#D9D9D9"/>
  <path d="M3.83928 4.3327L0 27.4587H16.125L16.8928 22.9193H6.3574L7.12526 18.1654H16.8364L17.6042 13.6147H7.89311L8.66097 8.87209H19.1964L19.9643 4.3327H3.83928Z" fill="#D9D9D9"/>
  <path d="M17.5446 24.2744L17.0026 27.4587H35.2957L36.0635 22.9193H24.7941L38.6155 7.51705L39.0624 4.83557L44.7863 19.735L43.4877 27.4587H49.0433L50.3306 19.735L61.0788 4.69855L57.3003 27.4587H62.743L65.1369 13.1743H65.3289L68.5358 27.3119H72.0025L79.8843 13.2534H80.0763L77.7162 27.4587H83.159L86.9983 4.3327H80.0763L71.8331 18.651H71.5621L68.0616 4.3327H55.0959L48.6255 14.01H48.3884L45.1137 4.3327H20.8532L20.0853 8.87209H31.3435L17.5446 24.2744Z" fill="#D9D9D9"/>
  </svg>
  