<svg width="187" height="32" viewBox="0 0 187 32" fill="none" xmlns="http://www.w3.org/2000/svg">
  <path d="M106.131 11.871C106.086 11.3968 105.98 10.979 105.815 10.6176C105.649 10.2487 105.423 9.93632 105.137 9.68037C104.851 9.42442 104.497 9.23245 104.076 9.10448C103.654 8.96897 103.165 8.90122 102.608 8.90122C101.494 8.90122 100.462 9.17223 99.5139 9.71424C98.5654 10.2563 97.7636 11.0467 97.1087 12.0856C96.4538 13.1169 96.0059 14.3703 95.765 15.8458C95.5241 17.3288 95.5165 18.5935 95.7424 19.6399C95.9757 20.6863 96.4425 21.4843 97.1426 22.0338C97.8427 22.5834 98.7686 22.8581 99.9204 22.8581C100.952 22.8581 101.863 22.6925 102.653 22.3613C103.444 22.0225 104.083 21.5445 104.573 20.9272C105.07 20.3099 105.382 19.5835 105.51 18.7479L106.538 18.8721H100.914L101.592 14.7956H111.551L111.043 17.8558C110.704 19.926 109.974 21.6988 108.852 23.1743C107.738 24.6498 106.346 25.7828 104.674 26.5732C103.011 27.3637 101.185 27.7589 99.1977 27.7589C96.9995 27.7589 95.1439 27.2808 93.6308 26.3248C92.1176 25.3687 91.0411 24.0062 90.4013 22.2371C89.7614 20.4605 89.6409 18.3526 90.0399 15.9136C90.3561 14.0165 90.9169 12.334 91.7224 10.866C92.5354 9.39054 93.5291 8.14089 94.7035 7.11708C95.8854 6.09327 97.1915 5.31789 98.6218 4.79093C100.052 4.26397 101.539 4.00049 103.082 4.00049C104.415 4.00049 105.627 4.19245 106.718 4.57638C107.81 4.96031 108.743 5.50233 109.519 6.20243C110.294 6.90254 110.877 7.73438 111.269 8.69797C111.668 9.66155 111.841 10.7192 111.788 11.871H106.131Z" fill="#595959"/>
  <path d="M110.201 27.4427L114.041 4.31666H123.594C125.325 4.31666 126.771 4.62908 127.93 5.2539C129.089 5.8712 129.914 6.7595 130.403 7.91882C130.892 9.0706 131.005 10.4369 130.742 12.0178C130.486 13.6138 129.914 14.9726 129.025 16.0942C128.144 17.2084 127.008 18.059 125.615 18.6462C124.23 19.2334 122.657 19.527 120.895 19.527H114.854L115.599 15.1231H120.601C121.437 15.1231 122.16 15.014 122.769 14.7956C123.379 14.5698 123.865 14.231 124.226 13.7794C124.595 13.3202 124.84 12.733 124.96 12.0178C125.073 11.3027 125.02 10.7117 124.802 10.245C124.591 9.77071 124.219 9.41689 123.684 9.18352C123.157 8.94263 122.48 8.82218 121.652 8.82218H118.896L115.791 27.4427H110.201ZM124.971 16.8734L128.98 27.4427H122.882L118.998 16.8734H124.971Z" fill="#595959"/>
  <path d="M133.962 27.4427H127.955L139.597 4.31666H147.038L151.002 27.4427H144.995L142.454 10.1433H142.273L133.962 27.4427ZM134.685 18.3413H147.242L146.519 22.5871H133.962L134.685 18.3413Z" fill="#595959"/>
  <path d="M150.375 8.85605L151.143 4.31666H170.689L169.921 8.85605H162.909L159.838 27.4427H154.327L157.399 8.85605H150.375Z" fill="#595959"/>
  <path d="M167.036 27.4427L170.875 4.31666H187L186.232 8.85605H175.697L174.929 13.5987H184.64L183.872 18.1494H174.161L173.393 22.9033H183.929L183.161 27.4427H167.036Z" fill="#595959"/>
  <path d="M89.6911 27.4427C89.6911 27.4427 89.0483 25.8925 88.2931 23.1499C87.7918 21.3294 87.6841 18.3526 88.0831 15.9135C88.3993 14.0165 89.0086 12.0603 89.7638 10.5498L91.1152 8.12523L93.5304 4.31665H87.9408L84.1015 27.4427H89.6911Z" fill="black"/>
  <path d="M3.83928 4.31665L0 27.4427H16.125L16.8928 22.9033H6.3574L7.12526 18.1494H16.8364L17.6042 13.5987H7.89311L8.66097 8.85604H19.1964L19.9643 4.31665H3.83928Z" fill="black"/>
  <path d="M17.5446 24.2583L17.0026 27.4427H35.2957L36.0635 22.9033H24.7941L38.6155 7.501L39.0624 4.81951L44.7863 19.719L43.4877 27.4427H49.0433L50.3306 19.719L61.0788 4.68249L57.3003 27.4427H62.743L65.1369 13.1583H65.3289L68.5358 27.2959H72.0025L79.8843 13.2373H80.0763L77.7162 27.4427H83.159L86.9983 4.31665H80.0763L71.8331 18.6349H71.5621L68.0616 4.31665H55.0959L48.6255 13.9939H48.3884L45.1137 4.31665H20.8532L20.0853 8.85604H31.3435L17.5446 24.2583Z" fill="black"/>
  </svg>
  