<svg width="186" height="33" viewBox="0 0 186 33" fill="none" xmlns="http://www.w3.org/2000/svg">
<g clip-path="url(#clip0_9_522)">
<path d="M82.8408 22.2429H80.1777V32.7785H82.8408V22.2429Z" fill="black"/>
<path d="M104.314 25.2618C104.207 25.2062 103.35 24.6993 102.077 24.6993C100.352 24.6993 99.1581 25.8959 99.1581 27.5094C99.1581 29.0749 100.302 30.322 102.077 30.322C103.329 30.322 104.199 29.826 104.314 29.7629V32.5906C103.983 32.6841 103.075 32.9654 101.885 32.9654C98.8916 32.9654 96.2656 30.9039 96.2656 27.5094C96.2656 24.3633 98.6444 22.0559 101.885 22.0559C103.139 22.0559 104.063 22.3599 104.314 22.434V25.2618Z" fill="black"/>
<path d="M76.5165 25.2618C76.4093 25.2062 75.5531 24.6993 74.2794 24.6993C72.5544 24.6993 71.3608 25.8959 71.3608 27.5094C71.3608 29.0749 72.5046 30.322 74.2794 30.322C75.5312 30.322 76.4017 29.826 76.5165 29.7629V32.5906C76.1858 32.6841 75.2773 32.9654 74.0879 32.9654C71.0942 32.9654 68.4683 30.9039 68.4683 27.5094C68.4683 24.3633 70.847 22.0559 74.0879 22.0559C75.3414 22.0559 76.2659 22.3599 76.5165 22.434V25.2618Z" fill="black"/>
<path d="M112.691 24.7389C111.111 24.7389 109.938 25.9801 109.938 27.5094C109.938 29.042 111.111 30.2824 112.691 30.2824C114.27 30.2824 115.446 29.042 115.446 27.5094C115.446 25.9801 114.27 24.7389 112.691 24.7389ZM118.268 27.5094C118.268 30.5233 115.937 32.9654 112.691 32.9654C109.445 32.9654 107.118 30.5233 107.118 27.5094C107.118 24.5005 109.445 22.0559 112.691 22.0559C115.937 22.0559 118.268 24.5005 118.268 27.5094Z" fill="black"/>
<path d="M92.9402 24.6376C92.9006 24.625 91.7795 24.316 90.8584 24.316C89.7913 24.316 89.211 24.673 89.211 25.1791C89.211 25.8208 89.9938 26.0448 90.4316 26.1829L91.1663 26.4162C92.8947 26.9652 93.6826 28.1467 93.6826 29.4301C93.6826 32.0768 91.351 32.9661 89.313 32.9661C87.8967 32.9661 86.5699 32.7059 86.4391 32.6781V30.2536C86.6736 30.3126 87.7904 30.6452 88.9537 30.6452C90.2789 30.6452 90.8879 30.2587 90.8879 29.6616C90.8879 29.1277 90.3607 28.8195 89.7002 28.6124C89.5391 28.5585 89.297 28.4827 89.1317 28.4288C87.6487 27.9606 86.4121 27.0907 86.4121 25.3467C86.4121 23.3762 87.89 22.0532 90.3447 22.0532C91.6412 22.0532 92.861 22.3673 92.9402 22.3884V24.6376Z" fill="black"/>
<path d="M65.6445 10.9206C65.6445 10.1947 65.0506 9.60608 64.3227 9.60608C63.5947 9.60608 63 10.1947 63 10.9206V13.6861C63 14.4162 63.5947 15.0057 64.3227 15.0057C65.0506 15.0057 65.6445 14.4162 65.6445 13.6861V10.9206Z" fill="#595959"/>
<path d="M72.9067 7.2907C72.9067 6.5648 72.3128 5.97449 71.5849 5.97449C70.8561 5.97449 70.2622 6.5648 70.2622 7.2907V13.6865C70.2622 14.4166 70.8561 15.0052 71.5849 15.0052C72.3128 15.0052 72.9067 14.4166 72.9067 13.6865V7.2907Z" fill="#595959"/>
<path d="M80.1689 2.3244C80.1689 1.59851 79.5751 1.00903 78.8471 1.00903C78.1183 1.00903 77.5244 1.59851 77.5244 2.3244V16.3143C77.5244 17.0444 78.1183 17.6339 78.8471 17.6339C79.5751 17.6339 80.1689 17.0444 80.1689 16.3143V2.3244Z" fill="#595959"/>
<path d="M87.4316 7.2907C87.4316 6.5648 86.8377 5.97449 86.1098 5.97449C85.381 5.97449 84.7871 6.5648 84.7871 7.2907V13.6865C84.7871 14.4166 85.381 15.0052 86.1098 15.0052C86.8377 15.0052 87.4316 14.4166 87.4316 13.6865V7.2907Z" fill="#595959"/>
<path d="M94.6854 10.9206C94.6854 10.1947 94.0957 9.60608 93.3711 9.60608C92.6432 9.60608 92.0493 10.1947 92.0493 10.9206V13.6861C92.0493 14.4162 92.6432 15.0057 93.3711 15.0057C94.0957 15.0057 94.6854 14.4162 94.6854 13.6861V10.9206Z" fill="#595959"/>
<path d="M94.6889 10.9206C94.6889 10.1947 94.0951 9.60608 93.3671 9.60608C92.6391 9.60608 92.0444 10.1947 92.0444 10.9206V13.6861C92.0444 14.4162 92.6391 15.0057 93.3671 15.0057C94.0951 15.0057 94.6889 14.4162 94.6889 13.6861V10.9206Z" fill="#595959"/>
<path d="M101.951 7.2907C101.951 6.5648 101.357 5.97449 100.629 5.97449C99.9005 5.97449 99.3066 6.5648 99.3066 7.2907V13.6865C99.3066 14.4166 99.9005 15.0052 100.629 15.0052C101.357 15.0052 101.951 14.4166 101.951 13.6865V7.2907Z" fill="#595959"/>
<path d="M109.213 2.3244C109.213 1.59851 108.619 1.00903 107.892 1.00903C107.163 1.00903 106.569 1.59851 106.569 2.3244V16.3143C106.569 17.0444 107.163 17.6339 107.892 17.6339C108.619 17.6339 109.213 17.0444 109.213 16.3143V2.3244Z" fill="#595959"/>
<path d="M116.476 7.2907C116.476 6.5648 115.882 5.97449 115.154 5.97449C114.425 5.97449 113.832 6.5648 113.832 7.2907V13.6865C113.832 14.4166 114.425 15.0052 115.154 15.0052C115.882 15.0052 116.476 14.4166 116.476 13.6865V7.2907Z" fill="#595959"/>
<path d="M123.73 10.9206C123.73 10.1947 123.14 9.60608 122.416 9.60608C121.688 9.60608 121.094 10.1947 121.094 10.9206V13.6861C121.094 14.4162 121.688 15.0057 122.416 15.0057C123.14 15.0057 123.73 14.4162 123.73 13.6861V10.9206Z" fill="#595959"/>
<path d="M122.211 31.3909V31.5559H121.74V32.7778H121.547V31.5559H121.074V31.3909H122.211Z" fill="black"/>
<path d="M122.31 31.3909H122.612L123.028 32.5286H123.035L123.437 31.3909H123.734V32.7778H123.536V31.641H123.529L123.108 32.7778H122.925L122.513 31.641H122.504V32.7778H122.31V31.3909Z" fill="black"/>
</g>
<defs>
<clipPath id="clip0_9_522">
<rect width="186" height="32" fill="white" transform="translate(0 0.984009)"/>
</clipPath>
</defs>
</svg>
