<svg width="186" height="32" viewBox="0 0 186 32" fill="none" xmlns="http://www.w3.org/2000/svg">
<path d="M62.6588 1.04025H54.9829V31.4075H62.6588V1.04025Z" fill="white"/>
<path d="M124.551 9.74193C124.242 9.58173 121.775 8.12052 118.103 8.12052C113.131 8.12052 109.691 11.5696 109.691 16.2202C109.691 20.7325 112.988 24.3272 118.103 24.3272C121.711 24.3272 124.221 22.8976 124.551 22.7155V30.8662C123.598 31.1357 120.98 31.9464 117.551 31.9464C108.922 31.9464 101.354 26.0045 101.354 16.2202C101.354 7.15205 108.21 0.501404 117.551 0.501404C121.164 0.501404 123.829 1.37764 124.551 1.59124V9.74193Z" fill="white"/>
<path d="M44.4301 9.74193C44.1214 9.58173 41.6535 8.12052 37.9821 8.12052C33.01 8.12052 29.5696 11.5696 29.5696 16.2202C29.5696 20.7325 32.8665 24.3272 37.9821 24.3272C41.5903 24.3272 44.0995 22.8976 44.4301 22.7155V30.8662C43.477 31.1357 40.8585 31.9464 37.4302 31.9464C28.8013 31.9464 21.2324 26.0045 21.2324 16.2202C21.2324 7.15205 28.0889 0.501404 37.4302 0.501404C41.0432 0.501404 43.708 1.37764 44.4301 1.59124V9.74193Z" fill="white"/>
<path d="M148.699 8.23436C144.145 8.23436 140.763 11.8121 140.763 16.22C140.763 20.6376 144.145 24.2129 148.699 24.2129C153.248 24.2129 156.64 20.6376 156.64 16.22C156.64 11.8121 153.248 8.23436 148.699 8.23436ZM164.773 16.22C164.773 24.9071 158.055 31.9461 148.699 31.9461C139.343 31.9461 132.635 24.9071 132.635 16.22C132.635 7.54745 139.343 0.50116 148.699 0.50116C158.055 0.50116 164.773 7.54745 164.773 16.22Z" fill="white"/>
<path d="M91.7681 7.94287C91.6538 7.90646 88.4225 7.01566 85.7674 7.01566C82.6917 7.01566 81.019 8.04481 81.019 9.50359C81.019 11.3531 83.2753 11.9988 84.5372 12.3969L86.6549 13.0692C91.6368 14.6518 93.9077 18.0572 93.9077 21.7563C93.9077 29.3852 87.1873 31.9483 81.3131 31.9483C77.2309 31.9483 73.4063 31.1983 73.0295 31.1182V24.1302C73.7054 24.3001 76.9245 25.2588 80.2774 25.2588C84.0971 25.2588 85.8525 24.1447 85.8525 22.4238C85.8525 20.8849 84.3329 19.9966 82.4291 19.3995C81.9648 19.2441 81.267 19.0257 80.7904 18.8703C76.5161 17.5208 72.9517 15.0134 72.9517 9.98661C72.9517 4.30686 77.2114 0.493652 84.2867 0.493652C88.0237 0.493652 91.5395 1.39902 91.7681 1.4597V7.94287Z" fill="white"/>
</svg>
