<svg width="186" height="32" viewBox="0 0 186 32" fill="none" xmlns="http://www.w3.org/2000/svg">
<path d="M82.8408 21.2589H80.1777V31.7944H82.8408V21.2589Z" fill="white"/>
<path d="M104.314 24.2778C104.207 24.2222 103.35 23.7153 102.077 23.7153C100.352 23.7153 99.1581 24.9119 99.1581 26.5254C99.1581 28.0908 100.302 29.338 102.077 29.338C103.329 29.338 104.199 28.842 104.314 28.7788V31.6066C103.983 31.7001 103.075 31.9814 101.885 31.9814C98.8916 31.9814 96.2656 29.9199 96.2656 26.5254C96.2656 23.3793 98.6444 21.0719 101.885 21.0719C103.139 21.0719 104.063 21.3759 104.314 21.45V24.2778Z" fill="white"/>
<path d="M76.5165 24.2778C76.4093 24.2222 75.5531 23.7153 74.2794 23.7153C72.5544 23.7153 71.3608 24.9119 71.3608 26.5254C71.3608 28.0908 72.5046 29.338 74.2794 29.338C75.5312 29.338 76.4017 28.842 76.5165 28.7788V31.6066C76.1858 31.7001 75.2773 31.9814 74.0879 31.9814C71.0942 31.9814 68.4683 29.9199 68.4683 26.5254C68.4683 23.3793 70.847 21.0719 74.0879 21.0719C75.3414 21.0719 76.2659 21.3759 76.5165 21.45V24.2778Z" fill="white"/>
<path d="M112.691 23.7548C111.111 23.7548 109.938 24.996 109.938 26.5253C109.938 28.0579 111.111 29.2984 112.691 29.2984C114.27 29.2984 115.446 28.0579 115.446 26.5253C115.446 24.996 114.27 23.7548 112.691 23.7548ZM118.268 26.5253C118.268 29.5392 115.937 31.9813 112.691 31.9813C109.445 31.9813 107.118 29.5392 107.118 26.5253C107.118 23.5165 109.445 21.0718 112.691 21.0718C115.937 21.0718 118.268 23.5165 118.268 26.5253Z" fill="white"/>
<path d="M92.9402 23.6536C92.9006 23.641 91.7795 23.332 90.8584 23.332C89.7913 23.332 89.211 23.689 89.211 24.1951C89.211 24.8368 89.9938 25.0608 90.4316 25.1989L91.1663 25.4322C92.8947 25.9812 93.6826 27.1627 93.6826 28.4461C93.6826 31.0928 91.351 31.9821 89.313 31.9821C87.8967 31.9821 86.5699 31.7218 86.4391 31.6941V29.2696C86.6736 29.3286 87.7904 29.6612 88.9537 29.6612C90.2789 29.6612 90.8879 29.2747 90.8879 28.6776C90.8879 28.1437 90.3607 27.8355 89.7002 27.6284C89.5391 27.5745 89.297 27.4987 89.1317 27.4448C87.6487 26.9766 86.4121 26.1067 86.4121 24.3627C86.4121 22.3922 87.89 21.0692 90.3447 21.0692C91.6412 21.0692 92.861 21.3833 92.9402 21.4044V23.6536Z" fill="white"/>
<path d="M65.6445 9.9365C65.6445 9.21061 65.0506 8.62198 64.3227 8.62198C63.5947 8.62198 63 9.21061 63 9.9365V12.702C63 13.4321 63.5947 14.0216 64.3227 14.0216C65.0506 14.0216 65.6445 13.4321 65.6445 12.702V9.9365Z" fill="#595959"/>
<path d="M72.9067 6.3066C72.9067 5.5807 72.3128 4.99039 71.5849 4.99039C70.8561 4.99039 70.2622 5.5807 70.2622 6.3066V12.7024C70.2622 13.4325 70.8561 14.0211 71.5849 14.0211C72.3128 14.0211 72.9067 13.4325 72.9067 12.7024V6.3066Z" fill="#595959"/>
<path d="M80.1689 1.34033C80.1689 0.614437 79.5751 0.0249634 78.8471 0.0249634C78.1183 0.0249634 77.5244 0.614437 77.5244 1.34033V15.3302C77.5244 16.0603 78.1183 16.6498 78.8471 16.6498C79.5751 16.6498 80.1689 16.0603 80.1689 15.3302V1.34033Z" fill="#595959"/>
<path d="M87.4316 6.3066C87.4316 5.5807 86.8377 4.99039 86.1098 4.99039C85.381 4.99039 84.7871 5.5807 84.7871 6.3066V12.7024C84.7871 13.4325 85.381 14.0211 86.1098 14.0211C86.8377 14.0211 87.4316 13.4325 87.4316 12.7024V6.3066Z" fill="#595959"/>
<path d="M94.6854 9.9365C94.6854 9.21061 94.0957 8.62198 93.3711 8.62198C92.6432 8.62198 92.0493 9.21061 92.0493 9.9365V12.702C92.0493 13.4321 92.6432 14.0216 93.3711 14.0216C94.0957 14.0216 94.6854 13.4321 94.6854 12.702V9.9365Z" fill="#595959"/>
<path d="M94.6889 9.9365C94.6889 9.21061 94.0951 8.62198 93.3671 8.62198C92.6391 8.62198 92.0444 9.21061 92.0444 9.9365V12.702C92.0444 13.4321 92.6391 14.0216 93.3671 14.0216C94.0951 14.0216 94.6889 13.4321 94.6889 12.702V9.9365Z" fill="#595959"/>
<path d="M101.951 6.3066C101.951 5.5807 101.357 4.99039 100.629 4.99039C99.9005 4.99039 99.3066 5.5807 99.3066 6.3066V12.7024C99.3066 13.4325 99.9005 14.0211 100.629 14.0211C101.357 14.0211 101.951 13.4325 101.951 12.7024V6.3066Z" fill="#595959"/>
<path d="M109.213 1.34033C109.213 0.614437 108.619 0.0249634 107.892 0.0249634C107.163 0.0249634 106.569 0.614437 106.569 1.34033V15.3302C106.569 16.0603 107.163 16.6498 107.892 16.6498C108.619 16.6498 109.213 16.0603 109.213 15.3302V1.34033Z" fill="#595959"/>
<path d="M116.476 6.3066C116.476 5.5807 115.882 4.99039 115.154 4.99039C114.425 4.99039 113.832 5.5807 113.832 6.3066V12.7024C113.832 13.4325 114.425 14.0211 115.154 14.0211C115.882 14.0211 116.476 13.4325 116.476 12.7024V6.3066Z" fill="#595959"/>
<path d="M123.73 9.9365C123.73 9.21061 123.14 8.62198 122.416 8.62198C121.688 8.62198 121.094 9.21061 121.094 9.9365V12.702C121.094 13.4321 121.688 14.0216 122.416 14.0216C123.14 14.0216 123.73 13.4321 123.73 12.702V9.9365Z" fill="#595959"/>
<path d="M122.211 30.4069V30.572H121.74V31.7939H121.547V30.572H121.074V30.4069H122.211Z" fill="white"/>
<path d="M122.31 30.4069H122.612L123.028 31.5446H123.035L123.437 30.4069H123.734V31.7939H123.536V30.657H123.529L123.108 31.7939H122.925L122.513 30.657H122.504V31.7939H122.31V30.4069Z" fill="white"/>
</svg>
