<svg width="186" height="99" viewBox="0 0 186 99" fill="none" xmlns="http://www.w3.org/2000/svg">
<g clip-path="url(#clip0_6_77)">
<path d="M60.7625 65.1213H52.6069V97.3865H60.7625V65.1213Z" fill="white"/>
<path d="M126.524 74.3668C126.195 74.1966 123.573 72.6441 119.673 72.6441C114.39 72.6441 110.734 76.3088 110.734 81.25C110.734 86.0443 114.237 89.8637 119.673 89.8637C123.506 89.8637 126.172 88.3447 126.524 88.1513V96.8114C125.511 97.0977 122.729 97.959 119.086 97.959C109.918 97.959 101.876 91.6458 101.876 81.25C101.876 71.6151 109.161 64.5488 119.086 64.5488C122.925 64.5488 125.756 65.4798 126.524 65.7067V74.3668Z" fill="white"/>
<path d="M41.3942 74.3668C41.0661 74.1966 38.444 72.6441 34.5432 72.6441C29.2602 72.6441 25.6048 76.3088 25.6048 81.25C25.6048 86.0443 29.1078 89.8637 34.5432 89.8637C38.3768 89.8637 41.0428 88.3447 41.3942 88.1513V96.8114C40.3815 97.0977 37.5992 97.959 33.9567 97.959C24.7885 97.959 16.7466 91.6458 16.7466 81.25C16.7466 71.6151 24.0316 64.5488 33.9567 64.5488C37.7956 64.5488 40.6269 65.4798 41.3942 65.7067V74.3668Z" fill="white"/>
<path d="M152.18 72.765C147.341 72.765 143.748 76.5664 143.748 81.2498C143.748 85.9435 147.341 89.7423 152.18 89.7423C157.013 89.7423 160.617 85.9435 160.617 81.2498C160.617 76.5664 157.013 72.765 152.18 72.765ZM169.258 81.2498C169.258 90.4798 162.121 97.9588 152.18 97.9588C142.239 97.9588 135.112 90.4798 135.112 81.2498C135.112 72.0352 142.239 64.5485 152.18 64.5485C162.121 64.5485 169.258 72.0352 169.258 81.2498Z" fill="white"/>
<path d="M91.6911 72.4553C91.5697 72.4166 88.1365 71.4702 85.3155 71.4702C82.0476 71.4702 80.2702 72.5636 80.2702 74.1136C80.2702 76.0787 82.6676 76.7647 84.0083 77.1877L86.2584 77.9021C91.5516 79.5835 93.9645 83.2018 93.9645 87.1321C93.9645 95.2377 86.8241 97.9611 80.5828 97.9611C76.2454 97.9611 72.1818 97.1642 71.7814 97.0791V89.6543C72.4996 89.8349 75.9199 90.8535 79.4823 90.8535C83.5407 90.8535 85.4059 89.6698 85.4059 87.8413C85.4059 86.2063 83.7913 85.2624 81.7686 84.628C81.2751 84.4629 80.5337 84.2308 80.0274 84.0657C75.4859 82.6318 71.6987 79.9678 71.6987 74.6268C71.6987 68.5921 76.2247 64.5405 83.7422 64.5405C87.7128 64.5405 91.4483 65.5025 91.6911 65.567V72.4553Z" fill="white"/>
<path d="M8.09875 30.4466C8.09875 28.2235 6.28008 26.4208 4.05067 26.4208C1.82125 26.4208 0 28.2235 0 30.4466V38.9158C0 41.1518 1.82125 42.9571 4.05067 42.9571C6.28008 42.9571 8.09875 41.1518 8.09875 38.9158V30.4466Z" fill="#595959"/>
<path d="M30.3395 19.33C30.3395 17.107 28.5208 15.2991 26.2914 15.2991C24.0594 15.2991 22.2407 17.107 22.2407 19.33V38.9171C22.2407 41.1531 24.0594 42.9558 26.2914 42.9558C28.5208 42.9558 30.3395 41.1531 30.3395 38.9171V19.33Z" fill="#595959"/>
<path d="M52.5802 4.12081C52.5802 1.89776 50.7615 0.0924988 48.5321 0.0924988C46.3001 0.0924988 44.4814 1.89776 44.4814 4.12081V46.9649C44.4814 49.2008 46.3001 51.0061 48.5321 51.0061C50.7615 51.0061 52.5802 49.2008 52.5802 46.9649V4.12081Z" fill="#595959"/>
<path d="M74.8214 19.33C74.8214 17.107 73.0027 15.2991 70.7733 15.2991C68.5413 15.2991 66.7227 17.107 66.7227 19.33V38.9171C66.7227 41.1531 68.5413 42.9558 70.7733 42.9558C73.0027 42.9558 74.8214 41.1531 74.8214 38.9171V19.33Z" fill="#595959"/>
<path d="M97.0368 30.4466C97.0368 28.2235 95.231 26.4208 93.012 26.4208C90.7825 26.4208 88.9639 28.2235 88.9639 30.4466V38.9158C88.9639 41.1518 90.7825 42.9571 93.012 42.9571C95.231 42.9571 97.0368 41.1518 97.0368 38.9158V30.4466Z" fill="#595959"/>
<path d="M97.0475 30.4466C97.0475 28.2235 95.2288 26.4208 92.9994 26.4208C90.77 26.4208 88.9487 28.2235 88.9487 30.4466V38.9158C88.9487 41.1518 90.77 42.9571 92.9994 42.9571C95.2288 42.9571 97.0475 41.1518 97.0475 38.9158V30.4466Z" fill="#595959"/>
<path d="M119.288 19.33C119.288 17.107 117.47 15.2991 115.24 15.2991C113.008 15.2991 111.189 17.107 111.189 19.33V38.9171C111.189 41.1531 113.008 42.9558 115.24 42.9558C117.47 42.9558 119.288 41.1531 119.288 38.9171V19.33Z" fill="#595959"/>
<path d="M141.529 4.12081C141.529 1.89776 139.71 0.0924988 137.481 0.0924988C135.249 0.0924988 133.43 1.89776 133.43 4.12081V46.9649C133.43 49.2008 135.249 51.0061 137.481 51.0061C139.71 51.0061 141.529 49.2008 141.529 46.9649V4.12081Z" fill="#595959"/>
<path d="M163.77 19.33C163.77 17.107 161.951 15.2991 159.722 15.2991C157.49 15.2991 155.671 17.107 155.671 19.33V38.9171C155.671 41.1531 157.49 42.9558 159.722 42.9558C161.951 42.9558 163.77 41.1531 163.77 38.9171V19.33Z" fill="#595959"/>
<path d="M185.986 30.4466C185.986 28.2235 184.18 26.4208 181.961 26.4208C179.731 26.4208 177.913 28.2235 177.913 30.4466V38.9158C177.913 41.1518 179.731 42.9571 181.961 42.9571C184.18 42.9571 185.986 41.1518 185.986 38.9158V30.4466Z" fill="#595959"/>
<path d="M181.333 93.1372V93.6427H179.892V97.3847H179.3V93.6427H177.851V93.1372H181.333Z" fill="white"/>
<path d="M181.636 93.1372H182.563L183.837 96.6214H183.857L185.09 93.1372H185.999V97.3847H185.392V93.9032H185.371L184.08 97.3847H183.519L182.258 93.9032H182.23V97.3847H181.636V93.1372Z" fill="white"/>
</g>
<defs>
<clipPath id="clip0_6_77">
<rect width="186" height="98" fill="white" transform="translate(0 0.0160217)"/>
</clipPath>
</defs>
</svg>
