<svg width="186" height="33" viewBox="0 0 186 33" fill="none" xmlns="http://www.w3.org/2000/svg">
<path d="M64.7344 14.6764V11.8777H52.1646V14.9316L53.4703 19.7117H49.9958V22.8099H56.9889V19.7117L55.639 14.9316H61.6597C61.7109 17.276 61.6382 19.6804 60.5992 21.7735C59.1094 24.7749 56.5142 27.082 53.3589 28.2099C50.2036 29.3378 46.734 29.1987 43.6791 27.8219C40.6242 26.4451 38.2219 23.9377 36.9771 20.8267C35.7323 17.7156 35.7419 14.2432 37.0039 11.1391C38.2658 8.03499 40.6818 5.54088 43.7443 4.18092C46.8067 2.82095 50.2771 2.70101 53.4261 3.8463C56.5751 4.99159 58.2377 5.97178 59.7109 8.98135H63.3706C61.5503 5.26284 58.3595 2.39467 54.4687 0.979596C50.5779 -0.43548 46.29 -0.287286 42.5062 1.39304C38.7224 3.07336 35.7372 6.15497 34.178 9.99029C32.6188 13.8256 32.607 18.116 34.145 21.9599C35.683 25.8037 38.6512 28.9017 42.4257 30.6029C46.2002 32.3041 50.4871 32.4759 54.3857 31.0823C58.2842 29.6887 61.4908 26.8382 63.3316 23.1298C64.733 20.3065 64.788 17.5434 64.7344 14.6764Z" fill="white"/>
<path d="M43.4454 12.276H49.1106V14.9316H43.4454V12.276Z" fill="white"/>
<path d="M70.444 3.15846H67.8326V28.0768H70.444V3.15846Z" fill="white"/>
<path fill-rule="evenodd" clip-rule="evenodd" d="M89.7413 10.1073H92.3527V28.0768H89.7413V25.6403L89.7295 25.6527C88.0456 27.4219 85.7458 28.4759 83.3063 28.5964C80.8667 28.7169 78.4743 27.8947 76.6242 26.3001C74.774 24.7055 73.6079 22.4605 73.3672 20.0299C73.1265 17.5993 73.8296 15.1692 75.331 13.2426C76.8324 11.3161 79.0171 10.0406 81.4329 9.68029C83.8487 9.31995 86.3105 9.90232 88.3088 11.3068C88.8299 11.6731 89.3091 12.088 89.7413 12.5438V10.1073ZM89.7413 17.631V20.5533C89.4726 21.823 88.8566 23.004 87.9488 23.9578C86.6999 25.2699 84.9942 26.0516 83.185 26.1409C81.3757 26.2303 79.6013 25.6206 78.2292 24.4379C76.8571 23.2552 75.9922 21.5903 75.8137 19.7876C75.6351 17.9849 76.1566 16.1827 77.2701 14.7538C78.3836 13.325 80.0039 12.3791 81.7956 12.1118C83.5872 11.8446 85.4131 12.2765 86.8951 13.3182C88.3557 14.3448 89.3722 15.8862 89.7413 17.631Z" fill="white"/>
<path d="M99.1245 10.1073H96.5131V28.0768H99.1245V15.3804C99.4554 13.5308 101.204 12.5206 102.289 12.2982C103.152 12.1211 105.483 11.9264 106.627 12.3645C107.667 12.7629 109.216 14.4226 109.216 15.7283V28.0768H111.827V15.7283C111.827 14.4005 109.415 10.4199 106.627 10.1294C104.812 9.94039 103.373 9.90811 102.289 10.1294C101.23 10.3456 99.7627 11.3498 99.1245 11.9051V10.1073Z" fill="white"/>
<path fill-rule="evenodd" clip-rule="evenodd" d="M139.49 23.4742C138.724 22.5074 138.229 21.3619 138.045 20.1543H153.786V17.5651C153.786 17.5577 153.786 17.5503 153.786 17.543C153.771 14.5173 150.813 11.2485 148.873 10.39C146.928 9.52942 144.751 9.34517 142.689 9.86668C140.627 10.3882 138.799 11.5854 137.497 13.2672C136.195 14.949 135.494 17.0185 135.506 19.1452C135.518 21.272 136.242 23.3335 137.563 25.0007C138.883 26.6678 140.724 27.8445 142.792 28.343C144.86 28.8414 147.034 28.6328 148.97 27.7505C150.905 26.8683 153.21 24.3147 153.763 22.343L151.286 22.343C150.56 23.743 149.385 24.8593 147.95 25.5136C146.515 26.168 144.902 26.3226 143.368 25.953C141.835 25.5833 140.469 24.7106 139.49 23.4742ZM138.137 17.543H151.286C151.276 14.7642 149.316 13.2748 147.878 12.6382C146.435 11.9999 144.821 11.8633 143.292 12.2501C141.762 12.6368 140.407 13.5248 139.441 14.7721C138.805 15.5942 138.362 16.5412 138.137 17.543Z" fill="white"/>
<path d="M128.876 27.7505C130.811 26.8683 133.116 24.3147 133.669 22.343L131.192 22.343C130.466 23.743 129.291 24.8593 127.856 25.5136C126.421 26.168 124.807 26.3226 123.274 25.953C121.741 25.5833 120.375 24.7106 119.396 23.4742C118.416 22.2377 117.88 20.7088 117.871 19.1315C117.862 17.5542 118.382 16.0194 119.347 14.7721C120.313 13.5248 121.668 12.6368 123.198 12.2501C124.727 11.8633 126.341 11.9999 127.784 12.6382C129.226 13.2765 130.413 14.3795 131.155 15.7714H133.669C133.028 13.6923 130.724 11.2506 128.779 10.39C126.834 9.52942 124.657 9.34517 122.595 9.86668C120.533 10.3882 118.705 11.5854 117.403 13.2672C116.101 14.949 115.4 17.0185 115.412 19.1452C115.424 21.272 116.148 23.3335 117.469 25.0007C118.789 26.6678 120.63 27.8445 122.698 28.343C124.765 28.8414 126.94 28.6328 128.876 27.7505Z" fill="white"/>
</svg>
