<svg width="186" height="32" viewBox="0 0 186 32" fill="none" xmlns="http://www.w3.org/2000/svg">
  <path d="M64.7344 14.6604V11.8617H52.1646V14.9156L53.4703 19.6957H49.9958V22.7939H56.9889V19.6957L55.639 14.9156H61.6597C61.7109 17.26 61.6382 19.6644 60.5992 21.7575C59.1094 24.7589 56.5142 27.066 53.3589 28.1939C50.2036 29.3218 46.734 29.1827 43.6791 27.8059C40.6242 26.4291 38.2219 23.9217 36.9771 20.8107C35.7323 17.6996 35.7419 14.2272 37.0039 11.1231C38.2658 8.01899 40.6818 5.52489 43.7443 4.16493C46.8067 2.80496 50.2771 2.68502 53.4261 3.83031C56.5751 4.9756 58.2377 5.95578 59.7109 8.96536H63.3706C61.5503 5.24684 58.3595 2.37868 54.4687 0.963604C50.5779 -0.451471 46.29 -0.303277 42.5062 1.37704C38.7224 3.05736 35.7372 6.13898 34.178 9.9743C32.6188 13.8096 32.607 18.1 34.145 21.9439C35.683 25.7877 38.6512 28.8858 42.4257 30.5869C46.2002 32.2881 50.4871 32.4599 54.3857 31.0663C58.2842 29.6727 61.4908 26.8222 63.3316 23.1138C64.733 20.2905 64.788 17.5274 64.7344 14.6604Z" fill="black"/>
  <path d="M43.4454 12.26H49.1106V14.9156H43.4454V12.26Z" fill="black"/>
  <path d="M70.444 3.14247H67.8326V28.0609H70.444V3.14247Z" fill="black"/>
  <path fill-rule="evenodd" clip-rule="evenodd" d="M89.7413 10.0913H92.3527V28.0609H89.7413V25.6243L89.7295 25.6367C88.0456 27.4059 85.7458 28.4599 83.3063 28.5804C80.8667 28.7009 78.4743 27.8787 76.6242 26.2841C74.774 24.6895 73.6079 22.4445 73.3672 20.0139C73.1265 17.5833 73.8296 15.1532 75.331 13.2266C76.8324 11.3001 79.0171 10.0246 81.4329 9.6643C83.8487 9.30395 86.3105 9.88633 88.3088 11.2909C88.8299 11.6572 89.3091 12.0721 89.7413 12.5278V10.0913ZM89.7413 17.615V20.5373C89.4726 21.807 88.8566 22.988 87.9488 23.9418C86.6999 25.2539 84.9942 26.0356 83.185 26.1249C81.3757 26.2143 79.6013 25.6046 78.2292 24.4219C76.8571 23.2393 75.9922 21.5743 75.8137 19.7716C75.6351 17.969 76.1566 16.1667 77.2701 14.7378C78.3836 13.309 80.0039 12.3631 81.7956 12.0958C83.5872 11.8286 85.4131 12.2605 86.8951 13.3022C88.3557 14.3288 89.3722 15.8702 89.7413 17.615Z" fill="black"/>
  <path d="M99.1245 10.0913H96.5131V28.0609H99.1245V15.3644C99.4554 13.5148 101.204 12.5046 102.289 12.2822C103.152 12.1051 105.483 11.9105 106.627 12.3485C107.667 12.7469 109.216 14.4066 109.216 15.7123V28.0609H111.827V15.7123C111.827 14.3845 109.415 10.4039 106.627 10.1134C104.812 9.9244 103.373 9.89212 102.289 10.1134C101.23 10.3296 99.7627 11.3338 99.1245 11.8891V10.0913Z" fill="black"/>
  <path fill-rule="evenodd" clip-rule="evenodd" d="M139.49 23.4582C138.724 22.4915 138.229 21.346 138.045 20.1383H153.786V17.5491C153.786 17.5417 153.786 17.5343 153.786 17.527C153.771 14.5013 150.813 11.2325 148.873 10.374C146.928 9.51343 144.751 9.32918 142.689 9.85069C140.627 10.3722 138.799 11.5694 137.497 13.2512C136.195 14.933 135.494 17.0025 135.506 19.1292C135.518 21.256 136.242 23.3175 137.563 24.9847C138.883 26.6518 140.724 27.8285 142.792 28.327C144.86 28.8254 147.034 28.6168 148.97 27.7346C150.905 26.8523 153.21 24.2988 153.763 22.327L151.286 22.327C150.56 23.727 149.385 24.8433 147.95 25.4976C146.515 26.152 144.902 26.3067 143.368 25.937C141.835 25.5673 140.469 24.6946 139.49 23.4582ZM138.137 17.527H151.286C151.276 14.7482 149.316 13.2588 147.878 12.6222C146.435 11.9839 144.821 11.8473 143.292 12.2341C141.762 12.6209 140.407 13.5088 139.441 14.7561C138.805 15.5782 138.362 16.5252 138.137 17.527Z" fill="black"/>
  <path d="M128.876 27.7346C130.811 26.8523 133.116 24.2988 133.669 22.327L131.192 22.327C130.466 23.727 129.291 24.8433 127.856 25.4976C126.421 26.152 124.807 26.3067 123.274 25.937C121.741 25.5673 120.375 24.6946 119.396 23.4582C118.416 22.2217 117.88 20.6928 117.871 19.1155C117.862 17.5382 118.382 16.0034 119.347 14.7561C120.313 13.5088 121.668 12.6209 123.198 12.2341C124.727 11.8473 126.341 11.9839 127.784 12.6222C129.226 13.2605 130.413 14.3636 131.155 15.7554H133.669C133.028 13.6764 130.724 11.2346 128.779 10.374C126.834 9.51343 124.657 9.32918 122.595 9.85069C120.533 10.3722 118.705 11.5694 117.403 13.2512C116.101 14.933 115.4 17.0025 115.412 19.1292C115.424 21.256 116.148 23.3175 117.469 24.9847C118.789 26.6518 120.63 27.8285 122.698 28.327C124.765 28.8254 126.94 28.6168 128.876 27.7346Z" fill="black"/>
  </svg>
  