<svg width="186" height="32" viewBox="0 0 186 32" fill="none" xmlns="http://www.w3.org/2000/svg">
<path d="M63.2646 8.334C63.2646 7.47901 63.9059 6.83777 64.7609 6.83777C65.6159 6.83777 66.2838 7.47901 66.2838 8.334V14.1854C67.2457 12.8227 68.6084 11.7273 70.7726 11.7273C73.8452 11.7273 76.8644 14.1586 76.8644 18.5405V18.5939C76.8644 22.949 73.8719 25.4072 70.7726 25.4072C68.5816 25.4072 67.219 24.3117 66.2838 23.0826V23.7506C66.2838 24.5789 65.6159 25.2468 64.7609 25.2468C63.9326 25.2468 63.2646 24.5789 63.2646 23.7506V8.334ZM73.7918 18.5939V18.5405C73.7918 16.0022 72.0818 14.319 70.0244 14.319C67.9938 14.319 66.177 16.0022 66.177 18.5405V18.5939C66.177 21.1055 67.9671 22.7887 70.0244 22.7887C72.0818 22.7887 73.7918 21.1856 73.7918 18.5939Z" fill="black"/>
<path d="M79.9639 13.3562C79.9639 12.5012 80.6051 11.8332 81.4601 11.8332C82.3151 11.8332 82.9831 12.5012 82.9831 13.3562V14.6921C83.6778 13.0356 84.9602 11.8065 86.2962 11.8065C87.2313 11.8065 87.7924 12.421 87.7924 13.3028C87.7924 14.1043 87.258 14.612 86.5901 14.7456C84.4526 15.1196 82.9831 16.7495 82.9831 19.8755V23.7497C82.9831 24.578 82.3151 25.246 81.4601 25.246C80.6318 25.246 79.9639 24.6047 79.9639 23.7497V13.3562Z" fill="black"/>
<path d="M89.0747 18.6469V18.5935C89.0747 14.8262 92.0672 11.7268 96.1017 11.7268C100.136 11.7268 103.102 14.7994 103.102 18.54V18.5935C103.102 22.3341 100.109 25.4334 96.0483 25.4334C92.0405 25.4334 89.0747 22.3875 89.0747 18.6469ZM100.083 18.6469V18.5935C100.083 16.269 98.4262 14.3719 96.0483 14.3719C93.6436 14.3719 92.0939 16.269 92.0939 18.5668V18.6202C92.0939 20.918 93.7505 22.8417 96.1017 22.8417C98.5331 22.815 100.083 20.918 100.083 18.6469Z" fill="black"/>
<path d="M105.293 21.345V21.2916C105.293 18.4594 107.511 17.0701 110.717 17.0701C112.186 17.0701 113.228 17.2838 114.244 17.6044V17.2838C114.244 15.4135 113.095 14.4249 110.984 14.4249C109.835 14.4249 108.9 14.612 108.072 14.9593C107.911 15.0127 107.751 15.0395 107.591 15.0395C106.896 15.0395 106.335 14.4784 106.335 13.7837C106.335 13.2226 106.709 12.7684 107.163 12.5814C108.419 12.1004 109.675 11.8065 111.385 11.8065C113.362 11.8065 114.831 12.3409 115.74 13.276C116.702 14.2379 117.156 15.6273 117.156 17.3373V23.8032C117.156 24.6314 116.515 25.246 115.686 25.246C114.805 25.246 114.217 24.6581 114.217 23.9635V23.4825C113.335 24.5513 111.946 25.4063 109.942 25.4063C107.484 25.4063 105.293 23.9902 105.293 21.345ZM114.297 20.4099V19.5282C113.522 19.2343 112.507 18.9938 111.305 18.9938C109.354 18.9938 108.205 19.8221 108.205 21.1847V21.2382C108.205 22.4939 109.327 23.2153 110.77 23.2153C112.801 23.2153 114.297 22.0932 114.297 20.4099Z" fill="black"/>
<path d="M133.694 23.777C133.694 24.632 133.027 25.2732 132.198 25.2732C131.343 25.2732 130.675 24.632 130.675 23.777V22.9487C129.713 24.3113 128.324 25.4068 126.187 25.4068C123.114 25.4068 120.095 22.9487 120.095 18.5936V18.5401C120.095 14.185 123.06 11.7269 126.187 11.7269C128.351 11.7269 129.713 12.7957 130.675 14.0514V8.36038C130.675 7.50538 131.343 6.86414 132.172 6.86414C133.027 6.86414 133.694 7.50538 133.694 8.36038V23.777ZM123.141 18.5401V18.5936C123.141 21.1318 124.877 22.8151 126.935 22.8151C128.965 22.8151 130.755 21.1318 130.755 18.5936V18.5401C130.755 16.0019 128.965 14.3453 126.935 14.3453C124.877 14.3453 123.141 15.9217 123.141 18.5401Z" fill="black"/>
<path d="M137.035 23.7768C136.848 23.6432 136.688 23.4027 136.688 23.0821C136.688 22.6279 137.062 22.2538 137.542 22.2538C137.73 22.2538 137.89 22.3073 138.023 22.4142C139.333 23.3226 140.722 23.7768 142.111 23.7768C143.661 23.7768 144.783 22.9752 144.783 21.7462V21.6927C144.783 20.4103 143.26 19.9026 141.577 19.4217C139.573 18.8339 137.329 18.1392 137.329 15.788V15.7345C137.329 13.5169 139.172 12.0474 141.711 12.0474C143.073 12.0474 144.569 12.4749 145.825 13.1428C146.066 13.3031 146.306 13.5703 146.306 13.9444C146.306 14.3986 145.932 14.7726 145.451 14.7726C145.264 14.7726 145.131 14.7192 145.024 14.6658C143.928 14.0513 142.753 13.6772 141.657 13.6772C140.134 13.6772 139.172 14.4787 139.172 15.5475V15.6009C139.172 16.83 140.775 17.2842 142.485 17.8186C144.489 18.4064 146.627 19.1812 146.627 21.5057V21.5592C146.627 23.9905 144.596 25.4066 142.031 25.4066C140.321 25.3799 138.424 24.7654 137.035 23.7768Z" fill="black"/>
<path d="M149.352 18.7805V18.7271C149.352 15.0934 152.184 11.994 156.085 11.994C159.933 11.994 162.791 15.0399 162.791 18.6737V18.7271C162.791 22.3608 159.933 25.4602 156.032 25.4602C152.157 25.4334 149.352 22.4142 149.352 18.7805ZM160.814 18.7805V18.7271C160.814 15.9751 158.757 13.704 156.032 13.704C153.253 13.704 151.329 15.9751 151.329 18.6737V18.7271C151.329 21.5058 153.36 23.7235 156.085 23.7235C158.864 23.7235 160.814 21.4791 160.814 18.7805Z" fill="black"/>
<path d="M166.959 13.9713H165.917C165.436 13.9713 165.089 13.5972 165.089 13.1163C165.089 12.6621 165.463 12.288 165.917 12.288H166.959V11.1658C166.959 9.6963 167.36 8.57413 168.081 7.85272C168.723 7.21148 169.684 6.86414 170.833 6.86414C171.448 6.86414 171.929 6.91757 172.356 7.02445C172.73 7.1046 173.051 7.42523 173.051 7.85272C173.051 8.36038 172.624 8.73444 172.143 8.681C171.822 8.62756 171.475 8.54741 171.101 8.54741C169.604 8.54741 168.856 9.42912 168.856 11.2994V12.3414H172.196C172.677 12.3414 173.051 12.6888 173.051 13.1697C173.051 13.6239 172.677 13.998 172.196 13.998H168.883V24.2846C168.883 24.819 168.482 25.2465 167.921 25.2465C167.387 25.2465 166.959 24.7923 166.959 24.2846V13.9713Z" fill="black"/>
<path d="M176.043 21.7199V13.9448H175.001C174.547 13.9448 174.146 13.544 174.146 13.0898C174.146 12.6089 174.547 12.2348 175.001 12.2348H176.043V9.18892C176.043 8.65455 176.444 8.22705 176.979 8.22705C177.513 8.22705 177.941 8.68127 177.941 9.18892V12.2616H181.28C181.761 12.2616 182.162 12.6623 182.162 13.1165C182.162 13.5975 181.761 13.9715 181.28 13.9715H177.941V21.5062C177.941 23.0826 178.822 23.6437 180.105 23.6437C180.773 23.6437 181.12 23.4833 181.28 23.4833C181.735 23.4833 182.109 23.8574 182.109 24.3116C182.109 24.659 181.868 24.9261 181.548 25.0597C180.986 25.3002 180.399 25.4071 179.65 25.4071C177.62 25.3804 176.043 24.3383 176.043 21.7199Z" fill="black"/>
<mask id="mask0_9_450" style="mask-type:luminance" maskUnits="userSpaceOnUse" x="13" y="1" width="26" height="15">
<path d="M38.8784 1.73193H20.3758C16.5239 1.73193 13.4067 4.8491 13.4067 8.70102C13.4067 12.5529 16.5239 15.6701 20.3758 15.6701H26.9887L33.1339 5.18308C34.4031 3.02333 36.6519 1.79873 38.9897 1.73193H38.8784Z" fill="white"/>
</mask>
<g mask="url(#mask0_9_450)">
<path d="M15.0546 -4.54688L9.97803 14.7795L37.3423 21.9713L42.4188 2.64486L15.0546 -4.54688Z" fill="#959595"/>
</g>
<mask id="mask1_9_450" style="mask-type:luminance" maskUnits="userSpaceOnUse" x="29" y="1" width="18" height="31">
<path d="M39.0784 1.73173C36.7183 1.754 34.425 2.9786 33.1336 5.18288L29.7715 10.9274L35.7609 21.1249C37.698 24.4425 36.5847 28.7175 33.2672 30.6546C32.2207 31.2557 31.1074 31.5674 29.9719 31.612C32.2875 31.5452 34.5363 30.3206 35.8054 28.1608L45.1569 12.1965C47.1163 8.87894 46.003 4.60398 42.6632 2.66688C41.5722 2.02119 40.3921 1.70947 39.2343 1.70947H39.0784V1.73173Z" fill="white"/>
</mask>
<g mask="url(#mask1_9_450)">
<path d="M61.856 14.2003L36.9855 -6.81824L15.0317 19.1878L39.88 40.1841L61.856 14.2003Z" fill="black"/>
</g>
<mask id="mask2_9_450" style="mask-type:luminance" maskUnits="userSpaceOnUse" x="14" y="12" width="23" height="20">
<path d="M23.7154 28.2058C25.0068 30.4101 27.3224 31.6347 29.7048 31.657H29.7716C30.9516 31.657 32.154 31.3453 33.2672 30.6996C35.427 29.4304 36.6516 27.1816 36.7184 24.8438V24.5098C36.6961 23.3742 36.3844 22.2164 35.761 21.1477L32.5547 15.6704H20.3755C17.8595 15.6704 15.6553 14.3345 14.4307 12.3306L23.7154 28.2058Z" fill="white"/>
</mask>
<g mask="url(#mask2_9_450)">
<path d="M13.5625 31.6124L36.6518 32.6589L37.5869 12.3751L14.4754 11.3286L13.5625 31.6124Z" fill="#595959"/>
</g>
</svg>
