<svg width="186" height="33" viewBox="0 0 186 33" fill="none" xmlns="http://www.w3.org/2000/svg">
    <path d="M63.2646 8.35004C63.2646 7.49504 63.9059 6.85381 64.7609 6.85381C65.6159 6.85381 66.2838 7.49504 66.2838 8.35004V14.2014C67.2457 12.8388 68.6084 11.7433 70.7726 11.7433C73.8452 11.7433 76.8644 14.1747 76.8644 18.5565V18.61C76.8644 22.9651 73.8719 25.4232 70.7726 25.4232C68.5816 25.4232 67.219 24.3277 66.2838 23.0987V23.7666C66.2838 24.5949 65.6159 25.2629 64.7609 25.2629C63.9326 25.2629 63.2646 24.5949 63.2646 23.7666V8.35004ZM73.7918 18.61V18.5565C73.7918 16.0183 72.0818 14.335 70.0244 14.335C67.9938 14.335 66.177 16.0183 66.177 18.5565V18.61C66.177 21.1215 67.9671 22.8048 70.0244 22.8048C72.0818 22.8048 73.7918 21.2017 73.7918 18.61Z" fill="white"/>
    <path d="M79.9639 13.3722C79.9639 12.5172 80.6051 11.8493 81.4601 11.8493C82.3151 11.8493 82.9831 12.5172 82.9831 13.3722V14.7082C83.6778 13.0516 84.9602 11.8226 86.2962 11.8226C87.2313 11.8226 87.7924 12.4371 87.7924 13.3188C87.7924 14.1204 87.258 14.628 86.5901 14.7616C84.4526 15.1357 82.9831 16.7655 82.9831 19.8916V23.7657C82.9831 24.594 82.3151 25.262 81.4601 25.262C80.6318 25.262 79.9639 24.6207 79.9639 23.7657V13.3722Z" fill="white"/>
    <path d="M89.0747 18.663V18.6095C89.0747 14.8422 92.0672 11.7429 96.1017 11.7429C100.136 11.7429 103.102 14.8155 103.102 18.5561V18.6095C103.102 22.3501 100.109 25.4495 96.0483 25.4495C92.0405 25.4495 89.0747 22.4036 89.0747 18.663ZM100.083 18.663V18.6095C100.083 16.285 98.4262 14.388 96.0483 14.388C93.6436 14.388 92.0939 16.285 92.0939 18.5828V18.6362C92.0939 20.934 93.7505 22.8578 96.1017 22.8578C98.5331 22.8311 100.083 20.934 100.083 18.663Z" fill="white"/>
    <path d="M105.293 21.3611V21.3076C105.293 18.4755 107.511 17.0861 110.717 17.0861C112.186 17.0861 113.228 17.2999 114.244 17.6205V17.2999C114.244 15.4296 113.095 14.441 110.984 14.441C109.835 14.441 108.9 14.628 108.072 14.9753C107.911 15.0288 107.751 15.0555 107.591 15.0555C106.896 15.0555 106.335 14.4944 106.335 13.7997C106.335 13.2386 106.709 12.7844 107.163 12.5974C108.419 12.1165 109.675 11.8226 111.385 11.8226C113.362 11.8226 114.831 12.3569 115.74 13.2921C116.702 14.2539 117.156 15.6433 117.156 17.3533V23.8192C117.156 24.6475 116.515 25.262 115.686 25.262C114.805 25.262 114.217 24.6742 114.217 23.9795V23.4986C113.335 24.5673 111.946 25.4223 109.942 25.4223C107.484 25.4223 105.293 24.0062 105.293 21.3611ZM114.297 20.4259V19.5442C113.522 19.2503 112.507 19.0099 111.305 19.0099C109.354 19.0099 108.205 19.8381 108.205 21.2008V21.2542C108.205 22.51 109.327 23.2314 110.77 23.2314C112.801 23.2314 114.297 22.1092 114.297 20.4259Z" fill="white"/>
    <path d="M133.694 23.793C133.694 24.648 133.027 25.2893 132.198 25.2893C131.343 25.2893 130.675 24.648 130.675 23.793V22.9647C129.713 24.3274 128.324 25.4228 126.187 25.4228C123.114 25.4228 120.095 22.9647 120.095 18.6096V18.5562C120.095 14.2011 123.06 11.743 126.187 11.743C128.351 11.743 129.713 12.8117 130.675 14.0675V8.37641C130.675 7.52142 131.343 6.88017 132.172 6.88017C133.027 6.88017 133.694 7.52142 133.694 8.37641V23.793ZM123.141 18.5562V18.6096C123.141 21.1479 124.877 22.8311 126.935 22.8311C128.965 22.8311 130.755 21.1479 130.755 18.6096V18.5562C130.755 16.0179 128.965 14.3614 126.935 14.3614C124.877 14.3614 123.141 15.9378 123.141 18.5562Z" fill="white"/>
    <path d="M137.035 23.7928C136.848 23.6592 136.688 23.4187 136.688 23.0981C136.688 22.6439 137.062 22.2698 137.542 22.2698C137.73 22.2698 137.89 22.3233 138.023 22.4302C139.333 23.3386 140.722 23.7928 142.111 23.7928C143.661 23.7928 144.783 22.9912 144.783 21.7622V21.7088C144.783 20.4263 143.26 19.9186 141.577 19.4377C139.573 18.8499 137.329 18.1552 137.329 15.804V15.7505C137.329 13.5329 139.172 12.0634 141.711 12.0634C143.073 12.0634 144.569 12.4909 145.825 13.1588C146.066 13.3191 146.306 13.5863 146.306 13.9604C146.306 14.4146 145.932 14.7887 145.451 14.7887C145.264 14.7887 145.131 14.7352 145.024 14.6818C143.928 14.0673 142.753 13.6932 141.657 13.6932C140.134 13.6932 139.172 14.4948 139.172 15.5635V15.6169C139.172 16.846 140.775 17.3002 142.485 17.8346C144.489 18.4224 146.627 19.1972 146.627 21.5217V21.5752C146.627 24.0065 144.596 25.4226 142.031 25.4226C140.321 25.3959 138.424 24.7814 137.035 23.7928Z" fill="white"/>
    <path d="M149.352 18.7966V18.7431C149.352 15.1094 152.184 12.0101 156.085 12.0101C159.933 12.0101 162.791 15.056 162.791 18.6897V18.7431C162.791 22.3769 159.933 25.4762 156.032 25.4762C152.157 25.4495 149.352 22.4303 149.352 18.7966ZM160.814 18.7966V18.7431C160.814 15.9911 158.757 13.72 156.032 13.72C153.253 13.72 151.329 15.9911 151.329 18.6897V18.7431C151.329 21.5219 153.36 23.7395 156.085 23.7395C158.864 23.7395 160.814 21.4951 160.814 18.7966Z" fill="white"/>
    <path d="M166.959 13.9873H165.917C165.436 13.9873 165.089 13.6133 165.089 13.1323C165.089 12.6781 165.463 12.304 165.917 12.304H166.959V11.1819C166.959 9.71234 167.36 8.59016 168.081 7.86876C168.723 7.22752 169.684 6.88017 170.833 6.88017C171.448 6.88017 171.929 6.93361 172.356 7.04049C172.73 7.12064 173.051 7.44127 173.051 7.86876C173.051 8.37641 172.624 8.75048 172.143 8.69704C171.822 8.6436 171.475 8.56345 171.101 8.56345C169.604 8.56345 168.856 9.44515 168.856 11.3155V12.3575H172.196C172.677 12.3575 173.051 12.7048 173.051 13.1857C173.051 13.64 172.677 14.014 172.196 14.014H168.883V24.3007C168.883 24.835 168.482 25.2625 167.921 25.2625C167.387 25.2625 166.959 24.8083 166.959 24.3007V13.9873Z" fill="white"/>
    <path d="M176.043 21.7359V13.9608H175.001C174.547 13.9608 174.146 13.5601 174.146 13.1058C174.146 12.6249 174.547 12.2508 175.001 12.2508H176.043V9.20493C176.043 8.67056 176.444 8.24306 176.979 8.24306C177.513 8.24306 177.941 8.69727 177.941 9.20493V12.2776H181.28C181.761 12.2776 182.162 12.6783 182.162 13.1326C182.162 13.6135 181.761 13.9875 181.28 13.9875H177.941V21.5222C177.941 23.0986 178.822 23.6597 180.105 23.6597C180.773 23.6597 181.12 23.4993 181.28 23.4993C181.735 23.4993 182.109 23.8734 182.109 24.3276C182.109 24.675 181.868 24.9421 181.548 25.0757C180.986 25.3162 180.399 25.4231 179.65 25.4231C177.62 25.3964 176.043 24.3543 176.043 21.7359Z" fill="white"/>
    <mask id="mask0_6_26" style="mask-type:luminance" maskUnits="userSpaceOnUse" x="13" y="1" width="26" height="15">
    <path d="M38.8784 1.74796H20.3758C16.5239 1.74796 13.4067 4.86512 13.4067 8.71705C13.4067 12.569 16.5239 15.6861 20.3758 15.6861H26.9887L33.1339 5.1991C34.4031 3.03935 36.6519 1.81475 38.9897 1.74796H38.8784Z" fill="white"/>
    </mask>
    <g mask="url(#mask0_6_26)">
    <path d="M15.0546 -4.5309L9.97803 14.7955L37.3423 21.9873L42.4188 2.66084L15.0546 -4.5309Z" fill="white"/>
    </g>
    <mask id="mask1_6_26" style="mask-type:luminance" maskUnits="userSpaceOnUse" x="29" y="1" width="18" height="31">
    <path d="M39.0784 1.74775C36.7183 1.77002 34.425 2.99462 33.1336 5.1989L29.7715 10.9434L35.7609 21.141C37.698 24.4585 36.5847 28.7335 33.2672 30.6706C32.2207 31.2717 31.1074 31.5835 29.9719 31.628C32.2875 31.5612 34.5363 30.3366 35.8054 28.1768L45.1569 12.2125C47.1163 8.89496 46.003 4.62 42.6632 2.68291C41.5722 2.03721 40.3921 1.72549 39.2343 1.72549H39.0784V1.74775Z" fill="white"/>
    </mask>
    <g mask="url(#mask1_6_26)">
    <path d="M61.856 14.2164L36.9855 -6.80217L15.0317 19.2039L39.88 40.2002L61.856 14.2164Z" fill="#595959"/>
    </g>
    <mask id="mask2_6_26" style="mask-type:luminance" maskUnits="userSpaceOnUse" x="14" y="12" width="23" height="20">
    <path d="M23.7154 28.2219C25.0068 30.4261 27.3224 31.6507 29.7048 31.673H29.7716C30.9516 31.673 32.154 31.3613 33.2672 30.7156C35.427 29.4465 36.6516 27.1976 36.7184 24.8598V24.5258C36.6961 23.3903 36.3844 22.2324 35.761 21.1637L32.5547 15.6864H20.3755C17.8595 15.6864 15.6553 14.3505 14.4307 12.3466L23.7154 28.2219Z" fill="white"/>
    </mask>
    <g mask="url(#mask2_6_26)">
    <path d="M13.5625 31.6285L36.6518 32.6749L37.5869 12.3911L14.4754 11.3446L13.5625 31.6285Z" fill="#D9D9D9"/>
    </g>
    </svg>
    